<svg xmlns="http://www.w3.org/2000/svg" xmlns:xlink="http://www.w3.org/1999/xlink" width="500" zoomAndPan="magnify" viewBox="0 0 375 374.999991" height="500" preserveAspectRatio="xMidYMid meet" version="1.0"><defs><filter x="0%" y="0%" width="100%" height="100%" id="3dcc4bec48"><feColorMatrix values="0 0 0 0 1 0 0 0 0 1 0 0 0 0 1 0 0 0 1 0" color-interpolation-filters="sRGB"/></filter><g/><clipPath id="ca6d15197f"><path d="M 198.945312 66.171875 L 210.125 66.171875 L 210.125 90 L 198.945312 90 Z M 198.945312 66.171875 " clip-rule="nonzero"/></clipPath><clipPath id="bc5a258b09"><path d="M 201.195312 66.171875 L 207.875 66.171875 C 209.117188 66.171875 210.125 67.175781 210.125 68.421875 L 210.125 87.71875 C 210.125 88.960938 209.117188 89.96875 207.875 89.96875 L 201.195312 89.96875 C 199.953125 89.96875 198.945312 88.960938 198.945312 87.71875 L 198.945312 68.421875 C 198.945312 67.175781 199.953125 66.171875 201.195312 66.171875 Z M 201.195312 66.171875 " clip-rule="nonzero"/></clipPath><clipPath id="6c4d1b01d3"><path d="M 109 76 L 265 76 L 265 240.609375 L 109 240.609375 Z M 109 76 " clip-rule="nonzero"/></clipPath><clipPath id="0640ae1d96"><path d="M 109 75.609375 L 266 75.609375 L 266 240.609375 L 109 240.609375 Z M 109 75.609375 " clip-rule="nonzero"/></clipPath><clipPath id="198b3cc193"><path d="M 170 75.609375 L 205 75.609375 L 205 86 L 170 86 Z M 170 75.609375 " clip-rule="nonzero"/></clipPath><clipPath id="ddc782e1a7"><path d="M 109 83 L 253 83 L 253 240.609375 L 109 240.609375 Z M 109 83 " clip-rule="nonzero"/></clipPath><clipPath id="9c0977ec09"><path d="M 166.34375 182.816406 L 196.132812 182.816406 L 196.132812 199.632812 L 166.34375 199.632812 Z M 166.34375 182.816406 " clip-rule="nonzero"/></clipPath><clipPath id="b3b0285553"><path d="M 196.132812 199.632812 L 196.132812 182.878906 L 166.34375 182.878906 C 176.273438 188.464844 186.203125 194.046875 196.132812 199.632812 Z M 196.132812 199.632812 " clip-rule="nonzero"/></clipPath><clipPath id="ebc7562a01"><path d="M 184.0625 182.511719 L 196.328125 182.511719 L 196.328125 216.070312 L 184.0625 216.070312 Z M 184.0625 182.511719 " clip-rule="nonzero"/></clipPath><clipPath id="a58e7a6f46"><path d="M 166.355469 204.714844 L 186.527344 204.714844 L 186.527344 216.101562 L 166.355469 216.101562 Z M 166.355469 204.714844 " clip-rule="nonzero"/></clipPath><clipPath id="d4d05da882"><path d="M 186.527344 204.714844 L 186.527344 216.0625 L 166.355469 216.0625 C 173.078125 212.277344 179.804688 208.496094 186.527344 204.714844 Z M 186.527344 204.714844 " clip-rule="nonzero"/></clipPath><clipPath id="af11a0a85d"><path d="M 179.40625 192.511719 L 184.632812 192.511719 L 184.632812 206.457031 L 179.40625 206.457031 Z M 179.40625 192.511719 " clip-rule="nonzero"/></clipPath><clipPath id="77249621eb"><path d="M 180.90625 192.511719 L 183.132812 192.511719 C 183.960938 192.511719 184.632812 193.183594 184.632812 194.011719 L 184.632812 204.949219 C 184.632812 205.777344 183.960938 206.449219 183.132812 206.449219 L 180.90625 206.449219 C 180.078125 206.449219 179.40625 205.777344 179.40625 204.949219 L 179.40625 194.011719 C 179.40625 193.183594 180.078125 192.511719 180.90625 192.511719 Z M 180.90625 192.511719 " clip-rule="nonzero"/></clipPath><clipPath id="7177ef3f74"><path d="M 177.5625 197.800781 L 181.25 197.800781 L 181.25 201.488281 L 177.5625 201.488281 Z M 177.5625 197.800781 " clip-rule="nonzero"/></clipPath><clipPath id="87b3f584ee"><path d="M 179.40625 197.800781 C 178.386719 197.800781 177.5625 198.625 177.5625 199.644531 C 177.5625 200.660156 178.386719 201.488281 179.40625 201.488281 C 180.425781 201.488281 181.25 200.660156 181.25 199.644531 C 181.25 198.625 180.425781 197.800781 179.40625 197.800781 Z M 179.40625 197.800781 " clip-rule="nonzero"/></clipPath><clipPath id="591cf5b31b"><path d="M 192.339844 38.746094 L 206 38.746094 L 206 67 L 192.339844 67 Z M 192.339844 38.746094 " clip-rule="nonzero"/></clipPath><mask id="3255c28efd"><g filter="url(#3dcc4bec48)"><rect x="-37.5" width="450" fill="#000000" y="-37.499999" height="449.999989" fill-opacity="0.43"/></g></mask><clipPath id="2192870129"><path d="M 0.339844 0.746094 L 13.199219 0.746094 L 13.199219 28.960938 L 0.339844 28.960938 Z M 0.339844 0.746094 " clip-rule="nonzero"/></clipPath><clipPath id="40a9fc8d67"><rect x="0" width="14" y="0" height="29"/></clipPath><mask id="08876ba9b8"><g filter="url(#3dcc4bec48)"><rect x="-37.5" width="450" fill="#000000" y="-37.499999" height="449.999989" fill-opacity="0.43"/></g></mask><clipPath id="6a7296cf60"><path d="M 0.921875 0.359375 L 9.558594 0.359375 L 9.558594 15.71875 L 0.921875 15.71875 Z M 0.921875 0.359375 " clip-rule="nonzero"/></clipPath><clipPath id="a456bb0f65"><rect x="0" width="10" y="0" height="16"/></clipPath><clipPath id="af2f0f9e5e"><path d="M 199 42 L 210.339844 42 L 210.339844 67 L 199 67 Z M 199 42 " clip-rule="nonzero"/></clipPath><mask id="ae7b092c6b"><g filter="url(#3dcc4bec48)"><rect x="-37.5" width="450" fill="#000000" y="-37.499999" height="449.999989" fill-opacity="0.43"/></g></mask><clipPath id="a8c5c5edf0"><path d="M 1 0.238281 L 11.238281 0.238281 L 11.238281 24.960938 L 1 24.960938 Z M 1 0.238281 " clip-rule="nonzero"/></clipPath><clipPath id="2bc64eb0eb"><rect x="0" width="12" y="0" height="25"/></clipPath></defs><g clip-path="url(#ca6d15197f)"><g clip-path="url(#bc5a258b09)"><path fill="#0c356a" d="M 198.945312 66.171875 L 210.125 66.171875 L 210.125 89.96875 L 198.945312 89.96875 Z M 198.945312 66.171875 " fill-opacity="1" fill-rule="nonzero"/></g></g><g clip-path="url(#6c4d1b01d3)"><path fill="#0c356a" d="M 264.527344 224.589844 L 206.628906 79.835938 C 205.8125 77.792969 203.90625 76.410156 201.738281 76.246094 C 201.59375 76.238281 201.453125 76.230469 201.308594 76.230469 L 186.183594 76.230469 C 185.105469 76.230469 184.082031 76.535156 183.199219 77.074219 L 171.417969 84.316406 C 170.011719 84.894531 168.859375 86.019531 168.273438 87.488281 L 110.367188 232.242188 C 108.859375 236.003906 111.632812 240.101562 115.6875 240.101562 L 139.746094 240.101562 C 140.921875 240.101562 142.035156 239.742188 142.96875 239.109375 L 155.15625 231.703125 C 156.265625 231.078125 157.164062 230.082031 157.65625 228.84375 L 162.671875 216.308594 L 209.125 216.308594 C 209.144531 216.308594 209.164062 216.320312 209.171875 216.339844 L 217.234375 236.496094 C 218.105469 238.671875 220.210938 240.101562 222.554688 240.101562 L 246.613281 240.101562 C 248.203125 240.101562 249.59375 239.464844 250.605469 238.472656 L 250.609375 238.476562 L 261.601562 231.917969 C 261.980469 231.742188 262.332031 231.535156 262.652344 231.289062 L 262.6875 231.269531 L 262.679688 231.269531 C 264.617188 229.78125 265.535156 227.113281 264.527344 224.589844 Z M 179.332031 174.855469 C 179.296875 174.855469 179.269531 174.820312 179.285156 174.785156 L 185.917969 158.199219 L 192.582031 174.855469 Z M 179.332031 174.855469 " fill-opacity="1" fill-rule="nonzero"/></g><g clip-path="url(#0640ae1d96)"><path fill="#0c356a" d="M 246.613281 240.671875 L 222.554688 240.671875 C 219.960938 240.671875 217.664062 239.117188 216.703125 236.710938 L 208.773438 216.878906 L 163.0625 216.878906 L 158.1875 229.058594 C 157.660156 230.382812 156.683594 231.5 155.4375 232.203125 L 143.277344 239.589844 C 142.230469 240.296875 141.007812 240.671875 139.746094 240.671875 L 115.6875 240.671875 C 113.59375 240.671875 111.640625 239.636719 110.46875 237.902344 C 109.292969 236.167969 109.058594 233.972656 109.835938 232.027344 L 167.742188 87.273438 C 168.363281 85.714844 169.609375 84.453125 171.15625 83.804688 L 182.898438 76.585938 C 183.894531 75.980469 185.03125 75.660156 186.183594 75.660156 L 201.308594 75.660156 C 201.464844 75.660156 201.621094 75.664062 201.78125 75.675781 C 204.160156 75.855469 206.273438 77.402344 207.160156 79.621094 L 265.058594 224.375 C 266.105469 227 265.316406 229.917969 263.097656 231.671875 C 263.0625 231.707031 263.023438 231.738281 262.980469 231.761719 L 262.972656 231.765625 C 262.636719 232.019531 262.265625 232.238281 261.871094 232.421875 L 250.9375 238.949219 C 249.765625 240.0625 248.234375 240.671875 246.613281 240.671875 Z M 162.671875 215.734375 L 209.125 215.734375 C 209.382812 215.734375 209.609375 215.886719 209.703125 216.125 L 217.765625 236.285156 C 218.554688 238.253906 220.433594 239.527344 222.554688 239.527344 L 246.613281 239.527344 C 247.964844 239.527344 249.238281 239.007812 250.203125 238.0625 C 250.230469 238.039062 250.257812 238.015625 250.289062 237.996094 C 250.320312 237.972656 250.351562 237.957031 250.386719 237.941406 L 261.308594 231.425781 C 261.328125 231.414062 261.34375 231.40625 261.363281 231.394531 C 261.703125 231.238281 262.023438 231.050781 262.304688 230.832031 C 262.316406 230.828125 262.324219 230.820312 262.332031 230.8125 C 264.191406 229.382812 264.859375 226.96875 263.992188 224.800781 L 206.097656 80.046875 C 205.371094 78.230469 203.644531 76.964844 201.695312 76.820312 C 201.566406 76.808594 201.433594 76.804688 201.308594 76.804688 L 186.183594 76.804688 C 185.242188 76.804688 184.3125 77.066406 183.5 77.5625 L 171.71875 84.804688 C 171.691406 84.820312 171.664062 84.835938 171.636719 84.847656 C 170.351562 85.375 169.320312 86.414062 168.804688 87.699219 L 110.898438 232.453125 C 110.253906 234.066406 110.441406 235.820312 111.417969 237.261719 C 112.390625 238.699219 113.949219 239.527344 115.6875 239.527344 L 139.746094 239.527344 C 140.785156 239.527344 141.785156 239.21875 142.644531 238.632812 C 142.652344 238.628906 142.660156 238.625 142.667969 238.617188 L 154.859375 231.214844 C 155.890625 230.628906 156.691406 229.714844 157.125 228.632812 L 162.140625 216.09375 C 162.226562 215.875 162.4375 215.734375 162.671875 215.734375 Z M 192.582031 175.429688 L 179.332031 175.429688 C 179.125 175.429688 178.929688 175.324219 178.8125 175.15625 C 178.699219 174.984375 178.675781 174.765625 178.75 174.574219 L 185.386719 157.984375 C 185.472656 157.769531 185.683594 157.625 185.917969 157.625 C 186.152344 157.625 186.363281 157.769531 186.453125 157.984375 L 193.113281 174.640625 C 193.183594 174.820312 193.164062 175.019531 193.054688 175.175781 C 192.949219 175.335938 192.773438 175.429688 192.582031 175.429688 Z M 180.101562 174.28125 L 191.734375 174.28125 L 185.917969 159.742188 Z M 180.101562 174.28125 " fill-opacity="1" fill-rule="nonzero"/></g><path fill="#ffcb42" d="M 264.527344 224.589844 L 206.628906 79.835938 C 206.136719 78.597656 205.238281 77.613281 204.128906 76.984375 L 191.621094 84.6875 C 192.691406 85.316406 193.558594 86.28125 194.039062 87.488281 L 251.933594 232.242188 C 252.851562 234.53125 252.179688 236.933594 250.605469 238.472656 L 250.609375 238.476562 L 261.601562 231.917969 C 261.976562 231.742188 262.332031 231.535156 262.652344 231.289062 L 262.6875 231.269531 L 262.679688 231.269531 C 264.617188 229.78125 265.535156 227.113281 264.527344 224.589844 Z M 264.527344 224.589844 " fill-opacity="1" fill-rule="nonzero"/><path fill="#0c356a" d="M 250.609375 239.050781 C 250.421875 239.050781 250.238281 238.960938 250.128906 238.792969 C 249.980469 238.5625 250.007812 238.253906 250.203125 238.0625 C 251.707031 236.59375 252.179688 234.390625 251.402344 232.453125 L 193.507812 87.699219 C 193.082031 86.640625 192.332031 85.765625 191.332031 85.179688 C 191.160156 85.078125 191.050781 84.894531 191.050781 84.691406 C 191.046875 84.492188 191.152344 84.304688 191.320312 84.199219 L 203.832031 76.496094 C 204.007812 76.386719 204.230469 76.382812 204.414062 76.484375 C 205.660156 77.191406 206.636719 78.304688 207.160156 79.621094 L 265.058594 224.375 C 266.105469 226.996094 265.316406 229.917969 263.097656 231.671875 C 263.0625 231.707031 263.023438 231.738281 262.980469 231.761719 L 262.972656 231.765625 C 262.636719 232.015625 262.265625 232.238281 261.871094 232.421875 L 250.902344 238.96875 C 250.808594 239.023438 250.707031 239.050781 250.609375 239.050781 Z M 192.667969 84.714844 C 193.511719 85.390625 194.171875 86.277344 194.570312 87.273438 L 252.46875 232.027344 C 253.082031 233.5625 253.054688 235.230469 252.464844 236.703125 L 261.308594 231.425781 C 261.328125 231.414062 261.34375 231.402344 261.363281 231.394531 C 261.703125 231.238281 262.023438 231.050781 262.304688 230.832031 C 262.316406 230.828125 262.324219 230.820312 262.332031 230.8125 C 264.191406 229.382812 264.859375 226.96875 263.992188 224.800781 L 206.097656 80.046875 C 205.707031 79.074219 205.015625 78.234375 204.132812 77.65625 Z M 192.667969 84.714844 " fill-opacity="1" fill-rule="nonzero"/><path fill="#ffcb42" d="M 201.738281 76.246094 C 201.59375 76.238281 201.453125 76.230469 201.308594 76.230469 L 186.183594 76.230469 C 185.105469 76.230469 184.082031 76.535156 183.199219 77.074219 L 171.417969 84.316406 C 172.097656 84.039062 172.832031 83.882812 173.59375 83.882812 L 188.71875 83.882812 C 188.910156 83.882812 189.097656 83.898438 189.285156 83.914062 C 190.125 84 190.917969 84.269531 191.621094 84.6875 L 204.128906 76.984375 C 203.40625 76.574219 202.59375 76.3125 201.738281 76.246094 Z M 201.738281 76.246094 " fill-opacity="1" fill-rule="nonzero"/><g clip-path="url(#198b3cc193)"><path fill="#0c356a" d="M 191.621094 85.257812 C 191.523438 85.257812 191.421875 85.234375 191.332031 85.179688 C 190.671875 84.792969 189.964844 84.558594 189.226562 84.484375 C 189.03125 84.464844 188.871094 84.457031 188.71875 84.457031 L 173.59375 84.457031 C 172.921875 84.457031 172.265625 84.589844 171.636719 84.847656 C 171.359375 84.957031 171.042969 84.84375 170.90625 84.574219 C 170.773438 84.308594 170.863281 83.984375 171.117188 83.828125 L 182.898438 76.585938 C 183.894531 75.980469 185.03125 75.660156 186.183594 75.660156 L 201.308594 75.660156 C 201.464844 75.660156 201.621094 75.664062 201.78125 75.675781 C 202.703125 75.746094 203.589844 76.015625 204.414062 76.484375 C 204.589844 76.585938 204.699219 76.769531 204.703125 76.972656 C 204.707031 77.175781 204.605469 77.363281 204.429688 77.472656 L 191.921875 85.175781 C 191.832031 85.230469 191.726562 85.257812 191.621094 85.257812 Z M 174.148438 83.3125 L 188.71875 83.3125 C 188.90625 83.3125 189.105469 83.320312 189.339844 83.34375 C 190.132812 83.425781 190.890625 83.652344 191.605469 84.023438 L 202.910156 77.0625 C 202.515625 76.933594 202.109375 76.851562 201.695312 76.820312 C 201.566406 76.808594 201.433594 76.804688 201.308594 76.804688 L 186.183594 76.804688 C 185.242188 76.804688 184.3125 77.066406 183.5 77.5625 Z M 174.148438 83.3125 " fill-opacity="1" fill-rule="nonzero"/></g><g clip-path="url(#ddc782e1a7)"><path fill="#fff4cf" d="M 217.234375 236.496094 L 209.171875 216.339844 C 209.164062 216.320312 209.144531 216.308594 209.125 216.308594 L 153.179688 216.308594 C 153.15625 216.308594 153.140625 216.320312 153.132812 216.339844 L 145.066406 236.496094 C 144.195312 238.671875 142.089844 240.101562 139.746094 240.101562 L 115.6875 240.101562 C 111.632812 240.101562 108.859375 236.003906 110.367188 232.242188 L 168.273438 87.484375 C 169.144531 85.3125 171.25 83.882812 173.59375 83.882812 L 188.71875 83.882812 C 191.0625 83.882812 193.167969 85.3125 194.039062 87.488281 L 251.933594 232.242188 C 253.441406 236.003906 250.667969 240.101562 246.613281 240.101562 L 222.554688 240.101562 C 220.210938 240.101562 218.105469 238.671875 217.234375 236.496094 Z M 195.613281 182.4375 L 182.75 150.277344 C 182.175781 148.835938 180.136719 148.835938 179.558594 150.277344 L 166.691406 182.4375 C 166.679688 182.472656 166.703125 182.507812 166.742188 182.507812 L 195.566406 182.507812 C 195.601562 182.507812 195.628906 182.472656 195.613281 182.4375 Z M 195.613281 182.4375 " fill-opacity="1" fill-rule="nonzero"/><path fill="#0c356a" d="M 246.613281 240.671875 L 222.554688 240.671875 C 219.964844 240.671875 217.664062 239.117188 216.703125 236.710938 L 208.773438 216.878906 L 153.53125 216.878906 L 145.597656 236.710938 C 144.636719 239.117188 142.339844 240.671875 139.746094 240.671875 L 115.6875 240.671875 C 113.59375 240.671875 111.640625 239.636719 110.46875 237.902344 C 109.292969 236.167969 109.058594 233.972656 109.835938 232.027344 L 167.742188 87.273438 C 168.703125 84.867188 171 83.3125 173.59375 83.3125 L 188.71875 83.3125 C 191.308594 83.3125 193.609375 84.867188 194.570312 87.273438 L 252.46875 232.027344 C 253.246094 233.972656 253.007812 236.167969 251.832031 237.902344 C 250.660156 239.636719 248.707031 240.671875 246.613281 240.671875 Z M 217.765625 236.285156 C 218.554688 238.253906 220.433594 239.527344 222.554688 239.527344 L 246.613281 239.527344 C 248.351562 239.527344 249.910156 238.699219 250.882812 237.261719 C 251.859375 235.820312 252.046875 234.070312 251.402344 232.453125 L 193.507812 87.699219 C 192.71875 85.730469 190.839844 84.457031 188.71875 84.457031 L 173.59375 84.457031 C 171.472656 84.457031 169.59375 85.730469 168.804688 87.699219 L 110.898438 232.453125 C 110.253906 234.066406 110.441406 235.820312 111.417969 237.261719 C 112.390625 238.699219 113.949219 239.527344 115.6875 239.527344 L 139.746094 239.527344 C 141.867188 239.527344 143.746094 238.253906 144.535156 236.285156 L 152.597656 216.125 C 152.695312 215.886719 152.921875 215.734375 153.179688 215.734375 L 209.125 215.734375 C 209.382812 215.734375 209.609375 215.886719 209.703125 216.125 Z M 195.566406 183.082031 L 166.742188 183.082031 C 166.53125 183.082031 166.339844 182.976562 166.222656 182.804688 C 166.105469 182.632812 166.082031 182.417969 166.160156 182.222656 L 179.027344 150.0625 C 179.382812 149.175781 180.199219 148.625 181.15625 148.625 C 182.113281 148.625 182.929688 149.175781 183.285156 150.0625 L 196.148438 182.226562 C 196.222656 182.417969 196.199219 182.632812 196.085938 182.804688 C 195.96875 182.976562 195.773438 183.082031 195.566406 183.082031 Z M 167.511719 181.933594 L 194.796875 181.933594 L 182.21875 150.492188 C 182.007812 149.960938 181.53125 149.769531 181.15625 149.769531 C 180.78125 149.769531 180.304688 149.957031 180.089844 150.488281 Z M 167.511719 181.933594 " fill-opacity="1" fill-rule="nonzero"/></g><path fill="#ffcb42" d="M 153.132812 216.339844 L 145.066406 236.496094 C 144.632812 237.582031 143.890625 238.480469 142.96875 239.109375 L 155.15625 231.703125 C 156.265625 231.078125 157.164062 230.082031 157.65625 228.84375 L 162.671875 216.308594 L 153.179688 216.308594 C 153.15625 216.308594 153.140625 216.320312 153.132812 216.339844 Z M 153.132812 216.339844 " fill-opacity="1" fill-rule="nonzero"/><path fill="#0c356a" d="M 142.96875 239.679688 C 142.777344 239.679688 142.59375 239.589844 142.484375 239.417969 C 142.316406 239.15625 142.386719 238.808594 142.644531 238.632812 C 143.496094 238.054688 144.152344 237.242188 144.535156 236.285156 L 152.597656 216.128906 C 152.695312 215.886719 152.921875 215.734375 153.179688 215.734375 L 162.671875 215.734375 C 162.863281 215.734375 163.042969 215.828125 163.148438 215.984375 C 163.253906 216.144531 163.277344 216.34375 163.207031 216.519531 L 158.191406 229.058594 C 157.660156 230.382812 156.683594 231.5 155.4375 232.203125 L 143.265625 239.597656 C 143.171875 239.65625 143.070312 239.679688 142.96875 239.679688 Z M 153.53125 216.878906 L 145.597656 236.710938 C 145.574219 236.769531 145.550781 236.824219 145.527344 236.882812 L 154.859375 231.214844 C 155.890625 230.628906 156.691406 229.714844 157.125 228.632812 L 161.828125 216.878906 Z M 153.53125 216.878906 " fill-opacity="1" fill-rule="nonzero"/><path fill="#ffcb42" d="M 179.332031 174.855469 C 179.296875 174.855469 179.269531 174.820312 179.285156 174.785156 L 185.917969 158.199219 L 182.75 150.277344 C 182.175781 148.835938 180.136719 148.835938 179.558594 150.277344 L 166.691406 182.4375 C 166.679688 182.472656 166.703125 182.507812 166.742188 182.507812 Z M 179.332031 174.855469 " fill-opacity="1" fill-rule="nonzero"/><path fill="#0c356a" d="M 166.742188 183.082031 C 166.53125 183.082031 166.339844 182.976562 166.222656 182.804688 C 166.105469 182.632812 166.085938 182.417969 166.160156 182.222656 L 179.027344 150.0625 C 179.382812 149.175781 180.199219 148.625 181.15625 148.625 C 182.113281 148.625 182.929688 149.175781 183.285156 150.066406 L 186.453125 157.984375 C 186.507812 158.121094 186.507812 158.273438 186.453125 158.410156 L 179.902344 174.789062 C 179.925781 175.007812 179.824219 175.226562 179.628906 175.34375 L 167.039062 182.996094 C 166.949219 183.050781 166.84375 183.082031 166.742188 183.082031 Z M 167.226562 182.648438 L 167.226562 182.652344 C 167.226562 182.648438 167.226562 182.648438 167.226562 182.648438 Z M 181.15625 149.769531 C 180.78125 149.769531 180.304688 149.957031 180.089844 150.488281 L 167.8125 181.1875 L 178.769531 174.527344 L 185.300781 158.199219 L 182.21875 150.488281 C 182.007812 149.957031 181.53125 149.769531 181.15625 149.769531 Z M 179.332031 174.28125 Z M 179.332031 174.28125 Z M 179.332031 174.28125 " fill-opacity="1" fill-rule="nonzero"/><path fill="#ffcb42" d="M 195.613281 182.4375 L 192.582031 174.855469 L 179.332031 174.855469 L 166.742188 182.507812 L 195.566406 182.507812 C 195.601562 182.507812 195.628906 182.472656 195.613281 182.4375 Z M 195.613281 182.4375 " fill-opacity="1" fill-rule="nonzero"/><path fill="#0c356a" d="M 195.566406 183.082031 L 166.742188 183.082031 C 166.484375 183.082031 166.257812 182.910156 166.1875 182.664062 C 166.121094 182.414062 166.222656 182.152344 166.441406 182.019531 L 179.035156 174.367188 C 179.125 174.3125 179.226562 174.28125 179.332031 174.28125 L 192.582031 174.28125 C 192.816406 174.28125 193.027344 174.425781 193.113281 174.644531 L 196.148438 182.226562 C 196.222656 182.421875 196.199219 182.636719 196.082031 182.808594 C 195.964844 182.980469 195.773438 183.082031 195.566406 183.082031 Z M 168.785156 181.933594 L 194.796875 181.933594 L 192.195312 175.429688 L 179.492188 175.429688 Z M 168.785156 181.933594 " fill-opacity="1" fill-rule="nonzero"/><path fill="#c5ddff" d="M 156.027344 133.125 C 156.027344 133.398438 156 133.671875 155.945312 133.945312 C 155.890625 134.214844 155.8125 134.480469 155.707031 134.734375 C 155.597656 134.992188 155.46875 135.234375 155.316406 135.460938 C 155.164062 135.691406 154.988281 135.90625 154.792969 136.101562 C 154.597656 136.296875 154.382812 136.472656 154.152344 136.625 C 153.925781 136.777344 153.683594 136.90625 153.425781 137.015625 C 153.171875 137.121094 152.90625 137.199219 152.636719 137.253906 C 152.363281 137.308594 152.089844 137.335938 151.816406 137.335938 C 151.539062 137.335938 151.265625 137.308594 150.992188 137.253906 C 150.722656 137.199219 150.457031 137.121094 150.203125 137.015625 C 149.949219 136.90625 149.707031 136.777344 149.476562 136.625 C 149.246094 136.472656 149.03125 136.296875 148.835938 136.101562 C 148.640625 135.90625 148.46875 135.691406 148.3125 135.460938 C 148.160156 135.234375 148.03125 134.992188 147.925781 134.734375 C 147.820312 134.480469 147.738281 134.214844 147.683594 133.945312 C 147.628906 133.671875 147.605469 133.398438 147.605469 133.125 C 147.605469 132.847656 147.628906 132.574219 147.683594 132.300781 C 147.738281 132.03125 147.820312 131.765625 147.925781 131.511719 C 148.03125 131.257812 148.160156 131.015625 148.3125 130.785156 C 148.46875 130.554688 148.640625 130.339844 148.835938 130.144531 C 149.03125 129.949219 149.246094 129.777344 149.476562 129.621094 C 149.707031 129.46875 149.949219 129.339844 150.203125 129.234375 C 150.457031 129.128906 150.722656 129.046875 150.992188 128.992188 C 151.265625 128.9375 151.539062 128.914062 151.816406 128.914062 C 152.089844 128.914062 152.363281 128.9375 152.636719 128.992188 C 152.90625 129.046875 153.171875 129.128906 153.425781 129.234375 C 153.683594 129.339844 153.925781 129.46875 154.152344 129.621094 C 154.382812 129.777344 154.597656 129.949219 154.792969 130.144531 C 154.988281 130.339844 155.164062 130.554688 155.316406 130.785156 C 155.46875 131.015625 155.597656 131.257812 155.707031 131.511719 C 155.8125 131.765625 155.890625 132.03125 155.945312 132.300781 C 156 132.574219 156.027344 132.847656 156.027344 133.125 Z M 156.027344 133.125 " fill-opacity="1" fill-rule="nonzero"/><path fill="#0c356a" d="M 151.820312 137.90625 C 151.738281 137.90625 151.65625 137.90625 151.574219 137.902344 C 150.296875 137.835938 149.121094 137.28125 148.265625 136.332031 C 147.410156 135.382812 146.972656 134.160156 147.035156 132.882812 C 147.167969 130.246094 149.421875 128.214844 152.054688 128.34375 C 154.691406 128.476562 156.726562 130.730469 156.59375 133.363281 C 156.527344 134.640625 155.972656 135.816406 155.023438 136.671875 C 154.136719 137.472656 153.007812 137.90625 151.820312 137.90625 Z M 151.8125 129.484375 C 149.890625 129.484375 148.277344 131 148.179688 132.941406 C 148.132812 133.910156 148.464844 134.839844 149.117188 135.5625 C 149.765625 136.285156 150.660156 136.707031 151.632812 136.757812 C 152.601562 136.804688 153.535156 136.472656 154.253906 135.820312 C 154.976562 135.171875 155.398438 134.277344 155.449219 133.304688 C 155.550781 131.304688 154 129.589844 152 129.488281 C 151.9375 129.488281 151.875 129.484375 151.8125 129.484375 Z M 151.8125 129.484375 " fill-opacity="1" fill-rule="nonzero"/><path fill="#c5ddff" d="M 214.996094 135.035156 C 214.996094 135.308594 214.972656 135.585938 214.917969 135.855469 C 214.863281 136.125 214.78125 136.390625 214.675781 136.644531 C 214.570312 136.902344 214.441406 137.144531 214.289062 137.375 C 214.132812 137.601562 213.960938 137.816406 213.765625 138.011719 C 213.570312 138.207031 213.355469 138.382812 213.125 138.535156 C 212.894531 138.6875 212.652344 138.820312 212.398438 138.925781 C 212.144531 139.03125 211.878906 139.109375 211.609375 139.164062 C 211.335938 139.21875 211.0625 139.246094 210.785156 139.246094 C 210.511719 139.246094 210.238281 139.21875 209.964844 139.164062 C 209.695312 139.109375 209.429688 139.03125 209.175781 138.925781 C 208.917969 138.820312 208.675781 138.6875 208.445312 138.535156 C 208.21875 138.382812 208.003906 138.207031 207.808594 138.011719 C 207.613281 137.816406 207.4375 137.601562 207.285156 137.375 C 207.132812 137.144531 207.003906 136.902344 206.894531 136.644531 C 206.789062 136.390625 206.710938 136.125 206.65625 135.855469 C 206.601562 135.585938 206.574219 135.308594 206.574219 135.035156 C 206.574219 134.757812 206.601562 134.484375 206.65625 134.210938 C 206.710938 133.941406 206.789062 133.679688 206.894531 133.421875 C 207.003906 133.167969 207.132812 132.925781 207.285156 132.695312 C 207.4375 132.464844 207.613281 132.25 207.808594 132.054688 C 208.003906 131.859375 208.21875 131.6875 208.445312 131.53125 C 208.675781 131.378906 208.917969 131.25 209.175781 131.144531 C 209.429688 131.039062 209.695312 130.957031 209.964844 130.902344 C 210.238281 130.851562 210.511719 130.824219 210.785156 130.824219 C 211.0625 130.824219 211.335938 130.851562 211.609375 130.902344 C 211.878906 130.957031 212.144531 131.039062 212.398438 131.144531 C 212.652344 131.25 212.894531 131.378906 213.125 131.53125 C 213.355469 131.6875 213.570312 131.859375 213.765625 132.054688 C 213.960938 132.25 214.132812 132.464844 214.289062 132.695312 C 214.441406 132.925781 214.570312 133.167969 214.675781 133.421875 C 214.78125 133.679688 214.863281 133.941406 214.917969 134.210938 C 214.972656 134.484375 214.996094 134.757812 214.996094 135.035156 Z M 214.996094 135.035156 " fill-opacity="1" fill-rule="nonzero"/><path fill="#0c356a" d="M 210.789062 139.816406 C 210.707031 139.816406 210.628906 139.816406 210.546875 139.8125 C 207.910156 139.679688 205.875 137.425781 206.007812 134.792969 C 206.140625 132.160156 208.394531 130.121094 211.027344 130.257812 C 213.664062 130.390625 215.699219 132.640625 215.566406 135.273438 C 215.4375 137.828125 213.316406 139.816406 210.789062 139.816406 Z M 210.785156 131.394531 C 208.863281 131.394531 207.25 132.910156 207.152344 134.851562 C 207.050781 136.855469 208.601562 138.566406 210.601562 138.667969 C 212.605469 138.773438 214.320312 137.222656 214.421875 135.21875 C 214.519531 133.214844 212.972656 131.5 210.96875 131.402344 C 210.90625 131.398438 210.847656 131.394531 210.785156 131.394531 Z M 210.785156 131.394531 " fill-opacity="1" fill-rule="nonzero"/><path fill="#ffffff" d="M 176.496094 111.667969 C 176.496094 112.640625 176.398438 113.605469 176.210938 114.5625 C 176.019531 115.515625 175.738281 116.445312 175.367188 117.34375 C 174.992188 118.246094 174.535156 119.097656 173.996094 119.910156 C 173.453125 120.71875 172.839844 121.46875 172.152344 122.15625 C 171.460938 122.84375 170.710938 123.460938 169.902344 124 C 169.09375 124.542969 168.238281 125 167.339844 125.371094 C 166.4375 125.746094 165.511719 126.027344 164.554688 126.214844 C 163.601562 126.40625 162.636719 126.5 161.664062 126.5 C 160.6875 126.5 159.722656 126.40625 158.769531 126.214844 C 157.8125 126.027344 156.886719 125.746094 155.988281 125.371094 C 155.085938 125 154.230469 124.542969 153.421875 124 C 152.613281 123.460938 151.863281 122.84375 151.175781 122.15625 C 150.484375 121.46875 149.871094 120.71875 149.332031 119.910156 C 148.789062 119.097656 148.332031 118.246094 147.960938 117.34375 C 147.585938 116.445312 147.304688 115.515625 147.117188 114.5625 C 146.925781 113.605469 146.832031 112.640625 146.832031 111.667969 C 146.832031 110.695312 146.925781 109.730469 147.117188 108.773438 C 147.304688 107.820312 147.585938 106.890625 147.960938 105.992188 C 148.332031 105.09375 148.789062 104.238281 149.332031 103.429688 C 149.871094 102.617188 150.484375 101.871094 151.175781 101.179688 C 151.863281 100.492188 152.613281 99.878906 153.421875 99.335938 C 154.230469 98.796875 155.085938 98.339844 155.988281 97.964844 C 156.886719 97.59375 157.8125 97.3125 158.769531 97.121094 C 159.722656 96.929688 160.6875 96.835938 161.664062 96.835938 C 162.636719 96.835938 163.601562 96.929688 164.554688 97.121094 C 165.511719 97.3125 166.4375 97.59375 167.339844 97.964844 C 168.238281 98.339844 169.09375 98.796875 169.902344 99.335938 C 170.710938 99.878906 171.460938 100.492188 172.152344 101.179688 C 172.839844 101.871094 173.453125 102.617188 173.996094 103.429688 C 174.535156 104.238281 174.992188 105.09375 175.367188 105.992188 C 175.738281 106.890625 176.019531 107.820312 176.210938 108.773438 C 176.398438 109.730469 176.496094 110.695312 176.496094 111.667969 Z M 176.496094 111.667969 " fill-opacity="1" fill-rule="nonzero"/><path fill="#0c356a" d="M 161.695312 127.078125 C 160.789062 127.078125 159.875 126.996094 158.964844 126.835938 C 150.601562 125.347656 145.007812 117.332031 146.496094 108.96875 C 147.214844 104.917969 149.472656 101.390625 152.847656 99.035156 C 156.21875 96.679688 160.308594 95.78125 164.359375 96.5 C 172.722656 97.988281 178.316406 106.003906 176.828125 114.367188 C 176.109375 118.417969 173.855469 121.945312 170.480469 124.300781 C 167.863281 126.125 164.820312 127.078125 161.695312 127.078125 Z M 161.632812 97.40625 C 158.742188 97.40625 155.921875 98.285156 153.5 99.976562 C 150.378906 102.15625 148.292969 105.421875 147.625 109.171875 C 146.246094 116.914062 151.425781 124.332031 159.164062 125.707031 C 162.914062 126.375 166.699219 125.542969 169.824219 123.363281 C 172.945312 121.179688 175.035156 117.914062 175.703125 114.167969 L 176.265625 114.265625 L 175.703125 114.167969 C 177.078125 106.425781 171.902344 99.007812 164.160156 97.628906 C 163.316406 97.480469 162.472656 97.40625 161.632812 97.40625 Z M 161.632812 97.40625 " fill-opacity="1" fill-rule="nonzero"/><path fill="#ffffff" d="M 217.757812 113.75 C 217.757812 114.726562 217.660156 115.691406 217.472656 116.644531 C 217.28125 117.601562 217 118.527344 216.628906 119.425781 C 216.253906 120.328125 215.796875 121.183594 215.257812 121.992188 C 214.714844 122.800781 214.101562 123.550781 213.414062 124.238281 C 212.722656 124.929688 211.976562 125.542969 211.164062 126.085938 C 210.355469 126.625 209.5 127.082031 208.601562 127.453125 C 207.699219 127.828125 206.773438 128.109375 205.816406 128.296875 C 204.863281 128.488281 203.898438 128.582031 202.925781 128.582031 C 201.949219 128.582031 200.984375 128.488281 200.03125 128.296875 C 199.074219 128.109375 198.148438 127.828125 197.25 127.453125 C 196.347656 127.082031 195.492188 126.625 194.683594 126.085938 C 193.875 125.542969 193.125 124.929688 192.4375 124.238281 C 191.746094 123.550781 191.132812 122.800781 190.59375 121.992188 C 190.050781 121.183594 189.59375 120.328125 189.222656 119.425781 C 188.847656 118.527344 188.566406 117.601562 188.378906 116.644531 C 188.1875 115.691406 188.09375 114.726562 188.09375 113.75 C 188.09375 112.777344 188.1875 111.8125 188.378906 110.859375 C 188.566406 109.902344 188.847656 108.976562 189.222656 108.074219 C 189.59375 107.175781 190.050781 106.320312 190.59375 105.511719 C 191.132812 104.703125 191.746094 103.953125 192.4375 103.265625 C 193.125 102.574219 193.875 101.960938 194.683594 101.417969 C 195.492188 100.878906 196.347656 100.421875 197.25 100.046875 C 198.148438 99.675781 199.074219 99.394531 200.03125 99.203125 C 200.984375 99.015625 201.949219 98.917969 202.925781 98.917969 C 203.898438 98.917969 204.863281 99.015625 205.816406 99.203125 C 206.773438 99.394531 207.699219 99.675781 208.601562 100.046875 C 209.5 100.421875 210.355469 100.878906 211.164062 101.417969 C 211.976562 101.960938 212.722656 102.574219 213.414062 103.265625 C 214.101562 103.953125 214.714844 104.703125 215.257812 105.511719 C 215.796875 106.320312 216.253906 107.175781 216.628906 108.074219 C 217 108.976562 217.28125 109.902344 217.472656 110.859375 C 217.660156 111.8125 217.757812 112.777344 217.757812 113.75 Z M 217.757812 113.75 " fill-opacity="1" fill-rule="nonzero"/><path fill="#0c356a" d="M 202.941406 129.15625 C 202.679688 129.15625 202.414062 129.152344 202.148438 129.136719 C 193.664062 128.710938 187.109375 121.457031 187.539062 112.976562 C 187.96875 104.492188 195.21875 97.941406 203.699219 98.367188 C 212.183594 98.792969 218.738281 106.042969 218.308594 114.527344 C 218.101562 118.636719 216.308594 122.421875 213.253906 125.179688 C 210.398438 127.761719 206.761719 129.15625 202.941406 129.15625 Z M 202.917969 99.492188 C 195.378906 99.492188 189.066406 105.425781 188.683594 113.03125 C 188.289062 120.886719 194.351562 127.597656 202.207031 127.992188 C 206.007812 128.183594 209.660156 126.882812 212.484375 124.328125 C 215.3125 121.777344 216.972656 118.273438 217.164062 114.46875 C 217.5625 106.617188 211.496094 99.90625 203.644531 99.511719 C 203.398438 99.5 203.15625 99.492188 202.917969 99.492188 Z M 202.917969 99.492188 " fill-opacity="1" fill-rule="nonzero"/><path fill="#0c356a" d="M 217.738281 114.5 C 218.148438 106.402344 211.980469 99.492188 203.917969 98.953125 C 200.527344 102.789062 198.359375 107.757812 198.082031 113.273438 C 197.792969 118.996094 199.589844 124.34375 202.800781 128.582031 C 210.707031 128.652344 217.335938 122.472656 217.738281 114.5 Z M 217.738281 114.5 " fill-opacity="1" fill-rule="nonzero"/><path fill="#0c356a" d="M 176.265625 114.265625 C 177.695312 106.222656 172.351562 98.539062 164.316406 97.078125 C 161.5 100.214844 159.492188 104.148438 158.699219 108.605469 C 157.539062 115.125 159.199219 121.496094 162.804688 126.460938 C 169.390625 125.957031 175.054688 121.066406 176.265625 114.265625 Z M 176.265625 114.265625 " fill-opacity="1" fill-rule="nonzero"/><path fill="#0c356a" d="M 151.15625 95.386719 C 151.285156 95.519531 151.566406 95.421875 151.691406 95.363281 C 151.949219 95.25 152.222656 95.015625 152.394531 94.800781 C 152.527344 94.632812 152.667969 94.46875 152.8125 94.3125 C 152.832031 94.289062 152.851562 94.269531 152.871094 94.246094 C 152.925781 94.195312 152.976562 94.144531 153.027344 94.09375 C 153.15625 93.96875 153.289062 93.851562 153.425781 93.734375 C 153.476562 93.691406 153.53125 93.644531 153.582031 93.601562 C 153.601562 93.585938 153.621094 93.570312 153.640625 93.554688 C 153.933594 93.332031 154.238281 93.125 154.554688 92.9375 C 154.558594 92.933594 154.566406 92.929688 154.570312 92.925781 C 154.578125 92.921875 154.589844 92.914062 154.597656 92.910156 C 154.675781 92.867188 154.753906 92.824219 154.832031 92.78125 C 154.992188 92.699219 155.148438 92.617188 155.3125 92.542969 C 155.605469 92.402344 155.910156 92.277344 156.214844 92.164062 C 157.175781 91.832031 158.175781 91.632812 159.191406 91.574219 C 160.648438 91.511719 162.117188 91.746094 163.46875 92.296875 C 163.609375 92.308594 163.742188 92.28125 163.867188 92.214844 C 163.941406 92.167969 164.019531 92.121094 164.097656 92.078125 C 164.367188 91.902344 164.585938 91.644531 164.769531 91.382812 C 164.902344 91.191406 165.058594 90.894531 165.066406 90.648438 C 165.085938 90.554688 165.066406 90.472656 165.007812 90.402344 C 164.976562 90.324219 164.917969 90.28125 164.828125 90.273438 C 163.902344 89.898438 162.921875 89.664062 161.929688 89.578125 C 160.042969 89.414062 158.144531 89.742188 156.398438 90.457031 C 154.527344 91.226562 152.824219 92.496094 151.554688 94.074219 C 151.367188 94.3125 151.195312 94.5625 151.101562 94.851562 C 151.042969 95.027344 151.019531 95.242188 151.15625 95.386719 Z M 151.15625 95.386719 " fill-opacity="1" fill-rule="nonzero"/><path fill="#0c356a" d="M 185.855469 125.054688 C 185.707031 124.96875 185.511719 124.910156 185.347656 124.882812 C 185.171875 124.851562 184.984375 124.820312 184.808594 124.851562 C 184.734375 124.863281 184.578125 124.878906 184.558594 124.976562 C 184.335938 126.339844 183.984375 127.714844 183.230469 128.886719 C 182.867188 129.425781 182.421875 129.902344 181.890625 130.277344 C 181.765625 130.367188 181.632812 130.449219 181.5 130.527344 C 181.355469 130.609375 181.300781 130.636719 181.136719 130.707031 C 180.996094 130.765625 180.855469 130.820312 180.707031 130.863281 C 180.636719 130.886719 180.5625 130.90625 180.488281 130.921875 C 180.484375 130.925781 180.472656 130.929688 180.460938 130.929688 C 180.414062 130.945312 180.363281 130.949219 180.316406 130.957031 C 180.242188 130.96875 180.167969 130.976562 180.089844 130.984375 C 180.0625 130.988281 180.023438 130.984375 179.992188 130.992188 C 179.988281 130.992188 179.988281 130.992188 179.984375 130.992188 C 179.921875 130.992188 179.664062 130.964844 179.898438 130.996094 C 179.859375 130.992188 179.824219 130.988281 179.785156 130.984375 C 179.757812 130.984375 179.714844 130.976562 179.6875 130.972656 C 179.707031 130.976562 179.738281 130.980469 179.792969 130.992188 C 179.738281 130.980469 179.679688 130.972656 179.625 130.960938 C 179.597656 130.953125 179.570312 130.945312 179.542969 130.9375 C 179.542969 130.9375 179.539062 130.9375 179.535156 130.9375 C 179.546875 130.941406 179.558594 130.945312 179.570312 130.949219 C 179.535156 130.933594 179.5 130.925781 179.464844 130.910156 C 179.429688 130.898438 179.394531 130.882812 179.359375 130.867188 C 179.347656 130.863281 179.335938 130.859375 179.324219 130.855469 C 179.28125 130.8125 179.179688 130.78125 179.128906 130.753906 C 179.0625 130.714844 179 130.675781 178.933594 130.636719 C 178.929688 130.632812 178.921875 130.628906 178.917969 130.625 C 178.917969 130.625 178.914062 130.625 178.914062 130.621094 C 178.882812 130.601562 178.851562 130.578125 178.820312 130.554688 C 178.75 130.503906 178.679688 130.449219 178.609375 130.390625 C 178.363281 130.183594 178.1875 129.996094 178.015625 129.769531 C 177.546875 129.160156 177.253906 128.4375 177.097656 127.6875 C 176.976562 127.050781 176.949219 126.402344 176.992188 125.753906 C 177 125.652344 176.878906 125.582031 176.808594 125.539062 C 176.660156 125.453125 176.46875 125.398438 176.300781 125.367188 C 176.128906 125.335938 175.941406 125.308594 175.765625 125.335938 C 175.695312 125.347656 175.523438 125.367188 175.515625 125.464844 C 175.433594 126.640625 175.585938 127.867188 176.128906 128.925781 C 176.644531 129.933594 177.519531 130.726562 178.570312 131.152344 C 179.773438 131.648438 181.195312 131.714844 182.402344 131.183594 C 183.421875 130.730469 184.226562 129.96875 184.804688 129.019531 C 185.496094 127.882812 185.824219 126.566406 186.039062 125.265625 C 186.054688 125.171875 185.914062 125.089844 185.855469 125.054688 Z M 185.855469 125.054688 " fill-opacity="1" fill-rule="nonzero"/><path fill="#0c356a" d="M 179.6875 130.972656 C 179.648438 130.964844 179.660156 130.964844 179.6875 130.972656 Z M 179.6875 130.972656 " fill-opacity="1" fill-rule="nonzero"/><path fill="#0c356a" d="M 179.535156 130.9375 C 179.398438 130.878906 179.488281 130.917969 179.535156 130.9375 Z M 179.535156 130.9375 " fill-opacity="1" fill-rule="nonzero"/><path fill="#0c356a" d="M 202.675781 92.164062 C 204.328125 91.707031 206.035156 91.625 207.730469 91.882812 C 208.585938 92.011719 209.410156 92.246094 210.222656 92.542969 C 211.042969 92.839844 211.804688 93.238281 212.546875 93.699219 C 213.375 94.210938 214.121094 94.832031 214.804688 95.527344 C 215.003906 95.730469 215.160156 96.085938 215.183594 96.371094 C 215.199219 96.609375 215.132812 96.925781 214.929688 97.082031 C 214.722656 97.242188 214.453125 97.300781 214.195312 97.234375 C 213.878906 97.15625 213.632812 96.976562 213.40625 96.746094 C 213.339844 96.679688 213.269531 96.613281 213.203125 96.546875 C 212.753906 96.140625 212.269531 95.777344 211.761719 95.453125 C 211.144531 95.089844 210.5 94.785156 209.828125 94.542969 C 209.027344 94.277344 208.199219 94.097656 207.359375 94.011719 C 206.394531 93.9375 205.425781 93.988281 204.476562 94.167969 C 204.28125 94.207031 204.085938 94.253906 203.894531 94.308594 C 203.617188 94.382812 203.359375 94.363281 203.097656 94.238281 C 202.820312 94.109375 202.535156 93.84375 202.390625 93.574219 C 202.261719 93.324219 202.148438 93.015625 202.21875 92.730469 C 202.277344 92.492188 202.417969 92.234375 202.675781 92.164062 Z M 202.675781 92.164062 " fill-opacity="1" fill-rule="nonzero"/><g clip-path="url(#9c0977ec09)"><g clip-path="url(#b3b0285553)"><path fill="#0c356a" d="M 196.132812 199.632812 L 166.34375 199.632812 L 166.34375 182.878906 L 196.132812 182.878906 Z M 196.132812 199.632812 " fill-opacity="1" fill-rule="nonzero"/><path fill="#0c356a" d="M 196.132812 199.632812 L 166.34375 199.632812 L 166.34375 182.878906 L 196.132812 182.878906 Z M 196.132812 199.632812 " fill-opacity="1" fill-rule="nonzero"/></g></g><g clip-path="url(#ebc7562a01)"><path fill="#0c356a" d="M 184.0625 182.511719 L 196.328125 182.511719 L 196.328125 216.050781 L 184.0625 216.050781 Z M 184.0625 182.511719 " fill-opacity="1" fill-rule="nonzero"/></g><g clip-path="url(#a58e7a6f46)"><g clip-path="url(#d4d05da882)"><path fill="#0c356a" d="M 166.355469 204.714844 L 186.527344 204.714844 L 186.527344 216.0625 L 166.355469 216.0625 Z M 166.355469 204.714844 " fill-opacity="1" fill-rule="nonzero"/><path fill="#0c356a" d="M 166.355469 204.714844 L 186.527344 204.714844 L 186.527344 216.0625 L 166.355469 216.0625 Z M 166.355469 204.714844 " fill-opacity="1" fill-rule="nonzero"/></g></g><g clip-path="url(#af11a0a85d)"><g clip-path="url(#77249621eb)"><path fill="#fff4cf" d="M 179.40625 192.511719 L 184.632812 192.511719 L 184.632812 206.457031 L 179.40625 206.457031 Z M 179.40625 192.511719 " fill-opacity="1" fill-rule="nonzero"/></g></g><g clip-path="url(#7177ef3f74)"><g clip-path="url(#87b3f584ee)"><path fill="#0c356a" d="M 177.5625 197.800781 L 181.25 197.800781 L 181.25 201.488281 L 177.5625 201.488281 Z M 177.5625 197.800781 " fill-opacity="1" fill-rule="nonzero"/></g></g><g fill="#0c356a" fill-opacity="1"><g transform="translate(110.664433, 293.491852)"><g><path d="M 23.203125 -39.96875 L 39.328125 0 L 29.546875 0 L 26.59375 -8 L 11.390625 -8 L 8.421875 0 L -1.359375 0 L 14.78125 -39.96875 Z M 23.5 -15.984375 L 19.03125 -27.609375 L 18.9375 -27.609375 L 14.484375 -15.984375 Z M 23.5 -15.984375 "/></g></g></g><g fill="#0c356a" fill-opacity="1"><g transform="translate(146.210453, 293.491852)"><g><path d="M 2.90625 0 L 2.90625 -24.84375 L 11.484375 -24.84375 L 11.484375 -22.234375 L 11.578125 -22.234375 C 13.804688 -24.460938 16.179688 -25.578125 18.703125 -25.578125 C 19.921875 -25.578125 21.132812 -25.414062 22.34375 -25.09375 C 23.5625 -24.769531 24.726562 -24.269531 25.84375 -23.59375 C 26.957031 -22.914062 27.859375 -21.953125 28.546875 -20.703125 C 29.242188 -19.460938 29.59375 -18.019531 29.59375 -16.375 L 29.59375 0 L 21.015625 0 L 21.015625 -14.046875 C 21.015625 -15.335938 20.601562 -16.46875 19.78125 -17.4375 C 18.957031 -18.40625 17.882812 -18.890625 16.5625 -18.890625 C 15.269531 -18.890625 14.097656 -18.390625 13.046875 -17.390625 C 12.003906 -16.390625 11.484375 -15.273438 11.484375 -14.046875 L 11.484375 0 Z M 2.90625 0 "/></g></g></g><g fill="#0c356a" fill-opacity="1"><g transform="translate(175.7998, 293.491852)"><g><path d="M 4.59375 -3.0625 C 2.269531 -5.601562 1.109375 -8.710938 1.109375 -12.390625 C 1.109375 -16.078125 2.269531 -19.195312 4.59375 -21.75 C 6.925781 -24.300781 9.882812 -25.578125 13.46875 -25.578125 C 16.757812 -25.578125 19.472656 -24.539062 21.609375 -22.46875 L 21.609375 -41.65625 L 30.171875 -41.65625 L 30.171875 0 L 21.703125 0 L 21.703125 -2.8125 L 21.609375 -2.8125 C 19.472656 -0.445312 16.757812 0.734375 13.46875 0.734375 C 9.882812 0.734375 6.925781 -0.53125 4.59375 -3.0625 Z M 11.890625 -16.609375 C 10.773438 -15.515625 10.21875 -14.109375 10.21875 -12.390625 C 10.21875 -10.679688 10.75 -9.285156 11.8125 -8.203125 C 12.882812 -7.128906 14.289062 -6.59375 16.03125 -6.59375 C 17.707031 -6.59375 19.085938 -7.140625 20.171875 -8.234375 C 21.253906 -9.328125 21.796875 -10.71875 21.796875 -12.40625 C 21.796875 -14.113281 21.238281 -15.515625 20.125 -16.609375 C 19.007812 -17.710938 17.644531 -18.265625 16.03125 -18.265625 C 14.382812 -18.265625 13.003906 -17.710938 11.890625 -16.609375 Z M 11.890625 -16.609375 "/></g></g></g><g fill="#0c356a" fill-opacity="1"><g transform="translate(206.454556, 293.491852)"><g><path d="M 2.90625 0 L 2.90625 -41.65625 L 11.484375 -41.65625 L 11.484375 0 Z M 2.90625 0 "/></g></g></g><g fill="#0c356a" fill-opacity="1"><g transform="translate(218.416029, 293.491852)"><g><path d="M 28.046875 -11.234375 L 10.03125 -11.234375 C 10.03125 -9.492188 10.59375 -8.203125 11.71875 -7.359375 C 12.851562 -6.523438 14.082031 -6.109375 15.40625 -6.109375 C 16.789062 -6.109375 17.882812 -6.289062 18.6875 -6.65625 C 19.5 -7.03125 20.421875 -7.765625 21.453125 -8.859375 L 27.65625 -5.765625 C 25.070312 -1.429688 20.78125 0.734375 14.78125 0.734375 C 11.03125 0.734375 7.8125 -0.546875 5.125 -3.109375 C 2.445312 -5.679688 1.109375 -8.773438 1.109375 -12.390625 C 1.109375 -16.015625 2.445312 -19.117188 5.125 -21.703125 C 7.8125 -24.285156 11.03125 -25.578125 14.78125 -25.578125 C 18.71875 -25.578125 21.921875 -24.4375 24.390625 -22.15625 C 26.859375 -19.882812 28.09375 -16.632812 28.09375 -12.40625 C 28.09375 -11.820312 28.078125 -11.429688 28.046875 -11.234375 Z M 10.265625 -15.984375 L 19.71875 -15.984375 C 19.519531 -17.273438 19.007812 -18.265625 18.1875 -18.953125 C 17.363281 -19.648438 16.304688 -20 15.015625 -20 C 13.597656 -20 12.46875 -19.628906 11.625 -18.890625 C 10.78125 -18.148438 10.328125 -17.179688 10.265625 -15.984375 Z M 10.265625 -15.984375 "/></g></g></g><g fill="#0c356a" fill-opacity="1"><g transform="translate(245.196542, 293.491852)"><g><path d="M 4.359375 -24.84375 L 4.359375 -34.09375 L 12.9375 -34.09375 L 12.9375 -24.84375 L 18.171875 -24.84375 L 18.171875 -18.3125 L 12.9375 -18.3125 L 12.9375 -10.421875 C 12.9375 -8.117188 13.582031 -6.96875 14.875 -6.96875 C 15.195312 -6.96875 15.535156 -7.03125 15.890625 -7.15625 C 16.242188 -7.289062 16.519531 -7.425781 16.71875 -7.5625 L 17 -7.75 L 19.140625 -0.828125 C 17.296875 0.210938 15.195312 0.734375 12.84375 0.734375 C 11.226562 0.734375 9.835938 0.453125 8.671875 -0.109375 C 7.503906 -0.679688 6.625 -1.441406 6.03125 -2.390625 C 5.4375 -3.347656 5.007812 -4.347656 4.75 -5.390625 C 4.488281 -6.441406 4.359375 -7.566406 4.359375 -8.765625 L 4.359375 -18.3125 L 0.78125 -18.3125 L 0.78125 -24.84375 Z M 4.359375 -24.84375 "/></g></g></g><g fill="#0c356a" fill-opacity="1"><g transform="translate(112.335465, 325.169319)"><g><path d="M 8.140625 0 L 5.5625 0 C 5.476562 0 5.4375 -0.0390625 5.4375 -0.125 L 5.4375 -0.671875 C 5.4375 -0.753906 5.476562 -0.796875 5.5625 -0.796875 L 6.390625 -0.796875 L 6.390625 -3.4375 L 2.40625 -3.4375 L 2.40625 -0.796875 L 3.21875 -0.796875 C 3.3125 -0.796875 3.359375 -0.753906 3.359375 -0.671875 L 3.359375 -0.125 C 3.359375 -0.0390625 3.3125 0 3.21875 0 L 0.65625 0 C 0.5625 0 0.515625 -0.0390625 0.515625 -0.125 L 0.515625 -0.671875 C 0.515625 -0.753906 0.5625 -0.796875 0.65625 -0.796875 L 1.46875 -0.796875 L 1.46875 -6.890625 L 0.65625 -6.890625 C 0.5625 -6.890625 0.515625 -6.929688 0.515625 -7.015625 L 0.515625 -7.5625 C 0.515625 -7.65625 0.5625 -7.703125 0.65625 -7.703125 L 3.21875 -7.703125 C 3.3125 -7.703125 3.359375 -7.65625 3.359375 -7.5625 L 3.359375 -7.015625 C 3.359375 -6.929688 3.3125 -6.890625 3.21875 -6.890625 L 2.40625 -6.890625 L 2.40625 -4.21875 L 6.390625 -4.21875 L 6.390625 -6.890625 L 5.5625 -6.890625 C 5.476562 -6.890625 5.4375 -6.929688 5.4375 -7.015625 L 5.4375 -7.5625 C 5.4375 -7.65625 5.476562 -7.703125 5.5625 -7.703125 L 8.140625 -7.703125 C 8.234375 -7.703125 8.28125 -7.65625 8.28125 -7.5625 L 8.28125 -7.015625 C 8.28125 -6.929688 8.234375 -6.890625 8.140625 -6.890625 L 7.328125 -6.890625 L 7.328125 -0.796875 L 8.140625 -0.796875 C 8.234375 -0.796875 8.28125 -0.753906 8.28125 -0.671875 L 8.28125 -0.125 C 8.28125 -0.0390625 8.234375 0 8.140625 0 Z M 8.140625 0 "/></g></g></g><g fill="#0c356a" fill-opacity="1"><g transform="translate(121.659634, 325.169319)"><g><path d="M 7.96875 -3.890625 C 7.96875 -2.710938 7.613281 -1.753906 6.90625 -1.015625 C 6.207031 -0.285156 5.320312 0.078125 4.25 0.078125 C 3.1875 0.078125 2.296875 -0.289062 1.578125 -1.03125 C 0.867188 -1.769531 0.515625 -2.722656 0.515625 -3.890625 C 0.515625 -5.066406 0.878906 -6.003906 1.609375 -6.703125 C 2.347656 -7.410156 3.226562 -7.765625 4.25 -7.765625 C 5.269531 -7.765625 6.144531 -7.410156 6.875 -6.703125 C 7.601562 -6.003906 7.96875 -5.066406 7.96875 -3.890625 Z M 2.328125 -1.609375 C 2.878906 -1.066406 3.519531 -0.796875 4.25 -0.796875 C 4.976562 -0.796875 5.613281 -1.066406 6.15625 -1.609375 C 6.707031 -2.160156 6.984375 -2.910156 6.984375 -3.859375 C 6.984375 -4.816406 6.703125 -5.5625 6.140625 -6.09375 C 5.585938 -6.632812 4.957031 -6.90625 4.25 -6.90625 C 3.539062 -6.90625 2.90625 -6.632812 2.34375 -6.09375 C 1.789062 -5.5625 1.515625 -4.816406 1.515625 -3.859375 C 1.515625 -2.910156 1.785156 -2.160156 2.328125 -1.609375 Z M 2.328125 -1.609375 "/></g></g></g><g fill="#0c356a" fill-opacity="1"><g transform="translate(130.694446, 325.169319)"><g><path d="M 6.328125 -2.78125 L 6.328125 -6.890625 L 5.5 -6.890625 C 5.414062 -6.890625 5.375 -6.929688 5.375 -7.015625 L 5.375 -7.5625 C 5.375 -7.65625 5.414062 -7.703125 5.5 -7.703125 L 8.078125 -7.703125 C 8.160156 -7.703125 8.203125 -7.65625 8.203125 -7.5625 L 8.203125 -7.015625 C 8.203125 -6.929688 8.160156 -6.890625 8.078125 -6.890625 L 7.25 -6.890625 L 7.25 -2.890625 C 7.25 -1.921875 7 -1.179688 6.5 -0.671875 C 6 -0.171875 5.285156 0.078125 4.359375 0.078125 C 3.441406 0.078125 2.726562 -0.171875 2.21875 -0.671875 C 1.71875 -1.179688 1.46875 -1.921875 1.46875 -2.890625 L 1.46875 -6.890625 L 0.65625 -6.890625 C 0.5625 -6.890625 0.515625 -6.929688 0.515625 -7.015625 L 0.515625 -7.5625 C 0.515625 -7.65625 0.5625 -7.703125 0.65625 -7.703125 L 3.21875 -7.703125 C 3.3125 -7.703125 3.359375 -7.65625 3.359375 -7.5625 L 3.359375 -7.015625 C 3.359375 -6.929688 3.3125 -6.890625 3.21875 -6.890625 L 2.40625 -6.890625 L 2.40625 -2.84375 C 2.40625 -1.476562 3.0625 -0.796875 4.375 -0.796875 C 5.039062 -0.796875 5.53125 -0.972656 5.84375 -1.328125 C 6.164062 -1.679688 6.328125 -2.164062 6.328125 -2.78125 Z M 6.328125 -2.78125 "/></g></g></g><g fill="#0c356a" fill-opacity="1"><g transform="translate(139.95431, 325.169319)"><g><path d="M 1.25 0 L 0.65625 0 C 0.5625 0 0.515625 -0.0390625 0.515625 -0.125 L 0.515625 -2.640625 C 0.515625 -2.734375 0.5625 -2.78125 0.65625 -2.78125 L 1.328125 -2.78125 C 1.410156 -2.78125 1.453125 -2.734375 1.453125 -2.640625 L 1.453125 -2.40625 C 1.453125 -2.269531 1.535156 -2.085938 1.703125 -1.859375 C 1.867188 -1.640625 2.03125 -1.457031 2.1875 -1.3125 C 2.351562 -1.175781 2.570312 -1.054688 2.84375 -0.953125 C 3.125 -0.847656 3.425781 -0.796875 3.75 -0.796875 C 4.300781 -0.796875 4.734375 -0.910156 5.046875 -1.140625 C 5.359375 -1.367188 5.515625 -1.6875 5.515625 -2.09375 C 5.515625 -2.320312 5.425781 -2.519531 5.25 -2.6875 C 5.070312 -2.863281 4.84375 -3 4.5625 -3.09375 C 4.28125 -3.195312 3.96875 -3.289062 3.625 -3.375 C 3.289062 -3.457031 2.953125 -3.554688 2.609375 -3.671875 C 2.273438 -3.785156 1.96875 -3.914062 1.6875 -4.0625 C 1.414062 -4.21875 1.191406 -4.429688 1.015625 -4.703125 C 0.835938 -4.984375 0.75 -5.3125 0.75 -5.6875 C 0.75 -6.28125 0.972656 -6.773438 1.421875 -7.171875 C 1.878906 -7.566406 2.492188 -7.765625 3.265625 -7.765625 C 4.222656 -7.765625 4.925781 -7.476562 5.375 -6.90625 L 5.359375 -7.578125 C 5.359375 -7.660156 5.40625 -7.703125 5.5 -7.703125 L 6.09375 -7.703125 C 6.1875 -7.703125 6.234375 -7.660156 6.234375 -7.578125 L 6.234375 -5.234375 C 6.234375 -5.148438 6.1875 -5.109375 6.09375 -5.109375 L 5.421875 -5.109375 C 5.335938 -5.109375 5.296875 -5.148438 5.296875 -5.234375 L 5.296875 -5.546875 C 5.296875 -5.835938 5.128906 -6.128906 4.796875 -6.421875 C 4.472656 -6.722656 3.992188 -6.875 3.359375 -6.875 C 2.878906 -6.875 2.492188 -6.757812 2.203125 -6.53125 C 1.921875 -6.3125 1.78125 -6.03125 1.78125 -5.6875 C 1.78125 -5.4375 1.867188 -5.21875 2.046875 -5.03125 C 2.222656 -4.851562 2.453125 -4.710938 2.734375 -4.609375 C 3.023438 -4.503906 3.34375 -4.40625 3.6875 -4.3125 C 4.03125 -4.226562 4.375 -4.128906 4.71875 -4.015625 C 5.0625 -3.910156 5.375 -3.78125 5.65625 -3.625 C 5.945312 -3.476562 6.179688 -3.273438 6.359375 -3.015625 C 6.535156 -2.753906 6.625 -2.445312 6.625 -2.09375 C 6.625 -1.457031 6.398438 -0.9375 5.953125 -0.53125 C 5.503906 -0.125 4.832031 0.078125 3.9375 0.078125 C 3.28125 0.078125 2.734375 -0.0507812 2.296875 -0.3125 C 1.867188 -0.582031 1.5625 -0.867188 1.375 -1.171875 L 1.375 -0.125 C 1.375 -0.0390625 1.332031 0 1.25 0 Z M 1.25 0 "/></g></g></g><g fill="#0c356a" fill-opacity="1"><g transform="translate(147.628057, 325.169319)"><g><path d="M 3.21875 0 L 0.65625 0 C 0.5625 0 0.515625 -0.0390625 0.515625 -0.125 L 0.515625 -0.671875 C 0.515625 -0.753906 0.5625 -0.796875 0.65625 -0.796875 L 1.46875 -0.796875 L 1.46875 -6.890625 L 0.65625 -6.890625 C 0.5625 -6.890625 0.515625 -6.929688 0.515625 -7.015625 L 0.515625 -7.5625 C 0.515625 -7.65625 0.5625 -7.703125 0.65625 -7.703125 L 3.21875 -7.703125 C 3.3125 -7.703125 3.359375 -7.65625 3.359375 -7.5625 L 3.359375 -7.015625 C 3.359375 -6.929688 3.3125 -6.890625 3.21875 -6.890625 L 2.40625 -6.890625 L 2.40625 -0.796875 L 3.21875 -0.796875 C 3.3125 -0.796875 3.359375 -0.753906 3.359375 -0.671875 L 3.359375 -0.125 C 3.359375 -0.0390625 3.3125 0 3.21875 0 Z M 3.21875 0 "/></g></g></g><g fill="#0c356a" fill-opacity="1"><g transform="translate(152.043844, 325.169319)"><g><path d="M 7.1875 0 L 6.609375 0 C 6.472656 0 6.363281 -0.0234375 6.28125 -0.078125 C 6.195312 -0.128906 6.125 -0.210938 6.0625 -0.328125 L 2.953125 -5.171875 L 2.421875 -6.078125 L 2.40625 -6.078125 L 2.40625 -0.796875 L 3.21875 -0.796875 C 3.3125 -0.796875 3.359375 -0.753906 3.359375 -0.671875 L 3.359375 -0.125 C 3.359375 -0.0390625 3.3125 0 3.21875 0 L 0.65625 0 C 0.5625 0 0.515625 -0.0390625 0.515625 -0.125 L 0.515625 -0.671875 C 0.515625 -0.753906 0.5625 -0.796875 0.65625 -0.796875 L 1.46875 -0.796875 L 1.46875 -6.890625 L 0.65625 -6.890625 C 0.5625 -6.890625 0.515625 -6.929688 0.515625 -7.015625 L 0.515625 -7.5625 C 0.515625 -7.65625 0.5625 -7.703125 0.65625 -7.703125 L 2.15625 -7.703125 C 2.363281 -7.703125 2.546875 -7.578125 2.703125 -7.328125 L 5.75 -2.546875 L 6.359375 -1.515625 L 6.390625 -1.515625 L 6.390625 -6.890625 L 5.5625 -6.890625 C 5.476562 -6.890625 5.4375 -6.929688 5.4375 -7.015625 L 5.4375 -7.5625 C 5.4375 -7.65625 5.476562 -7.703125 5.5625 -7.703125 L 8.140625 -7.703125 C 8.234375 -7.703125 8.28125 -7.65625 8.28125 -7.5625 L 8.28125 -7.015625 C 8.28125 -6.929688 8.234375 -6.890625 8.140625 -6.890625 L 7.328125 -6.890625 L 7.328125 -0.125 C 7.328125 -0.0390625 7.28125 0 7.1875 0 Z M 7.1875 0 "/></g></g></g><g fill="#0c356a" fill-opacity="1"><g transform="translate(161.368011, 325.169319)"><g><path d="M 7.390625 0 L 6.828125 0 C 6.734375 0 6.6875 -0.0390625 6.6875 -0.125 L 6.703125 -0.875 C 6.066406 -0.238281 5.222656 0.078125 4.171875 0.078125 C 3.128906 0.078125 2.257812 -0.285156 1.5625 -1.015625 C 0.863281 -1.742188 0.515625 -2.703125 0.515625 -3.890625 C 0.515625 -4.679688 0.691406 -5.375 1.046875 -5.96875 C 1.398438 -6.570312 1.847656 -7.019531 2.390625 -7.3125 C 2.941406 -7.613281 3.535156 -7.765625 4.171875 -7.765625 C 5.265625 -7.765625 6.050781 -7.421875 6.53125 -6.734375 L 6.515625 -7.5625 C 6.503906 -7.65625 6.546875 -7.703125 6.640625 -7.703125 L 7.25 -7.703125 C 7.34375 -7.703125 7.390625 -7.65625 7.390625 -7.5625 L 7.390625 -5.359375 C 7.390625 -5.273438 7.34375 -5.234375 7.25 -5.234375 L 6.578125 -5.234375 C 6.484375 -5.234375 6.4375 -5.273438 6.4375 -5.359375 L 6.4375 -5.484375 C 6.4375 -5.796875 6.21875 -6.101562 5.78125 -6.40625 C 5.351562 -6.71875 4.800781 -6.875 4.125 -6.875 C 3.457031 -6.875 2.851562 -6.597656 2.3125 -6.046875 C 1.78125 -5.492188 1.515625 -4.753906 1.515625 -3.828125 C 1.515625 -2.898438 1.785156 -2.164062 2.328125 -1.625 C 2.867188 -1.09375 3.472656 -0.828125 4.140625 -0.828125 C 4.816406 -0.828125 5.347656 -0.929688 5.734375 -1.140625 C 6.128906 -1.359375 6.421875 -1.613281 6.609375 -1.90625 L 6.609375 -2.75 L 4.625 -2.75 C 4.53125 -2.75 4.484375 -2.796875 4.484375 -2.890625 L 4.484375 -3.375 C 4.484375 -3.457031 4.53125 -3.5 4.625 -3.5 L 7.390625 -3.5 C 7.484375 -3.5 7.53125 -3.457031 7.53125 -3.375 L 7.53125 -0.125 C 7.53125 -0.0390625 7.484375 0 7.390625 0 Z M 7.390625 0 "/></g></g></g><g fill="#0c356a" fill-opacity="1"><g transform="translate(169.941987, 325.169319)"><g/></g></g><g fill="#0c356a" fill-opacity="1"><g transform="translate(173.832642, 325.169319)"><g><path d="M 7.46875 -1.9375 C 7.507812 -1.90625 7.53125 -1.867188 7.53125 -1.828125 C 7.53125 -1.796875 7.507812 -1.742188 7.46875 -1.671875 C 7.4375 -1.609375 7.382812 -1.519531 7.3125 -1.40625 C 7.238281 -1.300781 7.101562 -1.148438 6.90625 -0.953125 C 6.71875 -0.765625 6.507812 -0.597656 6.28125 -0.453125 C 6.050781 -0.316406 5.75 -0.191406 5.375 -0.078125 C 5 0.0234375 4.597656 0.078125 4.171875 0.078125 C 3.128906 0.078125 2.257812 -0.285156 1.5625 -1.015625 C 0.863281 -1.742188 0.515625 -2.695312 0.515625 -3.875 C 0.515625 -5.0625 0.863281 -6.003906 1.5625 -6.703125 C 2.269531 -7.410156 3.117188 -7.765625 4.109375 -7.765625 C 5.222656 -7.765625 6.03125 -7.378906 6.53125 -6.609375 L 6.515625 -7.5625 C 6.503906 -7.65625 6.546875 -7.703125 6.640625 -7.703125 L 7.25 -7.703125 C 7.34375 -7.703125 7.390625 -7.65625 7.390625 -7.5625 L 7.390625 -5.234375 C 7.390625 -5.140625 7.34375 -5.09375 7.25 -5.09375 L 6.578125 -5.09375 C 6.484375 -5.09375 6.4375 -5.140625 6.4375 -5.234375 L 6.4375 -5.328125 C 6.4375 -5.660156 6.210938 -6 5.765625 -6.34375 C 5.328125 -6.695312 4.773438 -6.875 4.109375 -6.875 C 3.441406 -6.875 2.84375 -6.613281 2.3125 -6.09375 C 1.78125 -5.570312 1.515625 -4.828125 1.515625 -3.859375 C 1.515625 -2.898438 1.78125 -2.15625 2.3125 -1.625 C 2.851562 -1.09375 3.484375 -0.828125 4.203125 -0.828125 C 4.984375 -0.828125 5.597656 -1 6.046875 -1.34375 C 6.398438 -1.625 6.65625 -1.898438 6.8125 -2.171875 C 6.875 -2.285156 6.941406 -2.304688 7.015625 -2.234375 Z M 7.46875 -1.9375 "/></g></g></g><g fill="#0c356a" fill-opacity="1"><g transform="translate(182.428055, 325.169319)"><g><path d="M 7.96875 -3.890625 C 7.96875 -2.710938 7.613281 -1.753906 6.90625 -1.015625 C 6.207031 -0.285156 5.320312 0.078125 4.25 0.078125 C 3.1875 0.078125 2.296875 -0.289062 1.578125 -1.03125 C 0.867188 -1.769531 0.515625 -2.722656 0.515625 -3.890625 C 0.515625 -5.066406 0.878906 -6.003906 1.609375 -6.703125 C 2.347656 -7.410156 3.226562 -7.765625 4.25 -7.765625 C 5.269531 -7.765625 6.144531 -7.410156 6.875 -6.703125 C 7.601562 -6.003906 7.96875 -5.066406 7.96875 -3.890625 Z M 2.328125 -1.609375 C 2.878906 -1.066406 3.519531 -0.796875 4.25 -0.796875 C 4.976562 -0.796875 5.613281 -1.066406 6.15625 -1.609375 C 6.707031 -2.160156 6.984375 -2.910156 6.984375 -3.859375 C 6.984375 -4.816406 6.703125 -5.5625 6.140625 -6.09375 C 5.585938 -6.632812 4.957031 -6.90625 4.25 -6.90625 C 3.539062 -6.90625 2.90625 -6.632812 2.34375 -6.09375 C 1.789062 -5.5625 1.515625 -4.816406 1.515625 -3.859375 C 1.515625 -2.910156 1.785156 -2.160156 2.328125 -1.609375 Z M 2.328125 -1.609375 "/></g></g></g><g fill="#0c356a" fill-opacity="1"><g transform="translate(191.462865, 325.169319)"><g><path d="M 7.1875 0 L 6.609375 0 C 6.472656 0 6.363281 -0.0234375 6.28125 -0.078125 C 6.195312 -0.128906 6.125 -0.210938 6.0625 -0.328125 L 2.953125 -5.171875 L 2.421875 -6.078125 L 2.40625 -6.078125 L 2.40625 -0.796875 L 3.21875 -0.796875 C 3.3125 -0.796875 3.359375 -0.753906 3.359375 -0.671875 L 3.359375 -0.125 C 3.359375 -0.0390625 3.3125 0 3.21875 0 L 0.65625 0 C 0.5625 0 0.515625 -0.0390625 0.515625 -0.125 L 0.515625 -0.671875 C 0.515625 -0.753906 0.5625 -0.796875 0.65625 -0.796875 L 1.46875 -0.796875 L 1.46875 -6.890625 L 0.65625 -6.890625 C 0.5625 -6.890625 0.515625 -6.929688 0.515625 -7.015625 L 0.515625 -7.5625 C 0.515625 -7.65625 0.5625 -7.703125 0.65625 -7.703125 L 2.15625 -7.703125 C 2.363281 -7.703125 2.546875 -7.578125 2.703125 -7.328125 L 5.75 -2.546875 L 6.359375 -1.515625 L 6.390625 -1.515625 L 6.390625 -6.890625 L 5.5625 -6.890625 C 5.476562 -6.890625 5.4375 -6.929688 5.4375 -7.015625 L 5.4375 -7.5625 C 5.4375 -7.65625 5.476562 -7.703125 5.5625 -7.703125 L 8.140625 -7.703125 C 8.234375 -7.703125 8.28125 -7.65625 8.28125 -7.5625 L 8.28125 -7.015625 C 8.28125 -6.929688 8.234375 -6.890625 8.140625 -6.890625 L 7.328125 -6.890625 L 7.328125 -0.125 C 7.328125 -0.0390625 7.28125 0 7.1875 0 Z M 7.1875 0 "/></g></g></g><g fill="#0c356a" fill-opacity="1"><g transform="translate(200.787032, 325.169319)"><g><path d="M 7.1875 0 L 6.609375 0 C 6.472656 0 6.363281 -0.0234375 6.28125 -0.078125 C 6.195312 -0.128906 6.125 -0.210938 6.0625 -0.328125 L 2.953125 -5.171875 L 2.421875 -6.078125 L 2.40625 -6.078125 L 2.40625 -0.796875 L 3.21875 -0.796875 C 3.3125 -0.796875 3.359375 -0.753906 3.359375 -0.671875 L 3.359375 -0.125 C 3.359375 -0.0390625 3.3125 0 3.21875 0 L 0.65625 0 C 0.5625 0 0.515625 -0.0390625 0.515625 -0.125 L 0.515625 -0.671875 C 0.515625 -0.753906 0.5625 -0.796875 0.65625 -0.796875 L 1.46875 -0.796875 L 1.46875 -6.890625 L 0.65625 -6.890625 C 0.5625 -6.890625 0.515625 -6.929688 0.515625 -7.015625 L 0.515625 -7.5625 C 0.515625 -7.65625 0.5625 -7.703125 0.65625 -7.703125 L 2.15625 -7.703125 C 2.363281 -7.703125 2.546875 -7.578125 2.703125 -7.328125 L 5.75 -2.546875 L 6.359375 -1.515625 L 6.390625 -1.515625 L 6.390625 -6.890625 L 5.5625 -6.890625 C 5.476562 -6.890625 5.4375 -6.929688 5.4375 -7.015625 L 5.4375 -7.5625 C 5.4375 -7.65625 5.476562 -7.703125 5.5625 -7.703125 L 8.140625 -7.703125 C 8.234375 -7.703125 8.28125 -7.65625 8.28125 -7.5625 L 8.28125 -7.015625 C 8.28125 -6.929688 8.234375 -6.890625 8.140625 -6.890625 L 7.328125 -6.890625 L 7.328125 -0.125 C 7.328125 -0.0390625 7.28125 0 7.1875 0 Z M 7.1875 0 "/></g></g></g><g fill="#0c356a" fill-opacity="1"><g transform="translate(210.111199, 325.169319)"><g><path d="M 6.34375 0 L 0.65625 0 C 0.5625 0 0.515625 -0.0390625 0.515625 -0.125 L 0.515625 -0.671875 C 0.515625 -0.753906 0.5625 -0.796875 0.65625 -0.796875 L 1.46875 -0.796875 L 1.46875 -6.890625 L 0.65625 -6.890625 C 0.5625 -6.890625 0.515625 -6.929688 0.515625 -7.015625 L 0.515625 -7.5625 C 0.515625 -7.65625 0.5625 -7.703125 0.65625 -7.703125 L 6.34375 -7.703125 C 6.4375 -7.703125 6.484375 -7.65625 6.484375 -7.5625 L 6.484375 -5.84375 C 6.484375 -5.75 6.4375 -5.703125 6.34375 -5.703125 L 5.765625 -5.703125 C 5.679688 -5.703125 5.640625 -5.75 5.640625 -5.84375 L 5.640625 -6.890625 L 2.40625 -6.890625 L 2.40625 -4.234375 L 5.109375 -4.234375 C 5.203125 -4.234375 5.25 -4.191406 5.25 -4.109375 L 5.25 -3.5625 C 5.25 -3.476562 5.203125 -3.4375 5.109375 -3.4375 L 2.40625 -3.4375 L 2.40625 -0.796875 L 5.625 -0.796875 L 5.625 -1.859375 C 5.625 -1.941406 5.671875 -1.984375 5.765625 -1.984375 L 6.34375 -1.984375 C 6.4375 -1.984375 6.484375 -1.941406 6.484375 -1.859375 L 6.484375 -0.125 C 6.484375 -0.0390625 6.4375 0 6.34375 0 Z M 6.34375 0 "/></g></g></g><g fill="#0c356a" fill-opacity="1"><g transform="translate(217.645625, 325.169319)"><g><path d="M 7.46875 -1.9375 C 7.507812 -1.90625 7.53125 -1.867188 7.53125 -1.828125 C 7.53125 -1.796875 7.507812 -1.742188 7.46875 -1.671875 C 7.4375 -1.609375 7.382812 -1.519531 7.3125 -1.40625 C 7.238281 -1.300781 7.101562 -1.148438 6.90625 -0.953125 C 6.71875 -0.765625 6.507812 -0.597656 6.28125 -0.453125 C 6.050781 -0.316406 5.75 -0.191406 5.375 -0.078125 C 5 0.0234375 4.597656 0.078125 4.171875 0.078125 C 3.128906 0.078125 2.257812 -0.285156 1.5625 -1.015625 C 0.863281 -1.742188 0.515625 -2.695312 0.515625 -3.875 C 0.515625 -5.0625 0.863281 -6.003906 1.5625 -6.703125 C 2.269531 -7.410156 3.117188 -7.765625 4.109375 -7.765625 C 5.222656 -7.765625 6.03125 -7.378906 6.53125 -6.609375 L 6.515625 -7.5625 C 6.503906 -7.65625 6.546875 -7.703125 6.640625 -7.703125 L 7.25 -7.703125 C 7.34375 -7.703125 7.390625 -7.65625 7.390625 -7.5625 L 7.390625 -5.234375 C 7.390625 -5.140625 7.34375 -5.09375 7.25 -5.09375 L 6.578125 -5.09375 C 6.484375 -5.09375 6.4375 -5.140625 6.4375 -5.234375 L 6.4375 -5.328125 C 6.4375 -5.660156 6.210938 -6 5.765625 -6.34375 C 5.328125 -6.695312 4.773438 -6.875 4.109375 -6.875 C 3.441406 -6.875 2.84375 -6.613281 2.3125 -6.09375 C 1.78125 -5.570312 1.515625 -4.828125 1.515625 -3.859375 C 1.515625 -2.898438 1.78125 -2.15625 2.3125 -1.625 C 2.851562 -1.09375 3.484375 -0.828125 4.203125 -0.828125 C 4.984375 -0.828125 5.597656 -1 6.046875 -1.34375 C 6.398438 -1.625 6.65625 -1.898438 6.8125 -2.171875 C 6.875 -2.285156 6.941406 -2.304688 7.015625 -2.234375 Z M 7.46875 -1.9375 "/></g></g></g><g fill="#0c356a" fill-opacity="1"><g transform="translate(226.241038, 325.169319)"><g><path d="M 5.125 0 L 2.625 0 C 2.53125 0 2.484375 -0.046875 2.484375 -0.140625 L 2.484375 -0.671875 C 2.484375 -0.753906 2.53125 -0.796875 2.625 -0.796875 L 3.4375 -0.796875 L 3.4375 -6.890625 L 1.421875 -6.890625 L 1.421875 -5.75 C 1.421875 -5.65625 1.367188 -5.609375 1.265625 -5.609375 L 0.671875 -5.609375 C 0.566406 -5.609375 0.515625 -5.65625 0.515625 -5.75 L 0.515625 -7.5625 C 0.515625 -7.65625 0.566406 -7.703125 0.671875 -7.703125 L 7.125 -7.703125 C 7.226562 -7.703125 7.28125 -7.65625 7.28125 -7.5625 L 7.28125 -5.75 C 7.28125 -5.65625 7.226562 -5.609375 7.125 -5.609375 L 6.515625 -5.609375 C 6.421875 -5.609375 6.375 -5.65625 6.375 -5.75 L 6.375 -6.890625 L 4.375 -6.890625 L 4.375 -0.796875 L 5.125 -0.796875 C 5.226562 -0.796875 5.28125 -0.753906 5.28125 -0.671875 L 5.28125 -0.140625 C 5.28125 -0.046875 5.226562 0 5.125 0 Z M 5.125 0 "/></g></g></g><g fill="#0c356a" fill-opacity="1"><g transform="translate(234.568522, 325.169319)"><g/></g></g><g fill="#0c356a" fill-opacity="1"><g transform="translate(238.459177, 325.169319)"><g><path d="M 8.234375 0 L 5.8125 0 C 5.726562 0 5.6875 -0.0390625 5.6875 -0.125 L 5.6875 -0.671875 C 5.6875 -0.753906 5.726562 -0.796875 5.8125 -0.796875 L 6.5625 -0.796875 L 5.859375 -2.65625 L 2.875 -2.65625 L 2.171875 -0.796875 L 2.921875 -0.796875 C 3.015625 -0.796875 3.0625 -0.753906 3.0625 -0.671875 L 3.0625 -0.125 C 3.0625 -0.0390625 3.015625 0 2.921875 0 L 0.515625 0 C 0.429688 0 0.390625 -0.0390625 0.390625 -0.125 L 0.390625 -0.671875 C 0.390625 -0.753906 0.429688 -0.796875 0.515625 -0.796875 L 1.234375 -0.796875 L 3.53125 -6.890625 L 2.953125 -6.890625 C 2.859375 -6.890625 2.8125 -6.929688 2.8125 -7.015625 L 2.8125 -7.5625 C 2.8125 -7.65625 2.859375 -7.703125 2.953125 -7.703125 L 4.421875 -7.703125 C 4.585938 -7.703125 4.710938 -7.664062 4.796875 -7.59375 C 4.890625 -7.519531 4.96875 -7.398438 5.03125 -7.234375 L 7.5 -0.796875 L 8.234375 -0.796875 C 8.316406 -0.796875 8.359375 -0.753906 8.359375 -0.671875 L 8.359375 -0.125 C 8.359375 -0.0390625 8.316406 0 8.234375 0 Z M 5.578125 -3.390625 L 4.390625 -6.578125 L 4.359375 -6.578125 L 3.15625 -3.390625 Z M 5.578125 -3.390625 "/></g></g></g><g fill="#0c356a" fill-opacity="1"><g transform="translate(248.008398, 325.169319)"><g><path d="M 3.453125 0 L 0.65625 0 C 0.5625 0 0.515625 -0.0390625 0.515625 -0.125 L 0.515625 -0.671875 C 0.515625 -0.753906 0.5625 -0.796875 0.65625 -0.796875 L 1.46875 -0.796875 L 1.46875 -6.890625 L 0.65625 -6.890625 C 0.5625 -6.890625 0.515625 -6.929688 0.515625 -7.015625 L 0.515625 -7.5625 C 0.515625 -7.65625 0.5625 -7.703125 0.65625 -7.703125 L 3.953125 -7.703125 C 4.710938 -7.703125 5.332031 -7.476562 5.8125 -7.03125 C 6.289062 -6.59375 6.53125 -6 6.53125 -5.25 C 6.53125 -4.507812 6.296875 -3.929688 5.828125 -3.515625 C 5.359375 -3.109375 4.695312 -2.90625 3.84375 -2.90625 L 2.40625 -2.90625 L 2.40625 -0.796875 L 3.453125 -0.796875 C 3.535156 -0.796875 3.578125 -0.753906 3.578125 -0.671875 L 3.578125 -0.125 C 3.578125 -0.0390625 3.535156 0 3.453125 0 Z M 2.40625 -3.671875 L 3.796875 -3.671875 C 4.992188 -3.671875 5.59375 -4.195312 5.59375 -5.25 C 5.59375 -5.800781 5.421875 -6.210938 5.078125 -6.484375 C 4.742188 -6.753906 4.320312 -6.890625 3.8125 -6.890625 L 2.40625 -6.890625 Z M 2.40625 -3.671875 "/></g></g></g><g fill="#0c356a" fill-opacity="1"><g transform="translate(255.596409, 325.169319)"><g><path d="M 3.453125 0 L 0.65625 0 C 0.5625 0 0.515625 -0.0390625 0.515625 -0.125 L 0.515625 -0.671875 C 0.515625 -0.753906 0.5625 -0.796875 0.65625 -0.796875 L 1.46875 -0.796875 L 1.46875 -6.890625 L 0.65625 -6.890625 C 0.5625 -6.890625 0.515625 -6.929688 0.515625 -7.015625 L 0.515625 -7.5625 C 0.515625 -7.65625 0.5625 -7.703125 0.65625 -7.703125 L 3.953125 -7.703125 C 4.710938 -7.703125 5.332031 -7.476562 5.8125 -7.03125 C 6.289062 -6.59375 6.53125 -6 6.53125 -5.25 C 6.53125 -4.507812 6.296875 -3.929688 5.828125 -3.515625 C 5.359375 -3.109375 4.695312 -2.90625 3.84375 -2.90625 L 2.40625 -2.90625 L 2.40625 -0.796875 L 3.453125 -0.796875 C 3.535156 -0.796875 3.578125 -0.753906 3.578125 -0.671875 L 3.578125 -0.125 C 3.578125 -0.0390625 3.535156 0 3.453125 0 Z M 2.40625 -3.671875 L 3.796875 -3.671875 C 4.992188 -3.671875 5.59375 -4.195312 5.59375 -5.25 C 5.59375 -5.800781 5.421875 -6.210938 5.078125 -6.484375 C 4.742188 -6.753906 4.320312 -6.890625 3.8125 -6.890625 L 2.40625 -6.890625 Z M 2.40625 -3.671875 "/></g></g></g><g clip-path="url(#591cf5b31b)"><g mask="url(#3255c28efd)"><g transform="matrix(1, 0, 0, 1, 192, 38)"><g clip-path="url(#40a9fc8d67)"><g clip-path="url(#2192870129)"><path fill="#0c356a" d="M 10.207031 28.875 C 10.214844 28.644531 10.148438 28.4375 10.054688 28.265625 C 9.953125 28.085938 9.8125 27.9375 9.660156 27.8125 C 9.507812 27.683594 9.335938 27.570312 9.15625 27.480469 C 9.113281 27.460938 9.066406 27.4375 9.023438 27.417969 C 8.976562 27.398438 8.933594 27.378906 8.882812 27.359375 L 8.734375 27.300781 C 8.683594 27.28125 8.640625 27.269531 8.589844 27.25 C 7.804688 26.972656 6.972656 26.84375 6.09375 26.671875 C 5.871094 26.628906 5.648438 26.582031 5.425781 26.53125 C 5.367188 26.519531 5.308594 26.507812 5.25 26.492188 C 5.195312 26.480469 5.136719 26.46875 5.078125 26.449219 C 4.953125 26.417969 4.832031 26.378906 4.703125 26.339844 C 4.457031 26.265625 4.21875 26.160156 3.984375 26.058594 C 3.75 25.953125 3.527344 25.835938 3.304688 25.703125 C 2.855469 25.441406 2.4375 25.136719 2.046875 24.773438 C 1.851562 24.59375 1.664062 24.398438 1.488281 24.179688 C 1.398438 24.074219 1.308594 23.964844 1.226562 23.851562 C 1.144531 23.734375 1.0625 23.613281 0.992188 23.488281 C 0.835938 23.238281 0.703125 22.957031 0.597656 22.664062 C 0.488281 22.367188 0.410156 22.039062 0.378906 21.695312 C 0.339844 21.351562 0.359375 20.996094 0.421875 20.644531 C 0.492188 20.296875 0.609375 19.953125 0.761719 19.644531 C 0.835938 19.492188 0.925781 19.347656 1.015625 19.207031 C 1.0625 19.136719 1.113281 19.074219 1.15625 19.003906 C 1.207031 18.9375 1.25 18.867188 1.304688 18.8125 C 1.507812 18.5625 1.722656 18.347656 1.945312 18.15625 L 2.027344 18.085938 L 2.117188 18.015625 L 2.296875 17.882812 L 2.386719 17.8125 C 2.417969 17.785156 2.449219 17.765625 2.480469 17.746094 L 2.671875 17.625 C 2.800781 17.542969 2.933594 17.472656 3.066406 17.402344 C 3.199219 17.332031 3.339844 17.277344 3.476562 17.21875 C 4.023438 16.988281 4.582031 16.855469 5.105469 16.773438 C 5.367188 16.730469 5.621094 16.703125 5.871094 16.683594 C 6.117188 16.664062 6.355469 16.644531 6.582031 16.632812 C 7.042969 16.609375 7.476562 16.59375 7.871094 16.570312 L 7.945312 16.5625 L 8.003906 16.558594 C 8.042969 16.558594 8.078125 16.550781 8.117188 16.542969 L 8.175781 16.539062 L 8.234375 16.53125 C 8.269531 16.523438 8.308594 16.519531 8.339844 16.511719 C 8.488281 16.488281 8.628906 16.449219 8.761719 16.402344 C 8.894531 16.359375 9.015625 16.308594 9.132812 16.25 C 9.238281 16.195312 9.339844 16.128906 9.425781 16.066406 C 9.597656 15.933594 9.703125 15.796875 9.78125 15.644531 C 9.820312 15.570312 9.851562 15.488281 9.875 15.382812 C 9.890625 15.332031 9.894531 15.28125 9.902344 15.230469 L 9.90625 15.1875 C 9.90625 15.175781 9.914062 15.160156 9.914062 15.148438 C 9.914062 15.125 9.921875 15.097656 9.921875 15.074219 C 9.925781 14.875 9.882812 14.632812 9.785156 14.371094 C 9.734375 14.246094 9.679688 14.109375 9.601562 13.976562 C 9.5625 13.914062 9.527344 13.84375 9.480469 13.78125 C 9.457031 13.746094 9.441406 13.714844 9.417969 13.675781 L 9.339844 13.574219 C 9.238281 13.4375 9.132812 13.300781 9.011719 13.167969 C 8.890625 13.035156 8.761719 12.894531 8.628906 12.761719 C 8.488281 12.625 8.347656 12.488281 8.195312 12.351562 C 8.042969 12.21875 7.890625 12.078125 7.722656 11.945312 C 7.5625 11.804688 7.398438 11.664062 7.226562 11.523438 L 7.136719 11.449219 L 7.042969 11.367188 L 6.945312 11.28125 C 6.914062 11.257812 6.890625 11.226562 6.855469 11.195312 C 6.800781 11.128906 6.742188 11.074219 6.683594 11.007812 C 6.632812 10.945312 6.582031 10.875 6.53125 10.8125 C 6.335938 10.542969 6.164062 10.257812 6.046875 9.957031 C 6.035156 9.917969 6.015625 9.882812 6.003906 9.84375 L 5.964844 9.730469 C 5.941406 9.652344 5.914062 9.574219 5.894531 9.5 L 5.839844 9.269531 C 5.820312 9.195312 5.8125 9.117188 5.792969 9.039062 L 5.773438 8.925781 C 5.769531 8.886719 5.769531 8.851562 5.761719 8.8125 C 5.753906 8.734375 5.75 8.660156 5.742188 8.589844 C 5.734375 8.441406 5.730469 8.289062 5.742188 8.148438 C 5.75 8.003906 5.761719 7.863281 5.78125 7.714844 C 5.792969 7.644531 5.804688 7.574219 5.820312 7.503906 C 5.824219 7.46875 5.832031 7.4375 5.839844 7.402344 L 5.863281 7.300781 C 5.882812 7.230469 5.894531 7.160156 5.914062 7.097656 L 5.976562 6.894531 C 5.996094 6.824219 6.023438 6.761719 6.046875 6.695312 L 6.125 6.5 C 6.15625 6.4375 6.183594 6.371094 6.214844 6.308594 C 6.246094 6.246094 6.269531 6.179688 6.308594 6.117188 C 6.378906 5.996094 6.449219 5.867188 6.53125 5.753906 C 6.570312 5.695312 6.609375 5.640625 6.652344 5.582031 L 6.78125 5.417969 C 6.800781 5.390625 6.824219 5.359375 6.84375 5.332031 L 6.914062 5.257812 C 6.957031 5.207031 7.003906 5.15625 7.054688 5.109375 L 7.195312 4.96875 L 7.335938 4.835938 L 7.480469 4.710938 L 7.628906 4.59375 L 7.703125 4.539062 L 7.773438 4.488281 L 7.921875 4.378906 C 8.015625 4.316406 8.113281 4.246094 8.207031 4.179688 L 8.488281 3.996094 L 8.769531 3.816406 L 9.035156 3.640625 L 9.167969 3.550781 C 9.214844 3.519531 9.265625 3.488281 9.289062 3.46875 L 9.398438 3.390625 C 9.429688 3.367188 9.460938 3.332031 9.5 3.308594 C 9.519531 3.296875 9.53125 3.277344 9.550781 3.261719 L 9.597656 3.210938 L 9.648438 3.160156 L 9.734375 3.058594 L 9.761719 3.035156 L 9.78125 3.003906 L 9.863281 2.886719 C 9.914062 2.804688 9.964844 2.722656 10.011719 2.632812 C 10.097656 2.453125 10.183594 2.261719 10.238281 2.058594 C 10.304688 1.855469 10.355469 1.644531 10.390625 1.429688 C 10.40625 1.378906 10.410156 1.320312 10.417969 1.261719 L 10.441406 1.097656 C 10.460938 0.988281 10.46875 0.875 10.480469 0.761719 C 10.628906 1.1875 10.722656 1.640625 10.742188 2.117188 C 10.753906 2.351562 10.734375 2.59375 10.703125 2.84375 L 10.691406 2.933594 C 10.683594 2.964844 10.679688 2.996094 10.671875 3.023438 L 10.628906 3.207031 C 10.589844 3.328125 10.550781 3.453125 10.5 3.570312 C 10.398438 3.8125 10.265625 4.046875 10.085938 4.257812 C 10.042969 4.316406 10.003906 4.351562 9.964844 4.402344 L 9.851562 4.539062 L 9.621094 4.796875 C 9.546875 4.882812 9.46875 4.96875 9.390625 5.046875 L 9.167969 5.289062 C 9.09375 5.371094 9.027344 5.449219 8.957031 5.523438 L 8.855469 5.640625 L 8.804688 5.695312 L 8.761719 5.753906 L 8.671875 5.867188 L 8.589844 5.984375 L 8.546875 6.039062 L 8.507812 6.097656 L 8.429688 6.210938 L 8.367188 6.328125 L 8.335938 6.382812 C 8.320312 6.402344 8.316406 6.421875 8.308594 6.441406 L 8.253906 6.554688 C 8.234375 6.59375 8.21875 6.632812 8.207031 6.671875 C 8.175781 6.746094 8.15625 6.824219 8.132812 6.902344 C 8.117188 6.9375 8.113281 6.976562 8.097656 7.015625 L 8.074219 7.128906 L 8.054688 7.25 C 8.046875 7.289062 8.042969 7.332031 8.035156 7.371094 L 8.023438 7.492188 C 8.015625 7.53125 8.023438 7.574219 8.015625 7.613281 L 8.015625 7.730469 C 8.015625 7.765625 8.015625 7.804688 8.015625 7.847656 C 8.023438 7.925781 8.027344 8.003906 8.042969 8.078125 C 8.046875 8.15625 8.066406 8.226562 8.078125 8.300781 C 8.085938 8.339844 8.097656 8.371094 8.113281 8.402344 C 8.117188 8.421875 8.117188 8.4375 8.125 8.453125 L 8.144531 8.503906 C 8.15625 8.539062 8.164062 8.570312 8.183594 8.601562 C 8.195312 8.632812 8.207031 8.660156 8.21875 8.691406 C 8.234375 8.722656 8.253906 8.746094 8.265625 8.773438 L 8.285156 8.816406 C 8.289062 8.832031 8.304688 8.84375 8.308594 8.855469 C 8.371094 8.957031 8.449219 9.046875 8.53125 9.125 C 8.550781 9.144531 8.578125 9.160156 8.597656 9.179688 C 8.621094 9.195312 8.640625 9.210938 8.664062 9.226562 C 8.679688 9.230469 8.683594 9.246094 8.699219 9.25 C 8.710938 9.257812 8.722656 9.261719 8.734375 9.269531 L 8.769531 9.289062 L 8.8125 9.320312 C 8.996094 9.441406 9.1875 9.5625 9.378906 9.691406 C 9.761719 9.945312 10.15625 10.226562 10.546875 10.539062 C 10.742188 10.695312 10.933594 10.863281 11.125 11.039062 C 11.316406 11.21875 11.5 11.417969 11.679688 11.621094 L 11.8125 11.78125 C 11.855469 11.832031 11.902344 11.886719 11.945312 11.945312 C 12.035156 12.058594 12.117188 12.175781 12.199219 12.296875 C 12.359375 12.539062 12.511719 12.796875 12.640625 13.074219 C 12.769531 13.347656 12.882812 13.644531 12.964844 13.957031 C 13.046875 14.269531 13.097656 14.601562 13.117188 14.945312 C 13.125 15.027344 13.125 15.117188 13.125 15.207031 C 13.125 15.25 13.125 15.289062 13.117188 15.332031 L 13.113281 15.453125 C 13.097656 15.621094 13.078125 15.785156 13.046875 15.957031 C 12.992188 16.296875 12.890625 16.640625 12.742188 16.964844 C 12.597656 17.289062 12.410156 17.601562 12.195312 17.875 C 11.976562 18.148438 11.730469 18.398438 11.46875 18.609375 C 11.207031 18.816406 10.933594 18.996094 10.648438 19.144531 C 10.367188 19.289062 10.078125 19.410156 9.792969 19.503906 C 9.507812 19.601562 9.214844 19.671875 8.925781 19.722656 C 8.855469 19.734375 8.78125 19.746094 8.710938 19.761719 L 8.492188 19.785156 C 8.425781 19.792969 8.347656 19.796875 8.277344 19.804688 L 8.21875 19.8125 C 8.199219 19.8125 8.183594 19.8125 8.167969 19.816406 L 8.078125 19.824219 C 7.589844 19.851562 7.136719 19.855469 6.710938 19.863281 C 6.5 19.867188 6.296875 19.867188 6.097656 19.882812 L 5.953125 19.886719 L 5.8125 19.902344 L 5.671875 19.914062 L 5.601562 19.917969 L 5.539062 19.925781 C 5.1875 19.964844 4.875 20.023438 4.601562 20.117188 C 4.53125 20.144531 4.460938 20.160156 4.398438 20.195312 C 4.335938 20.226562 4.265625 20.246094 4.207031 20.28125 L 4.113281 20.328125 C 4.097656 20.332031 4.078125 20.339844 4.066406 20.351562 L 4.023438 20.378906 L 3.933594 20.4375 L 3.890625 20.460938 L 3.84375 20.492188 C 3.601562 20.664062 3.417969 20.84375 3.308594 21.003906 C 3.195312 21.160156 3.136719 21.308594 3.125 21.511719 C 3.105469 21.710938 3.148438 21.972656 3.265625 22.25 C 3.378906 22.53125 3.550781 22.824219 3.769531 23.105469 C 3.875 23.246094 3.996094 23.386719 4.125 23.519531 C 4.25 23.652344 4.386719 23.78125 4.527344 23.90625 C 4.664062 24.027344 4.8125 24.148438 4.964844 24.257812 C 5.117188 24.367188 5.277344 24.46875 5.4375 24.5625 C 5.519531 24.609375 5.597656 24.652344 5.679688 24.695312 C 5.722656 24.714844 5.773438 24.742188 5.820312 24.765625 C 5.863281 24.792969 5.914062 24.8125 5.964844 24.835938 C 6.15625 24.925781 6.359375 25.015625 6.558594 25.105469 C 6.957031 25.28125 7.378906 25.472656 7.792969 25.683594 C 8.003906 25.792969 8.207031 25.902344 8.410156 26.023438 C 8.460938 26.054688 8.511719 26.085938 8.5625 26.117188 C 8.613281 26.148438 8.664062 26.179688 8.71875 26.214844 C 8.820312 26.28125 8.914062 26.347656 9.011719 26.417969 C 9.0625 26.453125 9.105469 26.488281 9.148438 26.523438 L 9.289062 26.640625 C 9.335938 26.679688 9.386719 26.714844 9.429688 26.761719 C 9.476562 26.800781 9.519531 26.851562 9.5625 26.886719 C 9.734375 27.066406 9.894531 27.257812 10.023438 27.46875 L 10.066406 27.550781 C 10.078125 27.574219 10.09375 27.609375 10.113281 27.632812 C 10.136719 27.691406 10.164062 27.746094 10.1875 27.804688 L 10.207031 27.851562 L 10.21875 27.894531 L 10.246094 27.984375 C 10.253906 28.015625 10.257812 28.039062 10.265625 28.074219 C 10.269531 28.105469 10.277344 28.128906 10.285156 28.160156 L 10.296875 28.25 C 10.296875 28.265625 10.304688 28.28125 10.304688 28.296875 L 10.304688 28.429688 C 10.304688 28.460938 10.296875 28.488281 10.289062 28.519531 C 10.285156 28.574219 10.265625 28.632812 10.253906 28.691406 C 10.257812 28.765625 10.234375 28.824219 10.207031 28.875 Z M 10.207031 28.875 " fill-opacity="1" fill-rule="nonzero"/></g></g></g></g></g><g mask="url(#08876ba9b8)"><g transform="matrix(1, 0, 0, 1, 199, 51)"><g clip-path="url(#a456bb0f65)"><g clip-path="url(#6a7296cf60)"><path fill="#0c356a" d="M 5.078125 15.570312 C 5.105469 15.347656 5.097656 15.136719 5.0625 14.933594 C 5.023438 14.730469 4.953125 14.542969 4.855469 14.371094 C 4.761719 14.207031 4.648438 14.054688 4.511719 13.9375 C 4.441406 13.882812 4.371094 13.832031 4.296875 13.78125 C 4.21875 13.730469 4.136719 13.691406 4.054688 13.644531 C 3.71875 13.480469 3.320312 13.371094 2.894531 13.214844 C 2.679688 13.136719 2.457031 13.039062 2.226562 12.914062 C 2.113281 12.851562 1.996094 12.773438 1.882812 12.683594 C 1.769531 12.59375 1.660156 12.5 1.5625 12.386719 L 1.488281 12.296875 L 1.417969 12.207031 C 1.390625 12.175781 1.371094 12.144531 1.355469 12.109375 C 1.335938 12.078125 1.308594 12.046875 1.289062 12.007812 C 1.214844 11.867188 1.148438 11.730469 1.097656 11.574219 C 1.003906 11.277344 0.976562 10.964844 0.996094 10.671875 C 1.015625 10.371094 1.078125 10.09375 1.183594 9.824219 C 1.234375 9.691406 1.289062 9.5625 1.355469 9.4375 C 1.417969 9.308594 1.492188 9.195312 1.578125 9.074219 C 1.660156 8.957031 1.75 8.84375 1.84375 8.742188 C 1.894531 8.691406 1.945312 8.640625 1.996094 8.589844 C 2.046875 8.539062 2.097656 8.5 2.148438 8.453125 C 2.359375 8.277344 2.609375 8.117188 2.855469 7.988281 C 3.105469 7.863281 3.347656 7.785156 3.558594 7.710938 C 3.773438 7.640625 3.972656 7.574219 4.164062 7.503906 C 4.257812 7.472656 4.355469 7.441406 4.449219 7.402344 C 4.546875 7.367188 4.640625 7.332031 4.730469 7.296875 L 4.871094 7.238281 L 5.015625 7.179688 L 5.304688 7.058594 C 5.671875 6.902344 6.035156 6.734375 6.367188 6.542969 C 7.035156 6.167969 7.628906 5.703125 7.914062 5.144531 C 7.933594 5.105469 7.953125 5.074219 7.964844 5.035156 C 7.976562 4.996094 7.996094 4.957031 8.011719 4.917969 C 8.035156 4.84375 8.066406 4.761719 8.085938 4.679688 C 8.132812 4.511719 8.15625 4.332031 8.167969 4.148438 C 8.183594 3.964844 8.183594 3.773438 8.167969 3.574219 C 8.15625 3.378906 8.132812 3.179688 8.09375 2.984375 C 8.0625 2.78125 8.011719 2.582031 7.960938 2.378906 C 7.90625 2.175781 7.851562 1.972656 7.785156 1.765625 C 7.660156 1.359375 7.507812 0.957031 7.335938 0.550781 C 7.660156 0.851562 7.953125 1.1875 8.214844 1.550781 C 8.476562 1.914062 8.703125 2.308594 8.894531 2.730469 C 9.082031 3.148438 9.234375 3.609375 9.296875 4.097656 C 9.328125 4.347656 9.339844 4.601562 9.320312 4.855469 C 9.316406 4.984375 9.296875 5.117188 9.269531 5.246094 C 9.257812 5.308594 9.246094 5.378906 9.226562 5.441406 C 9.214844 5.503906 9.1875 5.570312 9.167969 5.632812 C 9.15625 5.664062 9.148438 5.695312 9.136719 5.730469 L 9.097656 5.824219 C 9.074219 5.886719 9.046875 5.953125 9.015625 6.015625 C 8.984375 6.078125 8.960938 6.136719 8.921875 6.195312 L 8.820312 6.367188 C 8.679688 6.59375 8.519531 6.800781 8.339844 6.984375 C 8.167969 7.167969 7.984375 7.339844 7.792969 7.5 C 7.601562 7.660156 7.40625 7.800781 7.207031 7.925781 C 6.804688 8.1875 6.390625 8.410156 5.976562 8.601562 C 5.875 8.652344 5.769531 8.695312 5.667969 8.742188 L 5.511719 8.804688 L 5.355469 8.875 C 5.136719 8.964844 4.921875 9.039062 4.703125 9.117188 C 4.488281 9.1875 4.269531 9.257812 4.078125 9.320312 C 3.882812 9.386719 3.710938 9.441406 3.578125 9.507812 C 3.4375 9.570312 3.316406 9.640625 3.1875 9.734375 C 3.15625 9.761719 3.125 9.785156 3.09375 9.804688 C 3.066406 9.824219 3.042969 9.851562 3.011719 9.875 C 2.960938 9.925781 2.90625 9.976562 2.855469 10.035156 C 2.664062 10.265625 2.527344 10.542969 2.476562 10.8125 C 2.449219 10.945312 2.441406 11.074219 2.460938 11.1875 C 2.46875 11.246094 2.488281 11.300781 2.507812 11.359375 C 2.511719 11.371094 2.519531 11.386719 2.527344 11.398438 C 2.53125 11.410156 2.539062 11.421875 2.546875 11.441406 L 2.5625 11.488281 L 2.589844 11.53125 C 2.621094 11.589844 2.664062 11.640625 2.71875 11.695312 C 2.769531 11.753906 2.824219 11.804688 2.890625 11.863281 C 3.023438 11.972656 3.183594 12.078125 3.355469 12.1875 C 3.703125 12.402344 4.113281 12.621094 4.492188 12.9375 C 4.683594 13.097656 4.863281 13.28125 5.003906 13.507812 C 5.144531 13.722656 5.234375 13.964844 5.277344 14.199219 C 5.328125 14.441406 5.328125 14.683594 5.289062 14.914062 C 5.277344 15.167969 5.195312 15.386719 5.078125 15.570312 Z M 5.078125 15.570312 " fill-opacity="1" fill-rule="nonzero"/></g></g></g></g><g clip-path="url(#af2f0f9e5e)"><g mask="url(#ae7b092c6b)"><g transform="matrix(1, 0, 0, 1, 199, 42)"><g clip-path="url(#2bc64eb0eb)"><g clip-path="url(#a8c5c5edf0)"><path fill="#0c356a" d="M 8.578125 24.90625 C 8.238281 24.78125 7.925781 24.5625 7.667969 24.296875 C 7.40625 24.027344 7.195312 23.703125 7.046875 23.351562 C 6.894531 23.003906 6.8125 22.613281 6.792969 22.21875 C 6.773438 21.824219 6.832031 21.417969 6.976562 21.027344 C 7.046875 20.835938 7.148438 20.644531 7.257812 20.472656 C 7.269531 20.453125 7.285156 20.429688 7.296875 20.410156 L 7.339844 20.347656 L 7.429688 20.226562 C 7.488281 20.144531 7.550781 20.074219 7.613281 19.996094 C 7.871094 19.695312 8.148438 19.441406 8.410156 19.199219 C 8.671875 18.957031 8.925781 18.722656 9.136719 18.488281 C 9.347656 18.25 9.507812 18.003906 9.609375 17.761719 C 9.621094 17.730469 9.632812 17.695312 9.648438 17.664062 L 9.679688 17.570312 C 9.683594 17.550781 9.691406 17.539062 9.691406 17.519531 L 9.703125 17.46875 L 9.722656 17.367188 C 9.742188 17.230469 9.761719 17.097656 9.753906 16.957031 C 9.753906 16.816406 9.742188 16.679688 9.722656 16.539062 C 9.699219 16.398438 9.667969 16.257812 9.613281 16.117188 C 9.570312 15.976562 9.511719 15.84375 9.449219 15.714844 C 9.417969 15.652344 9.378906 15.589844 9.347656 15.523438 C 9.308594 15.460938 9.277344 15.398438 9.234375 15.339844 L 9.167969 15.25 L 9.097656 15.160156 C 9.054688 15.105469 9.003906 15.046875 8.960938 14.988281 C 8.90625 14.933594 8.855469 14.875 8.804688 14.824219 C 8.75 14.773438 8.699219 14.714844 8.640625 14.664062 C 8.417969 14.460938 8.164062 14.269531 7.894531 14.09375 C 7.628906 13.917969 7.339844 13.753906 7.042969 13.613281 C 6.742188 13.46875 6.4375 13.328125 6.113281 13.199219 C 5.792969 13.066406 5.460938 12.9375 5.132812 12.796875 C 4.800781 12.664062 4.457031 12.523438 4.117188 12.367188 C 3.945312 12.289062 3.773438 12.207031 3.609375 12.117188 C 3.4375 12.035156 3.265625 11.9375 3.09375 11.835938 C 2.75 11.625 2.390625 11.371094 2.078125 11.039062 C 2.003906 10.957031 1.925781 10.863281 1.855469 10.773438 L 1.832031 10.742188 L 1.804688 10.703125 L 1.753906 10.632812 C 1.722656 10.582031 1.691406 10.539062 1.660156 10.488281 L 1.578125 10.332031 C 1.546875 10.28125 1.527344 10.230469 1.5 10.179688 C 1.449219 10.078125 1.410156 9.972656 1.371094 9.867188 C 1.304688 9.660156 1.238281 9.441406 1.207031 9.21875 C 1.1875 9.109375 1.175781 9.003906 1.167969 8.886719 C 1.164062 8.832031 1.164062 8.78125 1.164062 8.722656 C 1.164062 8.664062 1.15625 8.613281 1.164062 8.558594 L 1.167969 8.390625 C 1.167969 8.332031 1.175781 8.28125 1.183594 8.226562 C 1.1875 8.117188 1.207031 8.007812 1.226562 7.902344 C 1.269531 7.683594 1.320312 7.472656 1.398438 7.265625 C 1.550781 6.851562 1.773438 6.480469 2.035156 6.148438 C 2.167969 5.984375 2.308594 5.832031 2.46875 5.691406 C 2.546875 5.621094 2.621094 5.550781 2.703125 5.488281 C 2.742188 5.453125 2.785156 5.421875 2.824219 5.390625 C 2.863281 5.359375 2.90625 5.328125 2.953125 5.300781 L 3.078125 5.210938 C 3.125 5.1875 3.167969 5.15625 3.207031 5.128906 C 3.296875 5.074219 3.386719 5.027344 3.476562 4.976562 C 3.660156 4.886719 3.84375 4.796875 4.035156 4.730469 C 4.417969 4.589844 4.785156 4.503906 5.144531 4.4375 C 5.5 4.367188 5.84375 4.300781 6.167969 4.21875 C 6.328125 4.179688 6.488281 4.136719 6.640625 4.078125 C 6.792969 4.027344 6.933594 3.964844 7.066406 3.886719 C 7.335938 3.742188 7.558594 3.539062 7.722656 3.28125 C 7.894531 3.023438 8.003906 2.703125 8.085938 2.371094 C 8.246094 1.710938 8.253906 0.996094 8.085938 0.296875 C 8.417969 0.9375 8.570312 1.683594 8.527344 2.4375 C 8.511719 2.625 8.492188 2.8125 8.449219 3.003906 C 8.410156 3.195312 8.355469 3.382812 8.269531 3.570312 C 8.113281 3.945312 7.832031 4.289062 7.5 4.539062 C 7.335938 4.664062 7.164062 4.765625 6.984375 4.863281 C 6.804688 4.953125 6.628906 5.027344 6.449219 5.097656 C 6.09375 5.238281 5.742188 5.339844 5.40625 5.449219 C 5.074219 5.558594 4.75 5.664062 4.476562 5.796875 C 4.335938 5.863281 4.199219 5.945312 4.074219 6.023438 C 4.011719 6.066406 3.945312 6.105469 3.882812 6.15625 C 3.851562 6.179688 3.820312 6.199219 3.792969 6.226562 L 3.703125 6.296875 C 3.238281 6.683594 2.890625 7.1875 2.730469 7.722656 C 2.683594 7.851562 2.664062 7.988281 2.648438 8.125 C 2.640625 8.195312 2.632812 8.265625 2.632812 8.328125 C 2.632812 8.359375 2.628906 8.398438 2.632812 8.429688 L 2.632812 8.53125 C 2.632812 8.5625 2.640625 8.601562 2.640625 8.632812 C 2.648438 8.664062 2.648438 8.703125 2.652344 8.734375 C 2.664062 8.804688 2.671875 8.867188 2.691406 8.9375 C 2.71875 9.074219 2.761719 9.199219 2.804688 9.320312 C 2.832031 9.378906 2.855469 9.441406 2.890625 9.5 C 2.90625 9.523438 2.914062 9.558594 2.933594 9.582031 L 2.984375 9.664062 C 2.996094 9.691406 3.023438 9.714844 3.042969 9.742188 L 3.066406 9.78125 L 3.078125 9.796875 L 3.09375 9.816406 C 3.132812 9.863281 3.167969 9.914062 3.21875 9.957031 C 3.40625 10.144531 3.632812 10.308594 3.902344 10.460938 C 4.167969 10.613281 4.476562 10.761719 4.785156 10.902344 C 5.097656 11.039062 5.417969 11.167969 5.75 11.300781 C 6.40625 11.570312 7.09375 11.835938 7.773438 12.195312 C 8.113281 12.371094 8.449219 12.570312 8.773438 12.792969 C 9.097656 13.015625 9.410156 13.269531 9.703125 13.558594 C 9.78125 13.625 9.84375 13.703125 9.914062 13.78125 C 9.984375 13.855469 10.046875 13.933594 10.117188 14.015625 C 10.183594 14.097656 10.246094 14.179688 10.304688 14.265625 L 10.390625 14.390625 L 10.476562 14.523438 C 10.53125 14.613281 10.582031 14.710938 10.632812 14.804688 C 10.660156 14.851562 10.679688 14.902344 10.703125 14.953125 C 10.722656 15.003906 10.75 15.046875 10.769531 15.097656 C 10.851562 15.296875 10.921875 15.492188 10.972656 15.703125 C 11.027344 15.90625 11.0625 16.125 11.085938 16.332031 C 11.105469 16.550781 11.117188 16.765625 11.097656 16.984375 C 11.085938 17.199219 11.042969 17.417969 10.992188 17.632812 L 10.941406 17.792969 L 10.914062 17.867188 C 10.90625 17.894531 10.894531 17.917969 10.882812 17.945312 L 10.820312 18.097656 C 10.800781 18.148438 10.769531 18.199219 10.742188 18.25 C 10.539062 18.652344 10.257812 18.984375 9.964844 19.25 C 9.671875 19.523438 9.375 19.746094 9.085938 19.957031 C 8.800781 20.167969 8.527344 20.371094 8.285156 20.589844 C 8.226562 20.644531 8.167969 20.695312 8.113281 20.753906 L 8.027344 20.84375 L 7.992188 20.886719 C 7.976562 20.902344 7.964844 20.921875 7.953125 20.933594 C 7.90625 20.988281 7.851562 21.054688 7.8125 21.109375 C 7.785156 21.144531 7.769531 21.175781 7.75 21.207031 L 7.71875 21.257812 L 7.691406 21.308594 C 7.546875 21.574219 7.449219 21.882812 7.417969 22.199219 C 7.378906 22.519531 7.40625 22.851562 7.476562 23.179688 C 7.550781 23.507812 7.679688 23.824219 7.863281 24.117188 C 8.042969 24.4375 8.285156 24.695312 8.578125 24.90625 Z M 8.578125 24.90625 " fill-opacity="1" fill-rule="nonzero"/></g></g></g></g></g></svg>