<svg xmlns="http://www.w3.org/2000/svg" xmlns:xlink="http://www.w3.org/1999/xlink" width="500" zoomAndPan="magnify" viewBox="0 0 375 374.999991" height="500" preserveAspectRatio="xMidYMid meet" version="1.0"><defs><filter x="0%" y="0%" width="100%" height="100%" id="39e09b0763"><feColorMatrix values="0 0 0 0 1 0 0 0 0 1 0 0 0 0 1 0 0 0 1 0" color-interpolation-filters="sRGB"/></filter><clipPath id="789ff3897c"><path d="M 207.863281 56.613281 L 227.753906 56.613281 L 227.753906 99 L 207.863281 99 Z M 207.863281 56.613281 " clip-rule="nonzero"/></clipPath><clipPath id="81738c03a4"><path d="M 210.113281 56.613281 L 225.503906 56.613281 C 226.746094 56.613281 227.753906 57.621094 227.753906 58.863281 L 227.753906 96.710938 C 227.753906 97.953125 226.746094 98.960938 225.503906 98.960938 L 210.113281 98.960938 C 208.871094 98.960938 207.863281 97.953125 207.863281 96.710938 L 207.863281 58.863281 C 207.863281 57.621094 208.871094 56.613281 210.113281 56.613281 Z M 210.113281 56.613281 " clip-rule="nonzero"/></clipPath><clipPath id="8d7f927c1e"><path d="M 48 73.414062 L 327 73.414062 L 327 367.414062 L 48 367.414062 Z M 48 73.414062 " clip-rule="nonzero"/></clipPath><clipPath id="99a8325977"><path d="M 157 73.414062 L 219 73.414062 L 219 91 L 157 91 Z M 157 73.414062 " clip-rule="nonzero"/></clipPath><clipPath id="5926e37e10"><path d="M 48 87 L 304 87 L 304 367.414062 L 48 367.414062 Z M 48 87 " clip-rule="nonzero"/></clipPath><clipPath id="2cdc146f1e"><path d="M 149.871094 264.160156 L 202.871094 264.160156 L 202.871094 294.082031 L 149.871094 294.082031 Z M 149.871094 264.160156 " clip-rule="nonzero"/></clipPath><clipPath id="14cc95ac3f"><path d="M 202.871094 294.082031 L 202.871094 264.269531 L 149.871094 264.269531 C 167.539062 274.207031 185.207031 284.144531 202.871094 294.082031 Z M 202.871094 294.082031 " clip-rule="nonzero"/></clipPath><clipPath id="db612c360d"><path d="M 181.386719 263.609375 L 203.210938 263.609375 L 203.210938 323.320312 L 181.386719 323.320312 Z M 181.386719 263.609375 " clip-rule="nonzero"/></clipPath><clipPath id="075d6fb9cd"><path d="M 149.878906 303.113281 L 185.769531 303.113281 L 185.769531 323.378906 L 149.878906 323.378906 Z M 149.878906 303.113281 " clip-rule="nonzero"/></clipPath><clipPath id="ab3d7b79ad"><path d="M 185.769531 303.113281 L 185.769531 323.304688 L 149.878906 323.304688 C 161.84375 316.574219 173.808594 309.84375 185.769531 303.113281 Z M 185.769531 303.113281 " clip-rule="nonzero"/></clipPath><clipPath id="1c3c12222c"><path d="M 173.097656 281.695312 L 182.398438 281.695312 L 182.398438 305.742188 L 173.097656 305.742188 Z M 173.097656 281.695312 " clip-rule="nonzero"/></clipPath><clipPath id="1249d41e15"><path d="M 175.347656 281.695312 L 180.148438 281.695312 C 181.390625 281.695312 182.398438 282.703125 182.398438 283.945312 L 182.398438 303.488281 C 182.398438 304.730469 181.390625 305.738281 180.148438 305.738281 L 175.347656 305.738281 C 174.105469 305.738281 173.097656 304.730469 173.097656 303.488281 L 173.097656 283.945312 C 173.097656 282.703125 174.105469 281.695312 175.347656 281.695312 Z M 175.347656 281.695312 " clip-rule="nonzero"/></clipPath><clipPath id="2a4ec6b2c3"><path d="M 169.820312 290.8125 L 176.378906 290.8125 L 176.378906 297.371094 L 169.820312 297.371094 Z M 169.820312 290.8125 " clip-rule="nonzero"/></clipPath><clipPath id="03a1e96f4d"><path d="M 173.097656 290.8125 C 171.289062 290.8125 169.820312 292.28125 169.820312 294.09375 C 169.820312 295.902344 171.289062 297.371094 173.097656 297.371094 C 174.910156 297.371094 176.378906 295.902344 176.378906 294.09375 C 176.378906 292.28125 174.910156 290.8125 173.097656 290.8125 Z M 173.097656 290.8125 " clip-rule="nonzero"/></clipPath><clipPath id="34959b2ad8"><path d="M 196.113281 7.824219 L 220 7.824219 L 220 58.074219 L 196.113281 58.074219 Z M 196.113281 7.824219 " clip-rule="nonzero"/></clipPath><mask id="2c05840951"><g filter="url(#39e09b0763)"><rect x="-37.5" width="450" fill="#000000" y="-37.499999" height="449.999989" fill-opacity="0.43"/></g></mask><clipPath id="91254ad907"><path d="M 0.113281 0.824219 L 23 0.824219 L 23 51 L 0.113281 51 Z M 0.113281 0.824219 " clip-rule="nonzero"/></clipPath><clipPath id="dac030f471"><rect x="0" width="24" y="0" height="52"/></clipPath><mask id="6e41c7a879"><g filter="url(#39e09b0763)"><rect x="-37.5" width="450" fill="#000000" y="-37.499999" height="449.999989" fill-opacity="0.43"/></g></mask><clipPath id="aee5ed0b1e"><path d="M 0.519531 0.480469 L 15.878906 0.480469 L 15.878906 27.601562 L 0.519531 27.601562 Z M 0.519531 0.480469 " clip-rule="nonzero"/></clipPath><clipPath id="9b3ee75286"><rect x="0" width="16" y="0" height="28"/></clipPath><clipPath id="19960d76d9"><path d="M 209 13 L 227.613281 13 L 227.613281 58.074219 L 209 58.074219 Z M 209 13 " clip-rule="nonzero"/></clipPath><mask id="59a09205a9"><g filter="url(#39e09b0763)"><rect x="-37.5" width="450" fill="#000000" y="-37.499999" height="449.999989" fill-opacity="0.43"/></g></mask><clipPath id="9bc26bdecd"><path d="M 1 1 L 18.613281 1 L 18.613281 45 L 1 45 Z M 1 1 " clip-rule="nonzero"/></clipPath><clipPath id="9e0aba1840"><rect x="0" width="19" y="0" height="46"/></clipPath></defs><g clip-path="url(#789ff3897c)"><g clip-path="url(#81738c03a4)"><path fill="#0c356a" d="M 207.863281 56.613281 L 227.753906 56.613281 L 227.753906 98.957031 L 207.863281 98.957031 Z M 207.863281 56.613281 " fill-opacity="1" fill-rule="nonzero"/></g></g><path fill="#0c356a" d="M 324.554688 338.476562 L 221.539062 80.921875 C 220.085938 77.285156 216.695312 74.828125 212.835938 74.539062 C 212.582031 74.519531 212.328125 74.511719 212.074219 74.511719 L 185.164062 74.511719 C 183.246094 74.511719 181.421875 75.054688 179.855469 76.011719 L 158.890625 88.894531 C 156.390625 89.921875 154.339844 91.925781 153.296875 94.535156 L 50.265625 352.09375 C 47.585938 358.789062 52.515625 366.078125 59.730469 366.078125 L 102.535156 366.078125 C 104.628906 366.078125 106.613281 365.4375 108.269531 364.3125 L 129.957031 351.140625 C 131.933594 350.019531 133.527344 348.253906 134.40625 346.050781 L 143.332031 323.742188 L 225.980469 323.742188 C 226.019531 323.742188 226.050781 323.765625 226.066406 323.800781 L 240.410156 359.667969 C 241.960938 363.539062 245.710938 366.078125 249.878906 366.078125 L 292.683594 366.078125 C 295.515625 366.078125 297.984375 364.945312 299.789062 363.179688 C 299.789062 363.179688 299.785156 363.179688 299.785156 363.183594 L 299.792969 363.191406 L 319.355469 351.515625 C 320.023438 351.207031 320.648438 350.835938 321.222656 350.402344 L 321.28125 350.367188 L 321.273438 350.363281 C 324.714844 347.714844 326.351562 342.96875 324.554688 338.476562 Z M 172.96875 249.988281 C 172.90625 249.988281 172.863281 249.925781 172.886719 249.863281 L 184.691406 220.351562 L 196.546875 249.988281 Z M 172.96875 249.988281 " fill-opacity="1" fill-rule="nonzero"/><g clip-path="url(#8d7f927c1e)"><path fill="#0c356a" d="M 292.683594 367.097656 L 249.878906 367.097656 C 245.265625 367.097656 241.175781 364.328125 239.464844 360.042969 L 225.351562 324.761719 L 144.019531 324.761719 L 135.351562 346.429688 C 134.410156 348.785156 132.671875 350.773438 130.457031 352.027344 L 108.820312 365.171875 C 106.957031 366.429688 104.785156 367.097656 102.535156 367.097656 L 59.730469 367.097656 C 56.003906 367.097656 52.53125 365.253906 50.441406 362.167969 C 48.355469 359.082031 47.933594 355.171875 49.316406 351.714844 L 152.347656 94.15625 C 153.457031 91.386719 155.667969 89.140625 158.425781 87.984375 L 179.320312 75.140625 C 181.089844 74.0625 183.109375 73.492188 185.164062 73.492188 L 212.074219 73.492188 C 212.347656 73.492188 212.632812 73.5 212.910156 73.523438 C 217.148438 73.839844 220.910156 76.59375 222.488281 80.542969 L 325.5 338.097656 C 327.367188 342.765625 325.964844 347.960938 322.007812 351.078125 C 321.949219 351.140625 321.878906 351.195312 321.800781 351.242188 L 321.792969 351.25 C 321.195312 351.695312 320.535156 352.089844 319.832031 352.417969 L 300.378906 364.027344 C 298.292969 366.007812 295.566406 367.097656 292.683594 367.097656 Z M 143.332031 322.722656 L 225.980469 322.722656 C 226.4375 322.722656 226.839844 322.996094 227.011719 323.417969 L 241.359375 359.289062 C 242.757812 362.792969 246.105469 365.054688 249.878906 365.054688 L 292.683594 365.054688 C 295.085938 365.054688 297.351562 364.132812 299.070312 362.453125 C 299.117188 362.40625 299.167969 362.367188 299.222656 362.332031 C 299.277344 362.292969 299.335938 362.261719 299.398438 362.238281 L 318.832031 350.640625 C 318.863281 350.621094 318.894531 350.605469 318.925781 350.589844 C 319.535156 350.308594 320.097656 349.972656 320.605469 349.589844 C 320.621094 349.578125 320.632812 349.566406 320.648438 349.554688 C 323.960938 347.007812 325.148438 342.710938 323.609375 338.855469 L 220.59375 81.300781 C 219.300781 78.070312 216.226562 75.816406 212.761719 75.554688 C 212.53125 75.539062 212.296875 75.53125 212.074219 75.53125 L 185.164062 75.53125 C 183.484375 75.53125 181.832031 75.996094 180.386719 76.882812 L 159.425781 89.761719 C 159.378906 89.792969 159.328125 89.816406 159.277344 89.835938 C 156.992188 90.777344 155.15625 92.628906 154.242188 94.914062 L 51.210938 352.472656 C 50.0625 355.34375 50.398438 358.460938 52.132812 361.023438 C 53.867188 363.585938 56.636719 365.054688 59.730469 365.054688 L 102.535156 365.054688 C 104.382812 365.054688 106.167969 364.507812 107.695312 363.46875 C 107.710938 363.457031 107.722656 363.449219 107.738281 363.441406 L 129.425781 350.265625 C 131.265625 349.226562 132.6875 347.601562 133.460938 345.671875 L 142.382812 323.363281 C 142.539062 322.976562 142.914062 322.722656 143.332031 322.722656 Z M 196.546875 251.007812 L 172.96875 251.007812 C 172.601562 251.007812 172.257812 250.824219 172.050781 250.519531 C 171.84375 250.214844 171.800781 249.828125 171.9375 249.484375 L 183.746094 219.972656 C 183.902344 219.585938 184.277344 219.332031 184.691406 219.332031 C 185.109375 219.332031 185.484375 219.585938 185.640625 219.972656 L 197.492188 249.609375 C 197.617188 249.925781 197.582031 250.28125 197.390625 250.558594 C 197.203125 250.839844 196.886719 251.007812 196.546875 251.007812 Z M 174.34375 248.96875 L 195.039062 248.96875 L 184.691406 223.097656 Z M 174.34375 248.96875 " fill-opacity="1" fill-rule="nonzero"/></g><path fill="#ffcb42" d="M 324.554688 338.476562 L 221.539062 80.921875 C 220.660156 78.722656 219.066406 76.964844 217.09375 75.847656 L 194.839844 89.554688 C 196.742188 90.671875 198.28125 92.394531 199.136719 94.535156 L 302.152344 352.09375 C 303.78125 356.164062 302.585938 360.445312 299.785156 363.179688 L 299.792969 363.1875 L 319.355469 351.515625 C 320.023438 351.207031 320.648438 350.835938 321.222656 350.398438 L 321.28125 350.363281 L 321.269531 350.363281 C 324.714844 347.714844 326.351562 342.96875 324.554688 338.476562 Z M 324.554688 338.476562 " fill-opacity="1" fill-rule="nonzero"/><path fill="#0c356a" d="M 299.792969 364.207031 C 299.460938 364.207031 299.136719 364.046875 298.941406 363.75 C 298.671875 363.34375 298.722656 362.792969 299.074219 362.453125 C 301.746094 359.835938 302.582031 355.917969 301.203125 352.472656 L 198.191406 94.914062 C 197.4375 93.027344 196.097656 91.476562 194.320312 90.433594 C 194.011719 90.25 193.824219 89.921875 193.820312 89.5625 C 193.816406 89.207031 194 88.871094 194.304688 88.683594 L 216.558594 74.980469 C 216.875 74.785156 217.273438 74.777344 217.597656 74.960938 C 219.816406 76.21875 221.550781 78.199219 222.488281 80.542969 L 325.5 338.097656 C 327.367188 342.765625 325.964844 347.960938 322.011719 351.078125 C 321.949219 351.140625 321.878906 351.195312 321.800781 351.242188 L 321.792969 351.25 C 321.195312 351.695312 320.535156 352.089844 319.832031 352.417969 L 300.3125 364.066406 C 300.152344 364.164062 299.96875 364.207031 299.792969 364.207031 Z M 196.699219 89.605469 C 198.199219 90.808594 199.375 92.382812 200.085938 94.15625 L 303.097656 351.714844 C 304.1875 354.441406 304.148438 357.410156 303.097656 360.027344 L 318.832031 350.640625 C 318.863281 350.621094 318.894531 350.605469 318.925781 350.589844 C 319.535156 350.308594 320.097656 349.972656 320.605469 349.589844 C 320.621094 349.578125 320.632812 349.5625 320.648438 349.554688 C 323.960938 347.007812 325.148438 342.710938 323.609375 338.855469 L 220.59375 81.300781 C 219.902344 79.566406 218.671875 78.074219 217.097656 77.042969 Z M 196.699219 89.605469 " fill-opacity="1" fill-rule="nonzero"/><path fill="#ffcb42" d="M 212.835938 74.539062 C 212.582031 74.519531 212.328125 74.511719 212.074219 74.511719 L 185.164062 74.511719 C 183.246094 74.511719 181.421875 75.054688 179.855469 76.011719 L 158.890625 88.894531 C 160.097656 88.398438 161.40625 88.125 162.761719 88.125 L 189.671875 88.125 C 190.011719 88.125 190.347656 88.148438 190.679688 88.183594 C 192.171875 88.332031 193.582031 88.816406 194.839844 89.554688 L 217.09375 75.847656 C 215.804688 75.117188 214.359375 74.652344 212.835938 74.539062 Z M 212.835938 74.539062 " fill-opacity="1" fill-rule="nonzero"/><g clip-path="url(#99a8325977)"><path fill="#0c356a" d="M 194.839844 90.574219 C 194.660156 90.574219 194.480469 90.527344 194.320312 90.433594 C 193.148438 89.742188 191.890625 89.328125 190.578125 89.195312 C 190.230469 89.160156 189.941406 89.144531 189.671875 89.144531 L 162.761719 89.144531 C 161.570312 89.144531 160.394531 89.378906 159.277344 89.839844 C 158.785156 90.039062 158.222656 89.832031 157.980469 89.355469 C 157.742188 88.882812 157.902344 88.304688 158.355469 88.027344 L 179.320312 75.140625 C 181.089844 74.0625 183.109375 73.492188 185.164062 73.492188 L 212.074219 73.492188 C 212.347656 73.492188 212.632812 73.5 212.910156 73.523438 C 214.554688 73.644531 216.132812 74.128906 217.597656 74.960938 C 217.910156 75.140625 218.109375 75.46875 218.113281 75.828125 C 218.121094 76.191406 217.9375 76.527344 217.628906 76.714844 L 195.375 90.421875 C 195.210938 90.523438 195.023438 90.574219 194.839844 90.574219 Z M 163.746094 87.105469 L 189.671875 87.105469 C 190.007812 87.105469 190.363281 87.125 190.78125 87.167969 C 192.1875 87.308594 193.539062 87.710938 194.8125 88.371094 L 214.921875 75.988281 C 214.21875 75.757812 213.496094 75.613281 212.761719 75.554688 C 212.53125 75.539062 212.296875 75.53125 212.074219 75.53125 L 185.164062 75.53125 C 183.484375 75.53125 181.832031 75.996094 180.386719 76.882812 Z M 163.746094 87.105469 " fill-opacity="1" fill-rule="nonzero"/></g><path fill="#fff4cf" d="M 240.410156 359.664062 L 226.066406 323.800781 C 226.050781 323.765625 226.019531 323.742188 225.980469 323.742188 L 126.4375 323.742188 C 126.402344 323.742188 126.367188 323.765625 126.351562 323.800781 L 112.003906 359.667969 C 110.457031 363.539062 106.707031 366.074219 102.535156 366.074219 L 59.730469 366.074219 C 52.519531 366.074219 47.585938 358.789062 50.265625 352.09375 L 153.296875 94.535156 C 154.84375 90.664062 158.59375 88.125 162.761719 88.125 L 189.671875 88.125 C 193.839844 88.125 197.589844 90.664062 199.136719 94.535156 L 302.152344 352.09375 C 304.832031 358.789062 299.898438 366.078125 292.683594 366.078125 L 249.878906 366.078125 C 245.707031 366.074219 241.960938 363.539062 240.410156 359.664062 Z M 201.941406 263.480469 L 179.054688 206.257812 C 178.03125 203.695312 174.402344 203.695312 173.375 206.257812 L 150.484375 263.480469 C 150.460938 263.539062 150.503906 263.605469 150.566406 263.605469 L 201.859375 263.605469 C 201.921875 263.605469 201.964844 263.539062 201.941406 263.480469 Z M 201.941406 263.480469 " fill-opacity="1" fill-rule="nonzero"/><g clip-path="url(#5926e37e10)"><path fill="#0c356a" d="M 292.683594 367.097656 L 249.878906 367.097656 C 245.265625 367.097656 241.175781 364.328125 239.464844 360.042969 L 225.351562 324.761719 L 127.066406 324.761719 L 112.949219 360.046875 C 111.238281 364.328125 107.148438 367.097656 102.535156 367.097656 L 59.730469 367.097656 C 56.003906 367.097656 52.53125 365.253906 50.441406 362.167969 C 48.355469 359.082031 47.933594 355.171875 49.316406 351.714844 L 152.347656 94.15625 C 154.0625 89.875 158.148438 87.105469 162.761719 87.105469 L 189.671875 87.105469 C 194.285156 87.105469 198.371094 89.875 200.085938 94.15625 L 303.097656 351.714844 C 304.480469 355.175781 304.0625 359.082031 301.972656 362.167969 C 299.882812 365.253906 296.410156 367.097656 292.683594 367.097656 Z M 241.355469 359.289062 C 242.757812 362.792969 246.105469 365.058594 249.878906 365.058594 L 292.683594 365.058594 C 295.777344 365.058594 298.546875 363.585938 300.28125 361.023438 C 302.019531 358.460938 302.355469 355.34375 301.203125 352.472656 L 198.191406 94.914062 C 196.789062 91.410156 193.445312 89.144531 189.671875 89.144531 L 162.761719 89.144531 C 158.988281 89.144531 155.644531 91.410156 154.242188 94.914062 L 51.210938 352.472656 C 50.0625 355.34375 50.398438 358.460938 52.132812 361.023438 C 53.867188 363.585938 56.636719 365.054688 59.730469 365.054688 L 102.535156 365.054688 C 106.3125 365.054688 109.65625 362.792969 111.058594 359.289062 L 125.40625 323.421875 C 125.574219 322.996094 125.980469 322.722656 126.4375 322.722656 L 225.980469 322.722656 C 226.4375 322.722656 226.84375 322.996094 227.011719 323.421875 Z M 201.859375 264.625 L 150.566406 264.625 C 150.199219 264.625 149.855469 264.441406 149.648438 264.136719 C 149.441406 263.828125 149.398438 263.441406 149.539062 263.097656 L 172.429688 205.878906 C 173.0625 204.296875 174.511719 203.316406 176.214844 203.316406 C 177.917969 203.316406 179.371094 204.296875 180.003906 205.878906 L 202.890625 263.101562 C 203.027344 263.441406 202.984375 263.828125 202.777344 264.136719 C 202.570312 264.441406 202.226562 264.625 201.859375 264.625 Z M 151.941406 262.585938 L 200.488281 262.585938 L 178.109375 206.636719 C 177.730469 205.691406 176.882812 205.355469 176.214844 205.355469 C 175.546875 205.355469 174.699219 205.691406 174.324219 206.636719 Z M 151.941406 262.585938 " fill-opacity="1" fill-rule="nonzero"/></g><path fill="#ffcb42" d="M 126.351562 323.800781 L 112.003906 359.667969 C 111.230469 361.597656 109.914062 363.195312 108.269531 364.3125 L 129.957031 351.136719 C 131.933594 350.019531 133.527344 348.253906 134.40625 346.050781 L 143.332031 323.742188 L 126.4375 323.742188 C 126.398438 323.742188 126.367188 323.765625 126.351562 323.800781 Z M 126.351562 323.800781 " fill-opacity="1" fill-rule="nonzero"/><path fill="#0c356a" d="M 108.269531 365.332031 C 107.933594 365.332031 107.605469 365.164062 107.410156 364.863281 C 107.113281 364.398438 107.238281 363.78125 107.695312 363.46875 C 109.214844 362.4375 110.375 360.992188 111.058594 359.289062 L 125.40625 323.421875 C 125.574219 322.996094 125.980469 322.722656 126.4375 322.722656 L 143.332031 322.722656 C 143.667969 322.722656 143.984375 322.890625 144.175781 323.171875 C 144.367188 323.449219 144.402344 323.804688 144.277344 324.121094 L 135.351562 346.429688 C 134.410156 348.785156 132.671875 350.773438 130.457031 352.027344 L 108.796875 365.183594 C 108.632812 365.285156 108.449219 365.332031 108.269531 365.332031 Z M 127.066406 324.761719 L 112.949219 360.046875 C 112.910156 360.148438 112.867188 360.25 112.824219 360.351562 L 129.425781 350.265625 C 131.265625 349.226562 132.6875 347.601562 133.460938 345.671875 L 141.824219 324.761719 Z M 127.066406 324.761719 " fill-opacity="1" fill-rule="nonzero"/><path fill="#ffcb42" d="M 172.96875 249.988281 C 172.90625 249.988281 172.863281 249.925781 172.886719 249.863281 L 184.691406 220.351562 L 179.054688 206.257812 C 178.03125 203.695312 174.402344 203.695312 173.375 206.257812 L 150.484375 263.480469 C 150.460938 263.539062 150.503906 263.605469 150.566406 263.605469 Z M 172.96875 249.988281 " fill-opacity="1" fill-rule="nonzero"/><path fill="#0c356a" d="M 150.566406 264.625 C 150.199219 264.625 149.855469 264.441406 149.648438 264.136719 C 149.441406 263.828125 149.398438 263.441406 149.539062 263.101562 L 172.429688 205.878906 C 173.0625 204.296875 174.511719 203.316406 176.214844 203.316406 C 177.917969 203.316406 179.371094 204.296875 180.003906 205.878906 L 185.640625 219.972656 C 185.738281 220.214844 185.738281 220.488281 185.640625 220.730469 L 173.984375 249.867188 C 174.03125 250.261719 173.84375 250.652344 173.5 250.859375 L 151.097656 264.476562 C 150.9375 264.574219 150.753906 264.625 150.566406 264.625 Z M 151.429688 263.855469 L 151.429688 263.859375 C 151.429688 263.859375 151.429688 263.855469 151.429688 263.855469 Z M 176.214844 205.355469 C 175.546875 205.355469 174.699219 205.691406 174.324219 206.636719 L 152.472656 261.253906 L 171.972656 249.402344 L 183.59375 220.351562 L 178.109375 206.636719 C 177.730469 205.691406 176.882812 205.355469 176.214844 205.355469 Z M 172.972656 248.96875 Z M 172.96875 248.96875 C 172.972656 248.96875 172.972656 248.96875 172.972656 248.96875 C 172.972656 248.96875 172.972656 248.96875 172.96875 248.96875 Z M 172.96875 248.96875 " fill-opacity="1" fill-rule="nonzero"/><path fill="#ffcb42" d="M 201.941406 263.480469 L 196.546875 249.988281 L 172.96875 249.988281 L 150.566406 263.605469 L 201.859375 263.605469 C 201.921875 263.605469 201.964844 263.539062 201.941406 263.480469 Z M 201.941406 263.480469 " fill-opacity="1" fill-rule="nonzero"/><path fill="#0c356a" d="M 201.859375 264.625 L 150.566406 264.625 C 150.109375 264.625 149.710938 264.320312 149.585938 263.878906 C 149.460938 263.441406 149.648438 262.972656 150.039062 262.734375 L 172.441406 249.117188 C 172.601562 249.019531 172.785156 248.96875 172.96875 248.96875 L 196.546875 248.96875 C 196.964844 248.96875 197.339844 249.222656 197.492188 249.609375 L 202.890625 263.101562 C 202.890625 263.101562 202.890625 263.105469 202.890625 263.105469 C 203.027344 263.449219 202.984375 263.835938 202.777344 264.136719 C 202.570312 264.441406 202.226562 264.625 201.859375 264.625 Z M 154.207031 262.585938 L 200.488281 262.585938 L 195.855469 251.007812 L 173.257812 251.007812 Z M 154.207031 262.585938 " fill-opacity="1" fill-rule="nonzero"/><path fill="#c5ddff" d="M 131.503906 175.734375 C 131.503906 176.226562 131.457031 176.714844 131.359375 177.199219 C 131.261719 177.679688 131.121094 178.148438 130.933594 178.601562 C 130.746094 179.058594 130.515625 179.488281 130.242188 179.898438 C 129.96875 180.308594 129.65625 180.6875 129.308594 181.035156 C 128.960938 181.382812 128.582031 181.691406 128.171875 181.964844 C 127.765625 182.238281 127.332031 182.46875 126.878906 182.660156 C 126.421875 182.847656 125.957031 182.988281 125.472656 183.085938 C 124.988281 183.179688 124.503906 183.230469 124.011719 183.230469 C 123.519531 183.230469 123.03125 183.179688 122.550781 183.085938 C 122.066406 182.988281 121.597656 182.847656 121.144531 182.660156 C 120.6875 182.46875 120.257812 182.238281 119.847656 181.964844 C 119.4375 181.691406 119.0625 181.382812 118.714844 181.035156 C 118.363281 180.6875 118.054688 180.308594 117.78125 179.898438 C 117.507812 179.488281 117.277344 179.058594 117.089844 178.601562 C 116.902344 178.148438 116.757812 177.679688 116.664062 177.199219 C 116.566406 176.714844 116.519531 176.226562 116.519531 175.734375 C 116.519531 175.242188 116.566406 174.757812 116.664062 174.273438 C 116.757812 173.792969 116.902344 173.324219 117.089844 172.867188 C 117.277344 172.414062 117.507812 171.984375 117.78125 171.574219 C 118.054688 171.164062 118.363281 170.785156 118.714844 170.4375 C 119.0625 170.089844 119.4375 169.78125 119.847656 169.507812 C 120.257812 169.234375 120.6875 169.003906 121.144531 168.8125 C 121.597656 168.625 122.066406 168.484375 122.550781 168.386719 C 123.03125 168.292969 123.519531 168.242188 124.011719 168.242188 C 124.503906 168.242188 124.988281 168.292969 125.472656 168.386719 C 125.957031 168.484375 126.421875 168.625 126.878906 168.8125 C 127.332031 169.003906 127.765625 169.234375 128.171875 169.507812 C 128.582031 169.78125 128.960938 170.089844 129.308594 170.4375 C 129.65625 170.785156 129.96875 171.164062 130.242188 171.574219 C 130.515625 171.984375 130.746094 172.414062 130.933594 172.867188 C 131.121094 173.324219 131.261719 173.792969 131.359375 174.273438 C 131.457031 174.757812 131.503906 175.242188 131.503906 175.734375 Z M 131.503906 175.734375 " fill-opacity="1" fill-rule="nonzero"/><path fill="#0c356a" d="M 124.019531 184.25 C 123.875 184.25 123.730469 184.246094 123.582031 184.238281 C 121.3125 184.121094 119.21875 183.128906 117.695312 181.445312 C 116.171875 179.757812 115.394531 177.578125 115.507812 175.308594 C 115.746094 170.617188 119.75 167 124.441406 167.234375 C 129.128906 167.472656 132.75 171.476562 132.511719 176.164062 C 132.398438 178.4375 131.40625 180.527344 129.71875 182.050781 C 128.140625 183.476562 126.132812 184.25 124.019531 184.25 Z M 124.007812 169.261719 C 120.585938 169.261719 117.71875 171.957031 117.546875 175.410156 C 117.457031 177.136719 118.050781 178.792969 119.207031 180.078125 C 120.367188 181.359375 121.957031 182.113281 123.683594 182.199219 C 125.410156 182.289062 127.070312 181.699219 128.351562 180.539062 C 129.632812 179.378906 130.386719 177.789062 130.476562 176.0625 C 130.65625 172.496094 127.902344 169.453125 124.335938 169.269531 C 124.226562 169.265625 124.117188 169.261719 124.007812 169.261719 Z M 124.007812 169.261719 " fill-opacity="1" fill-rule="nonzero"/><path fill="#c5ddff" d="M 236.429688 179.136719 C 236.429688 179.628906 236.382812 180.113281 236.285156 180.597656 C 236.191406 181.078125 236.046875 181.546875 235.859375 182.003906 C 235.671875 182.457031 235.441406 182.890625 235.167969 183.296875 C 234.894531 183.707031 234.582031 184.085938 234.234375 184.433594 C 233.886719 184.78125 233.507812 185.09375 233.101562 185.367188 C 232.691406 185.640625 232.257812 185.871094 231.804688 186.058594 C 231.351562 186.246094 230.882812 186.386719 230.398438 186.484375 C 229.917969 186.582031 229.429688 186.628906 228.9375 186.628906 C 228.445312 186.628906 227.957031 186.582031 227.476562 186.484375 C 226.992188 186.386719 226.523438 186.246094 226.070312 186.058594 C 225.617188 185.871094 225.183594 185.640625 224.773438 185.367188 C 224.367188 185.09375 223.988281 184.78125 223.640625 184.433594 C 223.292969 184.085938 222.980469 183.707031 222.707031 183.296875 C 222.433594 182.890625 222.203125 182.457031 222.015625 182.003906 C 221.828125 181.546875 221.683594 181.078125 221.589844 180.597656 C 221.492188 180.113281 221.445312 179.628906 221.445312 179.136719 C 221.445312 178.644531 221.492188 178.15625 221.589844 177.675781 C 221.683594 177.191406 221.828125 176.722656 222.015625 176.269531 C 222.203125 175.8125 222.433594 175.382812 222.707031 174.972656 C 222.980469 174.5625 223.292969 174.183594 223.640625 173.835938 C 223.988281 173.488281 224.367188 173.179688 224.773438 172.90625 C 225.183594 172.632812 225.617188 172.402344 226.070312 172.214844 C 226.523438 172.023438 226.992188 171.882812 227.476562 171.789062 C 227.957031 171.691406 228.445312 171.644531 228.9375 171.644531 C 229.429688 171.644531 229.917969 171.691406 230.398438 171.789062 C 230.882812 171.882812 231.351562 172.023438 231.804688 172.214844 C 232.257812 172.402344 232.691406 172.632812 233.101562 172.90625 C 233.507812 173.179688 233.886719 173.488281 234.234375 173.835938 C 234.582031 174.183594 234.894531 174.5625 235.167969 174.972656 C 235.441406 175.382812 235.671875 175.8125 235.859375 176.269531 C 236.046875 176.722656 236.191406 177.191406 236.285156 177.675781 C 236.382812 178.15625 236.429688 178.644531 236.429688 179.136719 Z M 236.429688 179.136719 " fill-opacity="1" fill-rule="nonzero"/><path fill="#0c356a" d="M 228.941406 187.648438 C 228.800781 187.648438 228.652344 187.644531 228.507812 187.636719 C 223.820312 187.402344 220.199219 183.394531 220.4375 178.707031 C 220.671875 174.019531 224.679688 170.394531 229.367188 170.632812 C 234.054688 170.871094 237.675781 174.878906 237.441406 179.566406 C 237.210938 184.105469 233.441406 187.648438 228.941406 187.648438 Z M 228.933594 172.664062 C 225.511719 172.664062 222.648438 175.355469 222.472656 178.808594 C 222.292969 182.375 225.046875 185.421875 228.613281 185.601562 C 232.175781 185.789062 235.222656 183.027344 235.402344 179.460938 C 235.582031 175.898438 232.828125 172.851562 229.265625 172.671875 C 229.152344 172.664062 229.042969 172.664062 228.933594 172.664062 Z M 228.933594 172.664062 " fill-opacity="1" fill-rule="nonzero"/><path fill="#ffffff" d="M 167.921875 137.5625 C 167.921875 138.425781 167.882812 139.289062 167.796875 140.148438 C 167.710938 141.007812 167.585938 141.863281 167.417969 142.710938 C 167.246094 143.558594 167.039062 144.394531 166.785156 145.222656 C 166.535156 146.050781 166.246094 146.863281 165.914062 147.660156 C 165.582031 148.460938 165.214844 149.242188 164.808594 150.003906 C 164.398438 150.765625 163.957031 151.503906 163.476562 152.222656 C 162.996094 152.941406 162.480469 153.636719 161.933594 154.304688 C 161.382812 154.972656 160.804688 155.613281 160.195312 156.222656 C 159.582031 156.835938 158.941406 157.414062 158.273438 157.960938 C 157.605469 158.511719 156.914062 159.023438 156.195312 159.503906 C 155.476562 159.984375 154.734375 160.429688 153.972656 160.835938 C 153.210938 161.242188 152.429688 161.613281 151.632812 161.945312 C 150.832031 162.273438 150.019531 162.566406 149.195312 162.816406 C 148.367188 163.066406 147.527344 163.277344 146.679688 163.445312 C 145.832031 163.613281 144.980469 163.742188 144.121094 163.824219 C 143.257812 163.910156 142.398438 163.953125 141.53125 163.953125 C 140.667969 163.953125 139.804688 163.910156 138.945312 163.824219 C 138.085938 163.742188 137.230469 163.613281 136.382812 163.445312 C 135.535156 163.277344 134.699219 163.066406 133.871094 162.816406 C 133.046875 162.566406 132.230469 162.273438 131.433594 161.945312 C 130.636719 161.613281 129.855469 161.242188 129.09375 160.835938 C 128.332031 160.429688 127.589844 159.984375 126.871094 159.503906 C 126.152344 159.023438 125.460938 158.511719 124.792969 157.960938 C 124.121094 157.414062 123.484375 156.835938 122.871094 156.222656 C 122.261719 155.613281 121.679688 154.972656 121.132812 154.304688 C 120.585938 153.636719 120.070312 152.941406 119.589844 152.222656 C 119.109375 151.503906 118.667969 150.765625 118.257812 150.003906 C 117.851562 149.242188 117.480469 148.460938 117.152344 147.660156 C 116.820312 146.863281 116.53125 146.050781 116.277344 145.222656 C 116.027344 144.394531 115.816406 143.558594 115.648438 142.710938 C 115.480469 141.863281 115.355469 141.007812 115.269531 140.148438 C 115.183594 139.289062 115.144531 138.425781 115.144531 137.5625 C 115.144531 136.699219 115.183594 135.835938 115.269531 134.976562 C 115.355469 134.117188 115.480469 133.261719 115.648438 132.414062 C 115.816406 131.566406 116.027344 130.730469 116.277344 129.902344 C 116.53125 129.074219 116.820312 128.261719 117.152344 127.464844 C 117.480469 126.664062 117.851562 125.882812 118.257812 125.121094 C 118.667969 124.359375 119.109375 123.621094 119.589844 122.902344 C 120.070312 122.183594 120.585938 121.488281 121.132812 120.820312 C 121.679688 120.152344 122.261719 119.511719 122.871094 118.902344 C 123.484375 118.289062 124.121094 117.710938 124.792969 117.164062 C 125.460938 116.613281 126.152344 116.101562 126.871094 115.621094 C 127.589844 115.140625 128.332031 114.695312 129.09375 114.289062 C 129.855469 113.878906 130.636719 113.511719 131.433594 113.179688 C 132.230469 112.851562 133.046875 112.558594 133.871094 112.308594 C 134.699219 112.058594 135.535156 111.847656 136.382812 111.679688 C 137.230469 111.511719 138.085938 111.382812 138.945312 111.300781 C 139.804688 111.214844 140.667969 111.171875 141.53125 111.171875 C 142.398438 111.171875 143.257812 111.214844 144.121094 111.300781 C 144.980469 111.382812 145.832031 111.511719 146.679688 111.679688 C 147.527344 111.847656 148.367188 112.058594 149.195312 112.308594 C 150.019531 112.558594 150.832031 112.851562 151.632812 113.179688 C 152.429688 113.511719 153.210938 113.878906 153.972656 114.289062 C 154.734375 114.695312 155.476562 115.140625 156.195312 115.621094 C 156.914062 116.101562 157.605469 116.613281 158.273438 117.164062 C 158.941406 117.710938 159.582031 118.289062 160.195312 118.902344 C 160.804688 119.511719 161.382812 120.152344 161.933594 120.820312 C 162.480469 121.488281 162.996094 122.183594 163.476562 122.902344 C 163.957031 123.621094 164.398438 124.359375 164.808594 125.121094 C 165.214844 125.882812 165.582031 126.664062 165.914062 127.464844 C 166.246094 128.261719 166.535156 129.074219 166.785156 129.902344 C 167.039062 130.730469 167.246094 131.566406 167.417969 132.414062 C 167.585938 133.261719 167.710938 134.117188 167.796875 134.976562 C 167.882812 135.835938 167.921875 136.699219 167.921875 137.5625 Z M 167.921875 137.5625 " fill-opacity="1" fill-rule="nonzero"/><path fill="#0c356a" d="M 141.589844 164.980469 C 139.976562 164.980469 138.355469 164.835938 136.730469 164.546875 C 121.851562 161.902344 111.898438 147.640625 114.546875 132.761719 C 115.828125 125.554688 119.84375 119.277344 125.847656 115.085938 C 131.847656 110.894531 139.125 109.292969 146.332031 110.574219 C 161.214844 113.222656 171.167969 127.484375 168.519531 142.363281 C 167.238281 149.570312 163.222656 155.847656 157.21875 160.039062 C 152.566406 163.285156 147.148438 164.980469 141.589844 164.980469 Z M 141.480469 112.183594 C 136.335938 112.183594 131.320312 113.75 127.011719 116.757812 C 121.457031 120.636719 117.742188 126.445312 116.554688 133.117188 C 114.105469 146.890625 123.316406 160.089844 137.089844 162.539062 C 143.761719 163.726562 150.496094 162.246094 156.054688 158.367188 C 161.609375 154.488281 165.324219 148.679688 166.511719 142.007812 L 167.515625 142.183594 L 166.511719 142.007812 C 168.960938 128.234375 159.75 115.035156 145.976562 112.585938 C 144.476562 112.316406 142.972656 112.183594 141.480469 112.183594 Z M 141.480469 112.183594 " fill-opacity="1" fill-rule="nonzero"/><path fill="#ffffff" d="M 241.339844 141.269531 C 241.339844 142.132812 241.296875 142.996094 241.210938 143.855469 C 241.128906 144.714844 241 145.570312 240.832031 146.417969 C 240.664062 147.265625 240.453125 148.101562 240.203125 148.929688 C 239.953125 149.757812 239.660156 150.570312 239.332031 151.367188 C 239 152.167969 238.628906 152.945312 238.222656 153.707031 C 237.816406 154.472656 237.371094 155.210938 236.890625 155.929688 C 236.410156 156.648438 235.898438 157.34375 235.347656 158.011719 C 234.800781 158.679688 234.222656 159.316406 233.609375 159.929688 C 233 160.539062 232.359375 161.121094 231.691406 161.667969 C 231.023438 162.21875 230.328125 162.730469 229.609375 163.210938 C 228.890625 163.691406 228.152344 164.136719 227.390625 164.542969 C 226.628906 164.949219 225.847656 165.320312 225.046875 165.648438 C 224.25 165.980469 223.4375 166.273438 222.609375 166.523438 C 221.78125 166.773438 220.945312 166.984375 220.097656 167.152344 C 219.25 167.320312 218.394531 167.445312 217.535156 167.53125 C 216.675781 167.617188 215.8125 167.660156 214.949219 167.660156 C 214.085938 167.660156 213.222656 167.617188 212.363281 167.53125 C 211.503906 167.445312 210.648438 167.320312 209.800781 167.152344 C 208.953125 166.984375 208.117188 166.773438 207.289062 166.523438 C 206.460938 166.273438 205.648438 165.980469 204.851562 165.648438 C 204.050781 165.320312 203.269531 164.949219 202.507812 164.542969 C 201.746094 164.136719 201.007812 163.691406 200.289062 163.210938 C 199.570312 162.730469 198.875 162.21875 198.207031 161.667969 C 197.539062 161.121094 196.898438 160.539062 196.289062 159.929688 C 195.675781 159.316406 195.097656 158.679688 194.550781 158.011719 C 194 157.34375 193.488281 156.648438 193.007812 155.929688 C 192.527344 155.210938 192.082031 154.472656 191.675781 153.707031 C 191.265625 152.945312 190.898438 152.167969 190.566406 151.367188 C 190.238281 150.570312 189.945312 149.757812 189.695312 148.929688 C 189.445312 148.101562 189.234375 147.265625 189.066406 146.417969 C 188.898438 145.570312 188.769531 144.714844 188.6875 143.855469 C 188.601562 142.996094 188.558594 142.132812 188.558594 141.269531 C 188.558594 140.40625 188.601562 139.542969 188.6875 138.683594 C 188.769531 137.820312 188.898438 136.96875 189.066406 136.121094 C 189.234375 135.273438 189.445312 134.433594 189.695312 133.609375 C 189.945312 132.78125 190.238281 131.96875 190.566406 131.167969 C 190.898438 130.371094 191.265625 129.589844 191.675781 128.828125 C 192.082031 128.066406 192.527344 127.324219 193.007812 126.605469 C 193.488281 125.886719 194 125.195312 194.550781 124.527344 C 195.097656 123.859375 195.675781 123.21875 196.289062 122.609375 C 196.898438 121.996094 197.539062 121.417969 198.207031 120.867188 C 198.875 120.320312 199.570312 119.804688 200.289062 119.324219 C 201.007812 118.84375 201.746094 118.402344 202.507812 117.996094 C 203.269531 117.585938 204.050781 117.21875 204.851562 116.886719 C 205.648438 116.554688 206.460938 116.265625 207.289062 116.015625 C 208.117188 115.765625 208.953125 115.554688 209.800781 115.386719 C 210.648438 115.214844 211.503906 115.089844 212.363281 115.003906 C 213.222656 114.921875 214.085938 114.878906 214.949219 114.878906 C 215.8125 114.878906 216.675781 114.921875 217.535156 115.003906 C 218.394531 115.089844 219.25 115.214844 220.097656 115.386719 C 220.945312 115.554688 221.78125 115.765625 222.609375 116.015625 C 223.4375 116.265625 224.25 116.554688 225.046875 116.886719 C 225.847656 117.21875 226.628906 117.585938 227.390625 117.996094 C 228.152344 118.402344 228.890625 118.84375 229.609375 119.324219 C 230.328125 119.804688 231.023438 120.320312 231.691406 120.867188 C 232.359375 121.417969 233 121.996094 233.609375 122.609375 C 234.222656 123.21875 234.800781 123.859375 235.347656 124.527344 C 235.898438 125.195312 236.410156 125.886719 236.890625 126.605469 C 237.371094 127.324219 237.816406 128.066406 238.222656 128.828125 C 238.628906 129.589844 239 130.371094 239.332031 131.167969 C 239.660156 131.96875 239.953125 132.78125 240.203125 133.609375 C 240.453125 134.433594 240.664062 135.273438 240.832031 136.121094 C 241 136.96875 241.128906 137.820312 241.210938 138.683594 C 241.296875 139.542969 241.339844 140.40625 241.339844 141.269531 Z M 241.339844 141.269531 " fill-opacity="1" fill-rule="nonzero"/><path fill="#0c356a" d="M 214.980469 168.679688 C 214.511719 168.679688 214.039062 168.667969 213.566406 168.644531 C 198.472656 167.882812 186.8125 154.980469 187.574219 139.886719 C 188.335938 124.792969 201.234375 113.136719 216.332031 113.894531 C 231.425781 114.65625 243.085938 127.554688 242.324219 142.652344 C 241.953125 149.964844 238.761719 156.695312 233.328125 161.601562 C 228.25 166.195312 221.78125 168.679688 214.980469 168.679688 Z M 214.933594 115.898438 C 201.527344 115.898438 190.292969 126.453125 189.609375 139.988281 C 188.90625 153.960938 199.699219 165.902344 213.671875 166.605469 C 220.4375 166.945312 226.933594 164.632812 231.960938 160.089844 C 236.988281 155.546875 239.945312 149.316406 240.289062 142.546875 C 240.992188 128.574219 230.199219 116.636719 216.226562 115.929688 C 215.792969 115.90625 215.363281 115.898438 214.933594 115.898438 Z M 214.933594 115.898438 " fill-opacity="1" fill-rule="nonzero"/><path fill="#0c356a" d="M 241.304688 142.597656 C 242.03125 128.191406 231.0625 115.898438 216.71875 114.9375 C 210.679688 121.765625 206.828125 130.605469 206.332031 140.414062 C 205.816406 150.601562 209.011719 160.117188 214.726562 167.65625 C 228.800781 167.785156 240.589844 156.785156 241.304688 142.597656 Z M 241.304688 142.597656 " fill-opacity="1" fill-rule="nonzero"/><path fill="#0c356a" d="M 167.515625 142.183594 C 170.0625 127.871094 160.550781 114.199219 146.257812 111.601562 C 141.242188 117.179688 137.671875 124.183594 136.257812 132.113281 C 134.195312 143.714844 137.152344 155.046875 143.566406 163.878906 C 155.28125 162.984375 165.363281 154.285156 167.515625 142.183594 Z M 167.515625 142.183594 " fill-opacity="1" fill-rule="nonzero"/><path fill="#0c356a" d="M 122.839844 108.59375 C 123.066406 108.832031 123.570312 108.652344 123.792969 108.554688 C 124.25 108.347656 124.734375 107.929688 125.042969 107.546875 C 125.28125 107.25 125.527344 106.960938 125.785156 106.679688 C 125.820312 106.640625 125.859375 106.601562 125.894531 106.5625 C 125.984375 106.472656 126.078125 106.378906 126.171875 106.289062 C 126.398438 106.070312 126.632812 105.859375 126.875 105.652344 C 126.96875 105.574219 127.0625 105.496094 127.160156 105.417969 C 127.195312 105.390625 127.226562 105.363281 127.261719 105.335938 C 127.785156 104.941406 128.324219 104.570312 128.886719 104.234375 C 128.894531 104.226562 128.902344 104.222656 128.914062 104.214844 C 128.929688 104.207031 128.949219 104.195312 128.964844 104.1875 C 129.105469 104.109375 129.242188 104.03125 129.382812 103.957031 C 129.660156 103.808594 129.945312 103.664062 130.230469 103.53125 C 130.757812 103.28125 131.296875 103.058594 131.839844 102.859375 C 133.550781 102.269531 135.332031 101.914062 137.136719 101.804688 C 139.730469 101.699219 142.339844 102.113281 144.75 103.097656 C 144.996094 103.113281 145.230469 103.0625 145.453125 102.945312 C 145.589844 102.863281 145.726562 102.785156 145.863281 102.703125 C 146.34375 102.394531 146.738281 101.933594 147.0625 101.46875 C 147.300781 101.125 147.574219 100.597656 147.589844 100.164062 C 147.621094 99.992188 147.589844 99.847656 147.484375 99.722656 C 147.429688 99.585938 147.324219 99.511719 147.164062 99.496094 C 145.519531 98.824219 143.777344 98.414062 142.007812 98.257812 C 138.652344 97.964844 135.277344 98.546875 132.167969 99.820312 C 128.835938 101.1875 125.804688 103.453125 123.550781 106.257812 C 123.210938 106.679688 122.90625 107.125 122.738281 107.644531 C 122.640625 107.949219 122.597656 108.335938 122.839844 108.59375 Z M 122.839844 108.59375 " fill-opacity="1" fill-rule="nonzero"/><path fill="#0c356a" d="M 184.578125 161.378906 C 184.3125 161.226562 183.96875 161.125 183.671875 161.070312 C 183.363281 161.015625 183.03125 160.964844 182.71875 161.015625 C 182.582031 161.039062 182.304688 161.066406 182.273438 161.246094 C 181.875 163.667969 181.25 166.109375 179.90625 168.199219 C 179.261719 169.15625 178.472656 170.003906 177.527344 170.671875 C 177.300781 170.828125 177.066406 170.976562 176.828125 171.113281 C 176.570312 171.261719 176.472656 171.3125 176.183594 171.433594 C 175.933594 171.542969 175.679688 171.636719 175.421875 171.714844 C 175.289062 171.753906 175.160156 171.789062 175.027344 171.824219 C 175.019531 171.824219 175 171.828125 174.980469 171.835938 C 174.894531 171.859375 174.808594 171.867188 174.722656 171.882812 C 174.589844 171.902344 174.457031 171.917969 174.324219 171.933594 C 174.269531 171.9375 174.203125 171.933594 174.148438 171.941406 C 174.140625 171.941406 174.136719 171.941406 174.128906 171.941406 C 174.019531 171.945312 173.5625 171.898438 173.980469 171.949219 C 173.914062 171.941406 173.84375 171.941406 173.777344 171.933594 C 173.730469 171.929688 173.652344 171.914062 173.601562 171.90625 C 173.636719 171.914062 173.695312 171.925781 173.789062 171.945312 C 173.691406 171.921875 173.59375 171.90625 173.492188 171.886719 C 173.445312 171.875 173.394531 171.863281 173.347656 171.847656 C 173.34375 171.847656 173.339844 171.84375 173.335938 171.84375 C 173.355469 171.851562 173.375 171.859375 173.398438 171.867188 C 173.335938 171.84375 173.269531 171.824219 173.207031 171.800781 C 173.144531 171.773438 173.082031 171.75 173.019531 171.722656 C 173 171.714844 172.980469 171.707031 172.960938 171.699219 C 172.882812 171.621094 172.703125 171.570312 172.609375 171.515625 C 172.492188 171.449219 172.378906 171.378906 172.261719 171.308594 C 172.253906 171.300781 172.246094 171.296875 172.238281 171.292969 C 172.234375 171.289062 172.230469 171.289062 172.226562 171.285156 C 172.171875 171.246094 172.113281 171.207031 172.058594 171.167969 C 171.933594 171.074219 171.808594 170.976562 171.6875 170.871094 C 171.25 170.503906 170.9375 170.171875 170.628906 169.769531 C 169.796875 168.683594 169.277344 167.398438 168.996094 166.066406 C 168.777344 164.933594 168.730469 163.773438 168.808594 162.621094 C 168.820312 162.445312 168.605469 162.316406 168.484375 162.246094 C 168.21875 162.09375 167.875 161.992188 167.578125 161.9375 C 167.269531 161.882812 166.9375 161.832031 166.625 161.882812 C 166.5 161.902344 166.191406 161.9375 166.179688 162.109375 C 166.035156 164.199219 166.308594 166.386719 167.269531 168.269531 C 168.191406 170.0625 169.75 171.46875 171.613281 172.234375 C 173.757812 173.113281 176.289062 173.226562 178.433594 172.28125 C 180.25 171.480469 181.679688 170.125 182.707031 168.4375 C 183.941406 166.414062 184.523438 164.074219 184.902344 161.757812 C 184.929688 161.585938 184.683594 161.4375 184.578125 161.378906 Z M 184.578125 161.378906 " fill-opacity="1" fill-rule="nonzero"/><path fill="#0c356a" d="M 173.601562 171.90625 C 173.539062 171.894531 173.554688 171.898438 173.601562 171.90625 Z M 173.601562 171.90625 " fill-opacity="1" fill-rule="nonzero"/><path fill="#0c356a" d="M 173.335938 171.84375 C 173.085938 171.742188 173.25 171.816406 173.335938 171.84375 Z M 173.335938 171.84375 " fill-opacity="1" fill-rule="nonzero"/><path fill="#0c356a" d="M 214.503906 102.855469 C 217.445312 102.042969 220.484375 101.898438 223.5 102.355469 C 225.019531 102.585938 226.488281 103.003906 227.933594 103.53125 C 229.394531 104.0625 230.75 104.773438 232.070312 105.585938 C 233.546875 106.496094 234.871094 107.605469 236.085938 108.839844 C 236.441406 109.203125 236.722656 109.835938 236.757812 110.347656 C 236.789062 110.769531 236.671875 111.328125 236.3125 111.605469 C 235.941406 111.894531 235.464844 112 235.003906 111.882812 C 234.441406 111.742188 234.003906 111.425781 233.601562 111.011719 C 233.480469 110.890625 233.359375 110.773438 233.234375 110.65625 C 232.4375 109.9375 231.578125 109.289062 230.671875 108.710938 C 229.578125 108.066406 228.425781 107.523438 227.230469 107.089844 C 225.808594 106.617188 224.335938 106.300781 222.84375 106.144531 C 221.125 106.015625 219.398438 106.101562 217.707031 106.421875 C 217.363281 106.496094 217.015625 106.578125 216.675781 106.671875 C 216.183594 106.808594 215.726562 106.769531 215.257812 106.550781 C 214.765625 106.320312 214.253906 105.851562 214 105.367188 C 213.769531 104.921875 213.570312 104.371094 213.695312 103.863281 C 213.796875 103.441406 214.046875 102.980469 214.503906 102.855469 Z M 214.503906 102.855469 " fill-opacity="1" fill-rule="nonzero"/><g clip-path="url(#2cdc146f1e)"><g clip-path="url(#14cc95ac3f)"><path fill="#0c356a" d="M 202.871094 294.082031 L 149.871094 294.082031 L 149.871094 264.269531 L 202.871094 264.269531 Z M 202.871094 294.082031 " fill-opacity="1" fill-rule="nonzero"/><path fill="#0c356a" d="M 202.871094 294.082031 L 149.871094 294.082031 L 149.871094 264.269531 L 202.871094 264.269531 Z M 202.871094 294.082031 " fill-opacity="1" fill-rule="nonzero"/></g></g><g clip-path="url(#db612c360d)"><path fill="#0c356a" d="M 181.386719 263.609375 L 203.210938 263.609375 L 203.210938 323.28125 L 181.386719 323.28125 Z M 181.386719 263.609375 " fill-opacity="1" fill-rule="nonzero"/></g><g clip-path="url(#075d6fb9cd)"><g clip-path="url(#ab3d7b79ad)"><path fill="#0c356a" d="M 149.878906 303.113281 L 185.769531 303.113281 L 185.769531 323.304688 L 149.878906 323.304688 Z M 149.878906 303.113281 " fill-opacity="1" fill-rule="nonzero"/><path fill="#0c356a" d="M 149.878906 303.113281 L 185.769531 303.113281 L 185.769531 323.304688 L 149.878906 323.304688 Z M 149.878906 303.113281 " fill-opacity="1" fill-rule="nonzero"/></g></g><g clip-path="url(#1c3c12222c)"><g clip-path="url(#1249d41e15)"><path fill="#fff4cf" d="M 173.097656 281.695312 L 182.398438 281.695312 L 182.398438 305.742188 L 173.097656 305.742188 Z M 173.097656 281.695312 " fill-opacity="1" fill-rule="nonzero"/></g></g><g clip-path="url(#2a4ec6b2c3)"><g clip-path="url(#03a1e96f4d)"><path fill="#0c356a" d="M 169.820312 290.8125 L 176.378906 290.8125 L 176.378906 297.371094 L 169.820312 297.371094 Z M 169.820312 290.8125 " fill-opacity="1" fill-rule="nonzero"/></g></g><g clip-path="url(#34959b2ad8)"><g mask="url(#2c05840951)"><g transform="matrix(1, 0, 0, 1, 196, 7)"><g clip-path="url(#dac030f471)"><g clip-path="url(#91254ad907)"><path fill="#0c356a" d="M 17.671875 50.878906 C 17.683594 50.46875 17.570312 50.09375 17.402344 49.789062 C 17.21875 49.472656 16.972656 49.210938 16.699219 48.984375 C 16.425781 48.757812 16.121094 48.554688 15.804688 48.394531 C 15.722656 48.359375 15.644531 48.316406 15.566406 48.28125 C 15.484375 48.246094 15.40625 48.214844 15.316406 48.179688 L 15.054688 48.078125 C 14.964844 48.042969 14.886719 48.019531 14.792969 47.988281 C 13.398438 47.488281 11.914062 47.261719 10.351562 46.957031 C 9.953125 46.875 9.554688 46.796875 9.160156 46.707031 C 9.058594 46.683594 8.957031 46.660156 8.855469 46.636719 C 8.75 46.613281 8.648438 46.59375 8.546875 46.558594 C 8.320312 46.5 8.105469 46.433594 7.878906 46.367188 C 7.4375 46.230469 7.015625 46.046875 6.597656 45.867188 C 6.179688 45.675781 5.78125 45.46875 5.382812 45.230469 C 4.589844 44.765625 3.84375 44.222656 3.152344 43.578125 C 2.800781 43.257812 2.472656 42.90625 2.152344 42.523438 C 1.996094 42.328125 1.835938 42.136719 1.6875 41.933594 C 1.542969 41.730469 1.394531 41.511719 1.269531 41.285156 C 0.996094 40.84375 0.757812 40.347656 0.566406 39.824219 C 0.375 39.292969 0.238281 38.714844 0.179688 38.101562 C 0.113281 37.488281 0.148438 36.855469 0.261719 36.230469 C 0.386719 35.605469 0.589844 34.996094 0.863281 34.449219 C 0.996094 34.179688 1.15625 33.917969 1.316406 33.667969 C 1.394531 33.542969 1.484375 33.429688 1.5625 33.304688 C 1.65625 33.191406 1.734375 33.066406 1.824219 32.964844 C 2.1875 32.523438 2.574219 32.136719 2.96875 31.796875 L 3.117188 31.671875 L 3.277344 31.546875 L 3.59375 31.3125 L 3.753906 31.1875 C 3.808594 31.140625 3.867188 31.105469 3.921875 31.074219 L 4.261719 30.855469 C 4.488281 30.710938 4.726562 30.585938 4.964844 30.460938 C 5.203125 30.335938 5.453125 30.234375 5.691406 30.132812 C 6.664062 29.722656 7.664062 29.484375 8.59375 29.339844 C 9.058594 29.257812 9.511719 29.214844 9.953125 29.179688 C 10.394531 29.144531 10.816406 29.113281 11.222656 29.089844 C 12.039062 29.042969 12.808594 29.019531 13.511719 28.976562 L 13.648438 28.964844 L 13.75 28.953125 C 13.820312 28.953125 13.886719 28.941406 13.957031 28.929688 L 14.160156 28.90625 C 14.226562 28.894531 14.296875 28.882812 14.351562 28.875 C 14.613281 28.828125 14.863281 28.761719 15.101562 28.679688 C 15.339844 28.601562 15.554688 28.511719 15.757812 28.410156 C 15.949219 28.304688 16.132812 28.191406 16.277344 28.078125 C 16.585938 27.839844 16.777344 27.605469 16.914062 27.332031 C 16.980469 27.195312 17.039062 27.046875 17.085938 26.867188 C 17.105469 26.777344 17.117188 26.683594 17.128906 26.59375 L 17.140625 26.515625 C 17.140625 26.492188 17.152344 26.46875 17.152344 26.445312 C 17.152344 26.402344 17.164062 26.355469 17.164062 26.3125 C 17.175781 25.960938 17.09375 25.527344 16.925781 25.0625 C 16.835938 24.835938 16.734375 24.597656 16.597656 24.359375 C 16.527344 24.246094 16.460938 24.125 16.382812 24.011719 C 16.335938 23.953125 16.3125 23.894531 16.269531 23.828125 L 16.132812 23.648438 C 15.949219 23.398438 15.757812 23.160156 15.542969 22.921875 C 15.328125 22.683594 15.101562 22.433594 14.863281 22.195312 C 14.613281 21.957031 14.363281 21.707031 14.089844 21.46875 C 13.820312 21.230469 13.546875 20.984375 13.253906 20.746094 C 12.96875 20.496094 12.675781 20.246094 12.367188 19.996094 L 12.210938 19.859375 L 12.039062 19.714844 L 11.871094 19.566406 C 11.8125 19.519531 11.765625 19.464844 11.710938 19.40625 C 11.609375 19.292969 11.507812 19.191406 11.40625 19.078125 C 11.3125 18.964844 11.222656 18.839844 11.132812 18.726562 C 10.78125 18.25 10.476562 17.742188 10.269531 17.207031 C 10.25 17.140625 10.214844 17.070312 10.191406 17.003906 L 10.125 16.800781 C 10.078125 16.664062 10.03125 16.527344 10 16.390625 L 9.898438 15.984375 C 9.863281 15.847656 9.851562 15.710938 9.816406 15.574219 L 9.785156 15.371094 C 9.773438 15.304688 9.773438 15.234375 9.761719 15.167969 C 9.75 15.03125 9.738281 14.894531 9.726562 14.769531 C 9.714844 14.507812 9.703125 14.238281 9.726562 13.988281 C 9.738281 13.726562 9.761719 13.476562 9.792969 13.21875 C 9.816406 13.09375 9.839844 12.96875 9.863281 12.84375 C 9.875 12.773438 9.886719 12.71875 9.898438 12.660156 L 9.941406 12.480469 C 9.976562 12.355469 10 12.230469 10.03125 12.117188 L 10.144531 11.753906 C 10.179688 11.628906 10.226562 11.515625 10.269531 11.402344 L 10.40625 11.050781 C 10.464844 10.9375 10.507812 10.824219 10.566406 10.710938 C 10.621094 10.597656 10.667969 10.484375 10.734375 10.371094 C 10.859375 10.15625 10.984375 9.929688 11.132812 9.726562 C 11.199219 9.625 11.269531 9.523438 11.347656 9.417969 L 11.574219 9.125 C 11.609375 9.078125 11.652344 9.023438 11.6875 8.976562 L 11.8125 8.839844 C 11.890625 8.75 11.972656 8.660156 12.0625 8.582031 L 12.4375 8.207031 L 12.5625 8.09375 L 12.820312 7.867188 L 13.082031 7.664062 L 13.21875 7.558594 L 13.34375 7.46875 L 13.605469 7.277344 C 13.773438 7.164062 13.945312 7.039062 14.113281 6.925781 L 14.613281 6.597656 L 15.113281 6.277344 L 15.585938 5.960938 L 15.824219 5.804688 C 15.90625 5.746094 15.996094 5.691406 16.042969 5.65625 L 16.234375 5.519531 C 16.289062 5.472656 16.347656 5.417969 16.414062 5.371094 C 16.449219 5.351562 16.472656 5.316406 16.507812 5.292969 L 16.585938 5.203125 L 16.675781 5.113281 L 16.753906 5.019531 L 16.835938 4.929688 L 16.878906 4.886719 L 16.914062 4.828125 L 17.0625 4.625 C 17.152344 4.476562 17.242188 4.328125 17.320312 4.171875 C 17.480469 3.851562 17.628906 3.511719 17.730469 3.148438 C 17.84375 2.789062 17.933594 2.414062 18.003906 2.027344 C 18.023438 1.9375 18.035156 1.835938 18.046875 1.734375 L 18.09375 1.4375 C 18.128906 1.246094 18.136719 1.042969 18.160156 0.835938 C 18.421875 1.597656 18.59375 2.402344 18.625 3.253906 C 18.648438 3.671875 18.613281 4.101562 18.558594 4.542969 L 18.535156 4.703125 C 18.523438 4.761719 18.511719 4.816406 18.5 4.863281 L 18.421875 5.191406 C 18.355469 5.40625 18.285156 5.632812 18.195312 5.835938 C 18.015625 6.269531 17.777344 6.6875 17.457031 7.0625 C 17.378906 7.164062 17.3125 7.230469 17.242188 7.324219 L 17.039062 7.558594 L 16.628906 8.023438 C 16.496094 8.171875 16.359375 8.332031 16.222656 8.46875 L 15.824219 8.898438 C 15.691406 9.046875 15.578125 9.179688 15.453125 9.316406 L 15.269531 9.523438 L 15.179688 9.625 L 15.101562 9.726562 L 14.941406 9.929688 L 14.792969 10.132812 L 14.714844 10.234375 L 14.648438 10.335938 L 14.511719 10.542969 L 14.398438 10.746094 L 14.339844 10.847656 C 14.316406 10.882812 14.308594 10.914062 14.296875 10.949219 L 14.191406 11.152344 C 14.160156 11.222656 14.136719 11.289062 14.113281 11.359375 C 14.058594 11.496094 14.023438 11.628906 13.976562 11.765625 C 13.957031 11.835938 13.945312 11.902344 13.921875 11.96875 L 13.875 12.175781 L 13.84375 12.390625 C 13.832031 12.457031 13.820312 12.539062 13.808594 12.605469 L 13.785156 12.820312 C 13.773438 12.886719 13.785156 12.96875 13.773438 13.035156 L 13.773438 13.238281 C 13.773438 13.308594 13.773438 13.375 13.773438 13.457031 C 13.785156 13.589844 13.796875 13.726562 13.820312 13.863281 C 13.832031 14 13.863281 14.125 13.886719 14.261719 C 13.898438 14.328125 13.921875 14.386719 13.945312 14.441406 C 13.957031 14.476562 13.957031 14.5 13.964844 14.53125 L 14 14.625 C 14.023438 14.679688 14.035156 14.738281 14.070312 14.792969 C 14.089844 14.851562 14.113281 14.894531 14.136719 14.953125 C 14.160156 15.007812 14.191406 15.054688 14.214844 15.097656 L 14.25 15.179688 C 14.261719 15.203125 14.285156 15.222656 14.296875 15.246094 C 14.410156 15.429688 14.542969 15.585938 14.691406 15.722656 C 14.726562 15.757812 14.773438 15.789062 14.804688 15.824219 C 14.851562 15.847656 14.886719 15.882812 14.929688 15.902344 C 14.953125 15.914062 14.964844 15.9375 14.988281 15.949219 C 15.007812 15.960938 15.03125 15.972656 15.054688 15.984375 L 15.113281 16.015625 L 15.191406 16.074219 C 15.519531 16.289062 15.859375 16.503906 16.199219 16.730469 C 16.878906 17.183594 17.582031 17.683594 18.273438 18.238281 C 18.625 18.523438 18.964844 18.816406 19.304688 19.136719 C 19.644531 19.453125 19.976562 19.804688 20.292969 20.167969 L 20.53125 20.449219 C 20.609375 20.539062 20.6875 20.644531 20.769531 20.746094 C 20.925781 20.949219 21.074219 21.152344 21.222656 21.367188 C 21.503906 21.800781 21.777344 22.265625 22.003906 22.75 C 22.230469 23.238281 22.433594 23.773438 22.582031 24.328125 C 22.730469 24.882812 22.820312 25.472656 22.855469 26.085938 C 22.867188 26.230469 22.867188 26.390625 22.867188 26.550781 C 22.867188 26.628906 22.867188 26.695312 22.855469 26.777344 L 22.84375 26.992188 C 22.820312 27.285156 22.785156 27.582031 22.730469 27.886719 C 22.628906 28.488281 22.445312 29.101562 22.1875 29.679688 C 21.925781 30.257812 21.597656 30.8125 21.210938 31.300781 C 20.824219 31.785156 20.382812 32.230469 19.917969 32.601562 C 19.453125 32.976562 18.964844 33.292969 18.457031 33.554688 C 17.957031 33.816406 17.445312 34.03125 16.9375 34.203125 C 16.425781 34.371094 15.90625 34.496094 15.394531 34.585938 C 15.269531 34.609375 15.132812 34.632812 15.007812 34.65625 L 14.816406 34.675781 L 14.625 34.699219 C 14.5 34.710938 14.363281 34.722656 14.238281 34.734375 L 14.136719 34.746094 C 14.101562 34.746094 14.070312 34.746094 14.046875 34.757812 L 13.886719 34.769531 C 13.015625 34.8125 12.210938 34.824219 11.449219 34.835938 C 11.074219 34.847656 10.714844 34.847656 10.363281 34.871094 L 10.101562 34.882812 L 9.851562 34.90625 L 9.601562 34.925781 L 9.476562 34.9375 L 9.363281 34.949219 C 8.742188 35.019531 8.183594 35.121094 7.699219 35.289062 C 7.574219 35.335938 7.449219 35.371094 7.335938 35.425781 C 7.222656 35.484375 7.097656 35.515625 6.996094 35.585938 L 6.824219 35.664062 C 6.800781 35.675781 6.769531 35.6875 6.746094 35.710938 L 6.664062 35.753906 L 6.507812 35.855469 L 6.425781 35.902344 L 6.347656 35.957031 C 5.917969 36.265625 5.589844 36.582031 5.394531 36.867188 C 5.191406 37.148438 5.089844 37.410156 5.066406 37.773438 C 5.035156 38.125 5.113281 38.589844 5.316406 39.085938 C 5.519531 39.585938 5.828125 40.109375 6.210938 40.605469 C 6.40625 40.855469 6.621094 41.105469 6.847656 41.34375 C 7.074219 41.582031 7.3125 41.808594 7.5625 42.035156 C 7.8125 42.25 8.070312 42.464844 8.34375 42.660156 C 8.617188 42.851562 8.898438 43.03125 9.183594 43.203125 C 9.328125 43.28125 9.464844 43.363281 9.613281 43.441406 C 9.691406 43.476562 9.785156 43.519531 9.863281 43.566406 C 9.941406 43.609375 10.03125 43.644531 10.125 43.691406 C 10.464844 43.847656 10.828125 44.007812 11.179688 44.167969 C 11.890625 44.484375 12.640625 44.824219 13.378906 45.199219 C 13.75 45.390625 14.113281 45.582031 14.476562 45.800781 C 14.566406 45.855469 14.65625 45.914062 14.75 45.96875 C 14.839844 46.027344 14.929688 46.082031 15.019531 46.140625 C 15.203125 46.265625 15.371094 46.378906 15.542969 46.5 C 15.632812 46.570312 15.710938 46.625 15.792969 46.695312 L 16.042969 46.898438 C 16.121094 46.964844 16.210938 47.035156 16.289062 47.113281 C 16.371094 47.183594 16.449219 47.273438 16.527344 47.339844 C 16.835938 47.65625 17.117188 48 17.34375 48.371094 L 17.425781 48.519531 C 17.445312 48.566406 17.46875 48.621094 17.503906 48.667969 C 17.550781 48.769531 17.59375 48.871094 17.640625 48.972656 L 17.671875 49.050781 L 17.695312 49.132812 L 17.742188 49.289062 C 17.753906 49.347656 17.765625 49.394531 17.777344 49.449219 C 17.785156 49.507812 17.796875 49.550781 17.808594 49.609375 L 17.832031 49.765625 C 17.832031 49.789062 17.84375 49.824219 17.84375 49.847656 L 17.84375 50.085938 C 17.84375 50.140625 17.832031 50.1875 17.820312 50.242188 C 17.808594 50.34375 17.777344 50.445312 17.753906 50.550781 C 17.765625 50.683594 17.71875 50.785156 17.671875 50.878906 Z M 17.671875 50.878906 " fill-opacity="1" fill-rule="nonzero"/></g></g></g></g></g><g mask="url(#6e41c7a879)"><g transform="matrix(1, 0, 0, 1, 209, 30)"><g clip-path="url(#9b3ee75286)"><g clip-path="url(#aee5ed0b1e)"><path fill="#0c356a" d="M 8.007812 27.332031 C 8.050781 26.9375 8.039062 26.5625 7.972656 26.199219 C 7.90625 25.835938 7.78125 25.507812 7.609375 25.203125 C 7.441406 24.90625 7.234375 24.636719 6.996094 24.429688 C 6.871094 24.328125 6.75 24.238281 6.613281 24.148438 C 6.476562 24.058594 6.328125 23.988281 6.179688 23.910156 C 5.582031 23.613281 4.878906 23.421875 4.117188 23.140625 C 3.734375 23.003906 3.335938 22.832031 2.929688 22.605469 C 2.722656 22.492188 2.519531 22.355469 2.316406 22.199219 C 2.113281 22.039062 1.917969 21.871094 1.75 21.664062 L 1.613281 21.507812 L 1.488281 21.347656 C 1.441406 21.292969 1.410156 21.234375 1.375 21.179688 C 1.339844 21.121094 1.296875 21.0625 1.261719 20.996094 C 1.125 20.746094 1.011719 20.496094 0.921875 20.226562 C 0.75 19.691406 0.707031 19.136719 0.738281 18.617188 C 0.773438 18.082031 0.886719 17.585938 1.070312 17.109375 C 1.160156 16.871094 1.261719 16.644531 1.375 16.417969 C 1.488281 16.191406 1.625 15.984375 1.769531 15.769531 C 1.917969 15.566406 2.078125 15.363281 2.246094 15.179688 C 2.339844 15.089844 2.429688 15 2.519531 14.910156 C 2.609375 14.816406 2.699219 14.75 2.792969 14.671875 C 3.164062 14.351562 3.609375 14.070312 4.050781 13.84375 C 4.492188 13.617188 4.921875 13.480469 5.296875 13.34375 C 5.683594 13.21875 6.035156 13.105469 6.375 12.980469 C 6.542969 12.925781 6.714844 12.867188 6.882812 12.800781 C 7.054688 12.730469 7.222656 12.675781 7.382812 12.605469 L 7.632812 12.503906 L 7.894531 12.402344 L 8.402344 12.1875 C 9.0625 11.90625 9.707031 11.609375 10.296875 11.269531 C 11.488281 10.601562 12.542969 9.773438 13.050781 8.777344 C 13.085938 8.707031 13.121094 8.652344 13.140625 8.582031 C 13.164062 8.515625 13.199219 8.445312 13.222656 8.378906 C 13.265625 8.242188 13.324219 8.09375 13.359375 7.949219 C 13.4375 7.652344 13.480469 7.335938 13.503906 7.007812 C 13.527344 6.679688 13.527344 6.339844 13.503906 5.988281 C 13.480469 5.636719 13.4375 5.285156 13.367188 4.933594 C 13.3125 4.570312 13.222656 4.21875 13.128906 3.855469 C 13.039062 3.492188 12.9375 3.128906 12.824219 2.765625 C 12.597656 2.042969 12.324219 1.328125 12.019531 0.601562 C 12.597656 1.132812 13.121094 1.734375 13.585938 2.382812 C 14.050781 3.027344 14.457031 3.730469 14.796875 4.480469 C 15.125 5.226562 15.398438 6.042969 15.511719 6.917969 C 15.566406 7.359375 15.589844 7.8125 15.558594 8.265625 C 15.546875 8.492188 15.511719 8.730469 15.464844 8.957031 C 15.445312 9.070312 15.421875 9.195312 15.386719 9.308594 C 15.363281 9.421875 15.320312 9.535156 15.285156 9.648438 C 15.261719 9.703125 15.25 9.761719 15.226562 9.820312 L 15.160156 9.988281 C 15.113281 10.101562 15.070312 10.214844 15.011719 10.328125 C 14.957031 10.441406 14.910156 10.542969 14.84375 10.644531 L 14.753906 10.804688 L 14.660156 10.953125 C 14.410156 11.359375 14.128906 11.722656 13.8125 12.050781 C 13.503906 12.378906 13.175781 12.6875 12.835938 12.96875 C 12.496094 13.253906 12.144531 13.503906 11.792969 13.730469 C 11.078125 14.195312 10.34375 14.589844 9.605469 14.929688 C 9.421875 15.023438 9.230469 15.101562 9.050781 15.179688 L 8.777344 15.292969 L 8.492188 15.417969 C 8.109375 15.578125 7.722656 15.714844 7.335938 15.847656 C 6.953125 15.972656 6.566406 16.097656 6.226562 16.210938 C 5.875 16.324219 5.570312 16.425781 5.332031 16.542969 C 5.082031 16.65625 4.867188 16.777344 4.640625 16.949219 C 4.582031 16.996094 4.527344 17.039062 4.46875 17.074219 C 4.425781 17.109375 4.378906 17.152344 4.320312 17.199219 C 4.230469 17.289062 4.140625 17.378906 4.050781 17.480469 C 3.710938 17.890625 3.460938 18.390625 3.371094 18.863281 C 3.324219 19.101562 3.3125 19.328125 3.347656 19.535156 C 3.359375 19.636719 3.394531 19.738281 3.425781 19.839844 C 3.4375 19.863281 3.449219 19.886719 3.460938 19.90625 C 3.472656 19.929688 3.484375 19.953125 3.496094 19.988281 L 3.527344 20.066406 L 3.574219 20.144531 C 3.628906 20.25 3.710938 20.339844 3.800781 20.441406 C 3.890625 20.542969 3.992188 20.632812 4.105469 20.734375 C 4.34375 20.929688 4.628906 21.121094 4.933594 21.3125 C 5.558594 21.699219 6.285156 22.085938 6.964844 22.652344 C 7.304688 22.933594 7.621094 23.265625 7.871094 23.660156 C 8.121094 24.046875 8.277344 24.476562 8.359375 24.894531 C 8.449219 25.328125 8.449219 25.757812 8.378906 26.164062 C 8.359375 26.621094 8.210938 27.003906 8.007812 27.332031 Z M 8.007812 27.332031 " fill-opacity="1" fill-rule="nonzero"/></g></g></g></g><g clip-path="url(#19960d76d9)"><g mask="url(#59a09205a9)"><g transform="matrix(1, 0, 0, 1, 209, 13)"><g clip-path="url(#9e0aba1840)"><g clip-path="url(#9bc26bdecd)"><path fill="#0c356a" d="M 14.230469 44.933594 C 13.628906 44.707031 13.074219 44.320312 12.609375 43.847656 C 12.144531 43.371094 11.769531 42.792969 11.507812 42.167969 C 11.238281 41.542969 11.089844 40.851562 11.054688 40.148438 C 11.023438 39.449219 11.125 38.722656 11.386719 38.03125 C 11.507812 37.691406 11.691406 37.351562 11.882812 37.042969 C 11.90625 37.011719 11.929688 36.964844 11.953125 36.929688 L 12.03125 36.816406 L 12.191406 36.601562 C 12.292969 36.453125 12.40625 36.328125 12.519531 36.195312 C 12.972656 35.660156 13.472656 35.207031 13.9375 34.777344 C 14.402344 34.347656 14.855469 33.925781 15.226562 33.507812 C 15.601562 33.085938 15.886719 32.644531 16.066406 32.214844 C 16.089844 32.15625 16.113281 32.101562 16.136719 32.042969 L 16.191406 31.875 C 16.203125 31.839844 16.214844 31.816406 16.214844 31.785156 L 16.238281 31.691406 L 16.269531 31.511719 C 16.304688 31.273438 16.339844 31.035156 16.328125 30.785156 C 16.328125 30.535156 16.304688 30.289062 16.269531 30.039062 C 16.226562 29.789062 16.167969 29.539062 16.078125 29.289062 C 16 29.039062 15.898438 28.800781 15.785156 28.574219 C 15.726562 28.460938 15.660156 28.347656 15.601562 28.234375 C 15.535156 28.121094 15.476562 28.007812 15.398438 27.90625 L 15.285156 27.746094 L 15.160156 27.589844 C 15.082031 27.488281 14.988281 27.386719 14.910156 27.285156 C 14.820312 27.179688 14.730469 27.078125 14.636719 26.988281 C 14.535156 26.898438 14.445312 26.796875 14.34375 26.703125 C 13.945312 26.34375 13.492188 26.003906 13.015625 25.683594 C 12.542969 25.378906 12.03125 25.082031 11.5 24.835938 C 10.964844 24.574219 10.421875 24.324219 9.84375 24.097656 C 9.277344 23.859375 8.6875 23.632812 8.097656 23.382812 C 7.507812 23.144531 6.894531 22.894531 6.292969 22.613281 C 5.988281 22.476562 5.683594 22.328125 5.386719 22.171875 C 5.082031 22.023438 4.777344 21.851562 4.46875 21.671875 C 3.859375 21.296875 3.222656 20.84375 2.667969 20.253906 C 2.53125 20.105469 2.394531 19.9375 2.269531 19.777344 L 2.226562 19.722656 L 2.179688 19.652344 L 2.089844 19.527344 C 2.03125 19.4375 1.976562 19.359375 1.917969 19.269531 L 1.769531 18.996094 C 1.714844 18.90625 1.679688 18.816406 1.636719 18.722656 C 1.542969 18.542969 1.476562 18.351562 1.410156 18.167969 C 1.285156 17.792969 1.171875 17.410156 1.113281 17.011719 C 1.078125 16.820312 1.058594 16.625 1.046875 16.421875 C 1.035156 16.320312 1.035156 16.230469 1.035156 16.128906 C 1.035156 16.027344 1.023438 15.933594 1.035156 15.832031 L 1.046875 15.539062 C 1.046875 15.4375 1.058594 15.347656 1.070312 15.242188 C 1.078125 15.050781 1.113281 14.859375 1.148438 14.664062 C 1.226562 14.28125 1.316406 13.90625 1.453125 13.53125 C 1.726562 12.796875 2.121094 12.136719 2.585938 11.546875 C 2.824219 11.253906 3.074219 10.980469 3.359375 10.730469 C 3.496094 10.605469 3.628906 10.480469 3.777344 10.367188 C 3.847656 10.3125 3.925781 10.253906 3.992188 10.199219 C 4.0625 10.140625 4.140625 10.085938 4.21875 10.039062 L 4.445312 9.882812 C 4.527344 9.835938 4.605469 9.78125 4.671875 9.734375 C 4.832031 9.632812 4.992188 9.550781 5.148438 9.460938 C 5.480469 9.304688 5.808594 9.144531 6.148438 9.019531 C 6.828125 8.769531 7.484375 8.625 8.121094 8.5 C 8.753906 8.375 9.367188 8.261719 9.945312 8.113281 C 10.230469 8.046875 10.511719 7.964844 10.785156 7.863281 C 11.054688 7.773438 11.304688 7.660156 11.542969 7.523438 C 12.019531 7.261719 12.417969 6.898438 12.710938 6.445312 C 13.015625 5.980469 13.210938 5.414062 13.359375 4.824219 C 13.640625 3.644531 13.652344 2.375 13.359375 1.128906 C 13.945312 2.273438 14.21875 3.601562 14.140625 4.9375 C 14.117188 5.277344 14.082031 5.609375 14.003906 5.949219 C 13.9375 6.289062 13.832031 6.628906 13.6875 6.957031 C 13.402344 7.625 12.902344 8.238281 12.316406 8.679688 C 12.019531 8.90625 11.714844 9.089844 11.394531 9.257812 C 11.078125 9.417969 10.761719 9.550781 10.445312 9.675781 C 9.808594 9.925781 9.1875 10.109375 8.585938 10.300781 C 7.996094 10.492188 7.417969 10.6875 6.929688 10.925781 C 6.679688 11.039062 6.441406 11.183594 6.214844 11.320312 C 6.101562 11.402344 5.988281 11.46875 5.875 11.558594 C 5.820312 11.605469 5.761719 11.636719 5.714844 11.683594 L 5.558594 11.808594 C 4.730469 12.5 4.105469 13.394531 3.824219 14.347656 C 3.742188 14.574219 3.710938 14.824219 3.675781 15.0625 C 3.664062 15.1875 3.652344 15.3125 3.652344 15.425781 C 3.652344 15.480469 3.640625 15.550781 3.652344 15.605469 L 3.652344 15.789062 C 3.652344 15.84375 3.664062 15.914062 3.664062 15.96875 C 3.675781 16.027344 3.675781 16.09375 3.6875 16.152344 C 3.710938 16.273438 3.722656 16.390625 3.753906 16.511719 C 3.800781 16.75 3.878906 16.976562 3.960938 17.195312 C 4.003906 17.296875 4.050781 17.410156 4.105469 17.511719 C 4.140625 17.554688 4.152344 17.613281 4.1875 17.660156 L 4.277344 17.804688 C 4.300781 17.851562 4.34375 17.898438 4.378906 17.941406 L 4.425781 18.011719 L 4.445312 18.042969 L 4.46875 18.078125 C 4.539062 18.15625 4.605469 18.246094 4.695312 18.328125 C 5.023438 18.65625 5.433594 18.949219 5.910156 19.222656 C 6.386719 19.496094 6.929688 19.753906 7.484375 20.003906 C 8.039062 20.253906 8.609375 20.480469 9.195312 20.71875 C 10.363281 21.195312 11.589844 21.671875 12.800781 22.304688 C 13.402344 22.625 14.003906 22.976562 14.582031 23.371094 C 15.160156 23.769531 15.714844 24.222656 16.238281 24.734375 C 16.375 24.855469 16.488281 24.992188 16.609375 25.128906 C 16.734375 25.265625 16.847656 25.402344 16.972656 25.546875 C 17.085938 25.695312 17.199219 25.84375 17.300781 25.992188 L 17.460938 26.21875 L 17.609375 26.457031 C 17.710938 26.613281 17.800781 26.785156 17.890625 26.953125 C 17.9375 27.035156 17.972656 27.125 18.015625 27.214844 C 18.050781 27.304688 18.097656 27.386719 18.128906 27.476562 C 18.277344 27.828125 18.402344 28.179688 18.492188 28.554688 C 18.59375 28.914062 18.652344 29.300781 18.695312 29.675781 C 18.730469 30.0625 18.753906 30.445312 18.71875 30.832031 C 18.695312 31.21875 18.617188 31.601562 18.527344 31.988281 L 18.4375 32.269531 L 18.390625 32.40625 C 18.378906 32.453125 18.355469 32.5 18.335938 32.542969 L 18.222656 32.816406 C 18.1875 32.90625 18.128906 32.996094 18.085938 33.085938 C 17.722656 33.800781 17.222656 34.390625 16.703125 34.867188 C 16.179688 35.355469 15.648438 35.75 15.136719 36.125 C 14.628906 36.5 14.140625 36.863281 13.710938 37.25 C 13.605469 37.351562 13.503906 37.441406 13.402344 37.542969 L 13.253906 37.703125 L 13.1875 37.78125 C 13.164062 37.804688 13.140625 37.835938 13.121094 37.859375 C 13.039062 37.960938 12.9375 38.074219 12.871094 38.179688 C 12.824219 38.234375 12.789062 38.292969 12.757812 38.347656 L 12.699219 38.4375 L 12.65625 38.527344 C 12.394531 39.003906 12.222656 39.550781 12.167969 40.117188 C 12.097656 40.683594 12.144531 41.273438 12.269531 41.863281 C 12.40625 42.441406 12.632812 43.007812 12.960938 43.527344 C 13.277344 44.09375 13.710938 44.558594 14.230469 44.933594 Z M 14.230469 44.933594 " fill-opacity="1" fill-rule="nonzero"/></g></g></g></g></g></svg>